<svg version="1.1" xmlns="http://www.w3.org/2000/svg" xmlns:xlink="http://www.w3.org/1999/xlink" stroke-linecap="round" stroke-linejoin="round" stroke-width="0" fill-rule="evenodd" clip-rule="evenodd" id="wwV-II4vkmeSYwfdlHQF_bottom" viewBox="393.701 393.701 3937.008 1968.504" width="3.9370079999999996in" height="1.9685039999999998in" class="w-100 h-100"><defs><style>.wwV-II4vkmeSYwfdlHQF_fr4 {color: #666666;}
.wwV-II4vkmeSYwfdlHQF_cu {color: #cccccc;}
.wwV-II4vkmeSYwfdlHQF_cf {color: #cc9933;}
.wwV-II4vkmeSYwfdlHQF_sm {color: #004200; opacity: 0.75;}
.wwV-II4vkmeSYwfdlHQF_ss {color: #ffffff;}
.wwV-II4vkmeSYwfdlHQF_sp {color: #999999;}
.wwV-II4vkmeSYwfdlHQF_out {color: #000000;}</style><rect x="-22.335" y="-21.8685" width="44.67" height="43.737" rx="21.8685" ry="21.8685" id="YM8oGotyCKBMg9FnAgfb_pad-17"/><circle cx="0" cy="0" r="7.7975" id="YM8oGotyCKBMg9FnAgfb_pad-19"/><circle cx="0" cy="0" r="16.3815" id="YM8oGotyCKBMg9FnAgfb_pad-20"/><circle cx="0" cy="0" r="6.236" id="YM8oGotyCKBMg9FnAgfb_pad-21"/><circle cx="0" cy="0" r="6.247" id="YM8oGotyCKBMg9FnAgfb_pad-22"/><circle cx="0" cy="0" r="6.236" id="YM8oGotyCKBMg9FnAgfb_pad-23"/><circle cx="0" cy="0" r="6.247" id="YM8oGotyCKBMg9FnAgfb_pad-24"/><circle cx="0" cy="0" r="7.022" id="YM8oGotyCKBMg9FnAgfb_pad-25"/><rect x="-7.022" y="-7.792" width="14.044" height="15.584" rx="7.022" ry="7.022" id="YM8oGotyCKBMg9FnAgfb_pad-26"/><rect x="-16.3815" y="-13.2425" width="32.763" height="26.485" rx="13.2425" ry="13.2425" id="YM8oGotyCKBMg9FnAgfb_pad-27"/><rect x="-3.1235" y="-3.9145" width="6.247" height="7.829" rx="3.1235" ry="3.1235" id="YM8oGotyCKBMg9FnAgfb_pad-28"/><circle cx="0" cy="0" r="7.022" id="YM8oGotyCKBMg9FnAgfb_pad-29"/><rect x="-7.022" y="-7.8285" width="14.044" height="15.657" rx="7.022" ry="7.022" id="YM8oGotyCKBMg9FnAgfb_pad-30"/><rect x="-7.022" y="-6.219" width="14.044" height="12.438" rx="6.219" ry="6.219" id="YM8oGotyCKBMg9FnAgfb_pad-31"/><rect x="-5.4605" y="-6.219" width="10.921" height="12.438" rx="5.4605" ry="5.4605" id="YM8oGotyCKBMg9FnAgfb_pad-32"/><rect x="-66.5355" y="-28.937" width="133.071" height="57.874" id="bR-DHm82On8-RYL5VWuq_pad-47"/><rect x="-35.433" y="-39.37" width="70.866" height="78.74" id="bR-DHm82On8-RYL5VWuq_pad-45"/><circle cx="0" cy="0" r="39.37" id="bR-DHm82On8-RYL5VWuq_pad-43"/><circle cx="0" cy="0" r="59.055" id="bR-DHm82On8-RYL5VWuq_pad-38"/><circle cx="0" cy="0" r="20" id="cZNswwq19LVCXtNCAn2J_pad-36"/><rect x="-62.5985" y="-25" width="125.197" height="50" id="cZNswwq19LVCXtNCAn2J_pad-18"/><rect x="-31.496" y="-35.433" width="62.992" height="70.866" id="cZNswwq19LVCXtNCAn2J_pad-33"/><circle cx="0" cy="0" r="35.433" id="cZNswwq19LVCXtNCAn2J_pad-35"/><circle cx="0" cy="0" r="9.55" id="tXpkak0LK86hh7I5NXnc_pad-1"/><circle cx="0" cy="0" r="19.7" id="tXpkak0LK86hh7I5NXnc_pad-2"/><circle cx="0" cy="0" r="59.05" id="tXpkak0LK86hh7I5NXnc_pad-3"/><g id="wwV-II4vkmeSYwfdlHQF_bottom_silkscreen"><use xlink:href="#YM8oGotyCKBMg9FnAgfb_pad-17" x="3288.499" y="1213.958"/><path d="M 3434.854 680.238 3434.854 790.524 M 3434.854 585.94 3434.854 593.673 M 3434.854 585.94 3336.8 585.94 3336.8 692.131 M 3336.8 778.696 3336.8 892.816 M 3434.854 880.274 3434.854 990.559 M 3336.8 978.666 3336.8 1092.852 M 3434.854 1080.374 3434.854 1185.85 M 3336.8 1178.832 3336.8 1185.85 3434.854 1185.85" fill="none" stroke-width="9.843"/><use xlink:href="#YM8oGotyCKBMg9FnAgfb_pad-17" x="2258.976" y="1213.958"/><path d="M 2405.332 680.238 2405.332 790.524 M 2405.332 585.94 2405.332 593.673 M 2405.332 585.94 2307.277 585.94 2307.277 692.131 M 2307.277 778.696 2307.277 892.816 M 2405.332 880.274 2405.332 990.559 M 2307.277 978.666 2307.277 1092.852 M 2405.332 1080.374 2405.332 1185.85 M 2307.277 1178.832 2307.277 1185.85 2405.332 1185.85" fill="none" stroke-width="9.843"/><use xlink:href="#YM8oGotyCKBMg9FnAgfb_pad-19" x="3856.906" y="1578.518"/><path d="M 3827.267 1745.442 3683.5 1661.084 3827.267 1595.456 3827.267 1745.442"/><path d="M 3689.991 1581.628 3689.991 1522.365 3691.542 1514.537 3696.216 1503.635 3700.89 1495.807 3707.137 1488.051 3713.383 1483.369 3722.732 1478.686 3730.551 1477.15 3741.45 1475.54 3750.82 1477.15 3761.741 1481.832 3767.988 1488.051 3774.213 1495.807 3778.909 1505.172 3782.01 1513 3827.267 1464.639 3827.267 1581.628 3689.991 1581.628"/><path d="M 3689.991 1483.369 3689.991 1339.821 3728.978 1360.087 3733.653 1388.182 3825.694 1397.547 3825.694 1424.106 3733.653 1433.471 3728.978 1461.493 3689.991 1483.369"/><path d="M 3747.697 1325.773 3747.697 1305.507 3827.267 1285.24 3827.267 1344.503 3747.697 1325.773"/><path d="M 3800.751 1168.251 3763.292 1236.879 3727.428 1168.251 3716.507 1177.616 3710.26 1186.981 3704.013 1199.419 3700.89 1211.93 3700.89 1225.978 3704.013 1238.415 3708.709 1250.926 3716.507 1261.828 3727.428 1271.193 3738.349 1277.412 3750.82 1280.558 3763.292 1282.094 3777.336 1280.558 3789.83 1277.412 3802.301 1269.656 3811.65 1260.291 3819.469 1249.39 3824.143 1236.879 3827.267 1225.978 3827.267 1211.93 3824.143 1199.419 3817.896 1185.372 3800.751 1168.251"/><path d="M 3825.694 1166.715 3680.621 1102.696 3827.267 1013.802 3825.694 1166.715"/><use xlink:href="#YM8oGotyCKBMg9FnAgfb_pad-20" x="3704.8" y="1315.677"/><path d="M 3856.906 1662.767 3894.343 1662.767 3894.343 1650.256 3856.906 1650.256 3856.906 1662.767"/><use xlink:href="#YM8oGotyCKBMg9FnAgfb_pad-21" x="3855.344" y="1656.511"/><use xlink:href="#YM8oGotyCKBMg9FnAgfb_pad-22" x="3894.343" y="1656.511"/><path d="M 3856.906 1645.573 3894.343 1645.573 3894.343 1633.135 3856.906 1633.135 3856.906 1645.573"/><use xlink:href="#YM8oGotyCKBMg9FnAgfb_pad-23" x="3855.344" y="1639.354"/><use xlink:href="#YM8oGotyCKBMg9FnAgfb_pad-24" x="3894.343" y="1639.354"/><path d="M 3856.906 1605.04 3894.343 1605.04 3894.343 1592.529 3856.906 1592.529 3856.906 1605.04"/><use xlink:href="#YM8oGotyCKBMg9FnAgfb_pad-21" x="3855.344" y="1598.785"/><use xlink:href="#YM8oGotyCKBMg9FnAgfb_pad-22" x="3894.343" y="1598.785"/><path d="M 3858.457 1513 3895.894 1513 3895.894 1500.489 3858.457 1500.489 3858.457 1513"/><use xlink:href="#YM8oGotyCKBMg9FnAgfb_pad-21" x="3856.895" y="1506.745"/><use xlink:href="#YM8oGotyCKBMg9FnAgfb_pad-21" x="3895.905" y="1506.745"/><use xlink:href="#YM8oGotyCKBMg9FnAgfb_pad-25" x="3874.849" y="1541.863"/><use xlink:href="#YM8oGotyCKBMg9FnAgfb_pad-26" x="3891.995" y="1542.668"/><use xlink:href="#YM8oGotyCKBMg9FnAgfb_pad-19" x="3856.906" y="1132.364"/><path d="M 3849.109 1525.511 3861.58 1525.511 3861.58 1488.051 3849.109 1488.051 3849.109 1525.511"/><use xlink:href="#YM8oGotyCKBMg9FnAgfb_pad-21" x="3855.344" y="1523.938"/><use xlink:href="#YM8oGotyCKBMg9FnAgfb_pad-23" x="3855.344" y="1489.588"/><path d="M 3856.906 1475.54 3894.343 1475.54 3894.343 1463.102 3856.906 1463.102 3856.906 1475.54"/><use xlink:href="#YM8oGotyCKBMg9FnAgfb_pad-23" x="3855.344" y="1469.321"/><use xlink:href="#YM8oGotyCKBMg9FnAgfb_pad-24" x="3894.343" y="1469.321"/><path d="M 3856.906 1420.96 3875.625 1420.96 3875.625 1408.449 3856.906 1408.449 3856.906 1420.96"/><use xlink:href="#YM8oGotyCKBMg9FnAgfb_pad-21" x="3855.344" y="1414.704"/><path d="M 3849.109 1469.321 3881.871 1469.321 3881.871 1435.007 3849.109 1435.007 3849.109 1469.321"/><path d="M 3856.906 1380.427 3870.95 1380.427 3870.95 1367.916 3856.906 1367.916 3856.906 1380.427"/><use xlink:href="#YM8oGotyCKBMg9FnAgfb_pad-21" x="3855.344" y="1374.171"/><use xlink:href="#YM8oGotyCKBMg9FnAgfb_pad-27" x="3865.49" y="1437.348"/><path d="M 3858.457 1174.47 3895.894 1174.47 3895.894 1162.032 3858.457 1162.032 3858.457 1174.47"/><use xlink:href="#YM8oGotyCKBMg9FnAgfb_pad-23" x="3856.895" y="1168.251"/><use xlink:href="#YM8oGotyCKBMg9FnAgfb_pad-23" x="3895.905" y="1168.251"/><path d="M 3849.109 1186.981 3861.58 1186.981 3861.58 1149.521 3849.109 1149.521 3849.109 1186.981"/><use xlink:href="#YM8oGotyCKBMg9FnAgfb_pad-21" x="3855.344" y="1185.408"/><use xlink:href="#YM8oGotyCKBMg9FnAgfb_pad-21" x="3855.344" y="1151.094"/><path d="M 3856.906 1307.116 3894.343 1307.116 3894.343 1294.605 3856.906 1294.605 3856.906 1307.116"/><use xlink:href="#YM8oGotyCKBMg9FnAgfb_pad-21" x="3855.344" y="1300.861"/><use xlink:href="#YM8oGotyCKBMg9FnAgfb_pad-22" x="3894.343" y="1300.861"/><path d="M 3856.906 1324.237 3894.343 1324.237 3894.343 1311.726 3856.906 1311.726 3856.906 1324.237"/><use xlink:href="#YM8oGotyCKBMg9FnAgfb_pad-21" x="3855.344" y="1317.981"/><use xlink:href="#YM8oGotyCKBMg9FnAgfb_pad-22" x="3894.343" y="1317.981"/><path d="M 3856.906 1364.77 3894.343 1364.77 3894.343 1352.332 3856.906 1352.332 3856.906 1364.77"/><use xlink:href="#YM8oGotyCKBMg9FnAgfb_pad-23" x="3855.344" y="1358.551"/><use xlink:href="#YM8oGotyCKBMg9FnAgfb_pad-24" x="3894.343" y="1358.551"/><path d="M 3872.501 1417.814 3881.871 1417.814 3881.871 1408.449 3872.501 1408.449 3872.501 1417.814"/><use xlink:href="#YM8oGotyCKBMg9FnAgfb_pad-28" x="3880.299" y="1339.053"/><use xlink:href="#YM8oGotyCKBMg9FnAgfb_pad-29" x="3874.849" y="1095.672"/><use xlink:href="#YM8oGotyCKBMg9FnAgfb_pad-30" x="3891.995" y="1096.477"/><path d="M 3849.109 1130.791 3861.58 1130.791 3861.58 1093.331 3849.109 1093.331 3849.109 1130.791"/><use xlink:href="#YM8oGotyCKBMg9FnAgfb_pad-23" x="3855.344" y="1129.255"/><use xlink:href="#YM8oGotyCKBMg9FnAgfb_pad-21" x="3855.344" y="1094.904"/><path d="M 3867.827 1135.474 3878.748 1135.474 3878.748 1098.014 3867.827 1098.014 3867.827 1135.474"/><use xlink:href="#YM8oGotyCKBMg9FnAgfb_pad-31" x="3871.726" y="1133.937"/><path d="M 3888.096 1135.474 3899.017 1135.474 3899.017 1098.014 3888.096 1098.014 3888.096 1135.474"/><path d="M 3849.109 1639.354 3888.096 1595.675 3900.59 1597.212 3897.466 1603.504 3866.254 1639.354 3849.109 1639.354"/><path d="M 3856.906 1250.926 3894.343 1250.926 3894.343 1238.415 3856.906 1238.415 3856.906 1250.926"/><use xlink:href="#YM8oGotyCKBMg9FnAgfb_pad-21" x="3855.344" y="1244.671"/><use xlink:href="#YM8oGotyCKBMg9FnAgfb_pad-22" x="3894.343" y="1244.671"/><path d="M 3856.906 1210.394 3894.343 1210.394 3894.343 1197.883 3856.906 1197.883 3856.906 1210.394"/><use xlink:href="#YM8oGotyCKBMg9FnAgfb_pad-21" x="3855.344" y="1204.138"/><use xlink:href="#YM8oGotyCKBMg9FnAgfb_pad-22" x="3894.343" y="1204.138"/><path d="M 3849.109 1244.708 3888.096 1201.029 3900.59 1202.565 3897.466 1208.784 3866.254 1244.708 3849.109 1244.708"/><path d="M 3849.109 1576.945 3861.58 1576.945 3861.58 1539.559 3849.109 1539.559 3849.109 1576.945"/><use xlink:href="#YM8oGotyCKBMg9FnAgfb_pad-23" x="3855.344" y="1575.409"/><use xlink:href="#YM8oGotyCKBMg9FnAgfb_pad-23" x="3855.344" y="1541.095"/><path d="M 3867.827 1581.628 3878.748 1581.628 3878.748 1544.168 3867.827 1544.168 3867.827 1581.628"/><use xlink:href="#YM8oGotyCKBMg9FnAgfb_pad-31" x="3871.726" y="1580.092"/><use xlink:href="#YM8oGotyCKBMg9FnAgfb_pad-32" x="3893.557" y="1135.474"/><path d="M 3888.096 1581.628 3899.017 1581.628 3899.017 1544.168 3888.096 1544.168 3888.096 1581.628"/><use xlink:href="#YM8oGotyCKBMg9FnAgfb_pad-32" x="3893.557" y="1581.628"/><use xlink:href="#YM8oGotyCKBMg9FnAgfb_pad-23" x="3892.781" y="1545.778"/><use xlink:href="#YM8oGotyCKBMg9FnAgfb_pad-22" x="3894.343" y="1431.898"/><path d="M 3880.299 1456.81 3899.017 1436.544 3889.669 1427.179 3877.175 1439.69 3880.299 1456.81"/><path d="M 3900.59 1396.011 3900.59 1385.109 3892.77 1374.135 3881.871 1369.452 3869.378 1367.916 3867.827 1380.427 3880.299 1381.963 3900.59 1396.011"/><path d="M 3869.378 1420.96 3884.973 1420.96 3899.017 1410.058 3900.59 1392.865 3891.219 1378.817 3886.545 1386.646 3889.669 1392.865 3888.096 1402.23 3869.378 1420.96"/><path d="M 3849.109 1357.014 3866.254 1338.284 3850.659 1321.091 3860.03 1314.872 3880.299 1335.138 3880.299 1342.967 3866.254 1357.014 3849.109 1357.014"/><path d="M 3858.457 1586.31 3870.95 1586.31 3870.95 1573.873 3858.457 1573.873 3858.457 1586.31"/><path d="M 3877.175 1545.778 3891.219 1545.778 3891.219 1534.876 3877.175 1534.876 3877.175 1545.778"/><path d="M 3847.536 1300.824 3860.03 1300.824 3860.03 1263.438 3847.536 1263.438 3847.536 1300.824"/><use xlink:href="#YM8oGotyCKBMg9FnAgfb_pad-24" x="3853.783" y="1299.288"/><use xlink:href="#YM8oGotyCKBMg9FnAgfb_pad-24" x="3853.783" y="1264.974"/><path d="M 3867.827 1302.434 3880.299 1302.434 3880.299 1264.974 3867.827 1264.974 3867.827 1302.434"/><use xlink:href="#YM8oGotyCKBMg9FnAgfb_pad-21" x="3874.063" y="1300.861"/><use xlink:href="#YM8oGotyCKBMg9FnAgfb_pad-23" x="3874.063" y="1266.51"/><path d="M 3888.096 1300.824 3900.59 1300.824 3900.59 1263.438 3888.096 1263.438 3888.096 1300.824"/><use xlink:href="#YM8oGotyCKBMg9FnAgfb_pad-24" x="3894.343" y="1299.288"/><use xlink:href="#YM8oGotyCKBMg9FnAgfb_pad-24" x="3894.343" y="1264.974"/><use xlink:href="#YM8oGotyCKBMg9FnAgfb_pad-21" x="3892.781" y="1099.587"/><path d="M 3858.457 1140.156 3870.95 1140.156 3870.95 1127.718 3858.457 1127.718 3858.457 1140.156"/><path d="M 3877.175 1099.623 3891.219 1099.623 3891.219 1088.649 3877.175 1088.649 3877.175 1099.623"/><path d="M 1396.778 820.36 1370.26 820.36 1365.588 789.163 1346.858 781.359 1321.898 801.649 1301.63 781.359 1321.898 756.404 1314.09 739.235 1282.9 734.553 1282.9 706.477 1314.09 703.355 1321.898 684.644 1303.188 659.671 1321.898 640.96 1346.858 659.671 1357.78 655.007 1373.375 692.448 1362.453 701.795 1354.665 712.72 1354.665 725.206 1357.78 736.114 1367.145 743.918 1378.068 748.6 1390.548 748.6 1401.47 742.357 1407.7 732.992 1410.815 720.524 1407.7 708.038 1399.893 697.112 1392.105 692.448 1407.7 655.007 1418.623 659.671 1443.583 640.96 1462.293 659.671 1443.583 686.205 1451.39 703.355 1482.58 706.477 1482.58 734.553 1449.813 737.675 1443.583 756.404 1463.85 781.359 1443.583 800.088 1418.623 781.359 1399.893 787.602 1396.778 820.36"/><path d="M 877.819 1798.701 1069.819 1798.701 1069.819 1888.701 877.819 1888.701 877.819 1798.701 M 888.57 960.576 696.57 960.576 696.57 870.576 888.57 870.576 888.57 960.576 M 1877.819 1798.701 2069.819 1798.701 2069.819 1888.701 1877.819 1888.701 1877.819 1798.701 M 1868.777 960.576 1676.777 960.576 1676.777 870.576 1868.777 870.576 1868.777 960.576 M 2852.819 1798.701 3044.819 1798.701 3044.819 1888.701 2852.819 1888.701 2852.819 1798.701 M 2855.236 960.576 2663.236 960.576 2663.236 870.576 2855.236 870.576 2855.236 960.576 M 3827.819 1798.701 4019.819 1798.701 4019.819 1888.701 3827.819 1888.701 3827.819 1798.701 M 3838.57 960.576 3646.57 960.576 3646.57 870.576 3838.57 870.576 3838.57 960.576" fill="none" stroke-width="9.843"/><path d="M 992.097 1782.755 989.212 1784.215 984.901 1788.492 984.901 1758.382 M 975.637 1788.526 975.637 1758.382 M 955.541 1788.526 975.637 1768.43 M 968.474 1775.626 955.541 1758.382 M 840.207 998.74 837.322 1000.199 833.011 1004.477 833.011 974.366 M 815.125 1004.477 819.436 1003.051 822.321 998.74 823.747 991.577 823.747 987.266 822.321 980.103 819.436 975.792 815.125 974.366 812.273 974.366 807.962 975.792 805.11 980.103 803.651 987.266 803.651 991.577 805.11 998.74 807.962 1003.051 812.273 1004.477 815.125 1004.477 M 805.11 998.74 822.321 980.103 M 785.766 1004.477 790.077 1003.051 792.962 998.74 794.388 991.577 794.388 987.266 792.962 980.103 790.077 975.792 785.766 974.366 782.914 974.366 778.603 975.792 775.751 980.103 774.292 987.266 774.292 991.577 775.751 998.74 778.603 1003.051 782.914 1004.477 785.766 1004.477 M 775.751 998.74 792.962 980.103 M 744.932 1004.51 744.932 974.366 765.028 1004.51 765.028 974.366 M 1992.097 1782.755 1989.212 1784.215 1984.901 1788.492 1984.901 1758.382 M 1975.637 1788.526 1975.637 1758.382 M 1955.541 1788.526 1975.637 1768.43 M 1968.474 1775.626 1955.541 1758.382 M 1820.414 998.74 1817.529 1000.199 1813.218 1004.477 1813.218 974.366 M 1795.333 1004.477 1799.644 1003.051 1802.529 998.74 1803.955 991.577 1803.955 987.266 1802.529 980.103 1799.644 975.792 1795.333 974.366 1792.481 974.366 1788.17 975.792 1785.318 980.103 1783.859 987.266 1783.859 991.577 1785.318 998.74 1788.17 1003.051 1792.481 1004.477 1795.333 1004.477 M 1785.318 998.74 1802.529 980.103 M 1765.973 1004.477 1770.284 1003.051 1773.169 998.74 1774.595 991.577 1774.595 987.266 1773.169 980.103 1770.284 975.792 1765.973 974.366 1763.121 974.366 1758.81 975.792 1755.958 980.103 1754.499 987.266 1754.499 991.577 1755.958 998.74 1758.81 1003.051 1763.121 1004.477 1765.973 1004.477 M 1755.958 998.74 1773.169 980.103 M 1725.14 1004.51 1725.14 974.366 1745.236 1004.51 1745.236 974.366 M 2967.097 1782.755 2964.212 1784.215 2959.901 1788.492 2959.901 1758.382 M 2950.637 1788.526 2950.637 1758.382 M 2930.541 1788.526 2950.637 1768.43 M 2943.474 1775.626 2930.541 1758.382 M 2806.874 998.74 2803.989 1000.199 2799.677 1004.477 2799.677 974.366 M 2781.792 1004.477 2786.103 1003.051 2788.988 998.74 2790.414 991.577 2790.414 987.266 2788.988 980.103 2786.103 975.792 2781.792 974.366 2778.94 974.366 2774.629 975.792 2771.777 980.103 2770.318 987.266 2770.318 991.577 2771.777 998.74 2774.629 1003.051 2778.94 1004.477 2781.792 1004.477 M 2771.777 998.74 2788.988 980.103 M 2752.432 1004.477 2756.743 1003.051 2759.628 998.74 2761.054 991.577 2761.054 987.266 2759.628 980.103 2756.743 975.792 2752.432 974.366 2749.58 974.366 2745.269 975.792 2742.418 980.103 2740.958 987.266 2740.958 991.577 2742.418 998.74 2745.269 1003.051 2749.58 1004.477 2752.432 1004.477 M 2742.418 998.74 2759.628 980.103 M 2711.599 1004.51 2711.599 974.366 2731.695 1004.51 2731.695 974.366 M 3942.097 1782.755 3939.212 1784.215 3934.901 1788.492 3934.901 1758.382 M 3925.637 1788.526 3925.637 1758.382 M 3905.541 1788.526 3925.637 1768.43 M 3918.474 1775.626 3905.541 1758.382 M 3790.207 998.74 3787.322 1000.199 3783.011 1004.477 3783.011 974.366 M 3765.125 1004.477 3769.436 1003.051 3772.321 998.74 3773.747 991.577 3773.747 987.266 3772.321 980.103 3769.436 975.792 3765.125 974.366 3762.273 974.366 3757.962 975.792 3755.11 980.103 3753.651 987.266 3753.651 991.577 3755.11 998.74 3757.962 1003.051 3762.273 1004.477 3765.125 1004.477 M 3755.11 998.74 3772.321 980.103 M 3735.766 1004.477 3740.077 1003.051 3742.962 998.74 3744.388 991.577 3744.388 987.266 3742.962 980.103 3740.077 975.792 3735.766 974.366 3732.914 974.366 3728.603 975.792 3725.751 980.103 3724.292 987.266 3724.292 991.577 3725.751 998.74 3728.603 1003.051 3732.914 1004.477 3735.766 1004.477 M 3725.751 998.74 3742.962 980.103 M 3694.932 1004.51 3694.932 974.366 3715.028 1004.51 3715.028 974.366" fill="none" stroke-width="4.632"/><path d="M 1568.023 1074.885 1568.023 1978.211 1998.794 1376.325 1353.135 1376.325 M 856.495 1979.207 1416.596 1979.207 1416.596 1074.887 M 1416.596 1548.436 1072.378 1548.436" fill="none" stroke-width="138.953"/><path d="M 1246.707 1040.123 1292.736 1160.699 1338.632 1040.123 M 1321.388 1080.315 1263.952 1080.315 M 1209.653 1160.699 1209.653 1040.123 1169.461 1040.123 1152.217 1045.96 1140.677 1057.367 1134.973 1068.908 1129.269 1086.019 1129.269 1114.804 1134.973 1132.048 1140.677 1143.455 1152.217 1154.996 1169.461 1160.699 1209.653 1160.699 M 1017.668 1160.699 1092.215 1160.699 1092.215 1040.123 1017.668 1040.123 M 1092.215 1103.263 1046.319 1103.263 M 980.613 1103.263 929.014 1103.263 911.77 1109.1 905.933 1114.804 900.229 1126.211 900.229 1137.751 905.933 1149.159 911.77 1154.996 929.014 1160.699 980.613 1160.699 980.613 1040.123 M 940.421 1103.263 900.229 1040.123 M 782.791 1143.455 794.199 1154.996 811.443 1160.699 834.391 1160.699 851.635 1154.996 863.175 1143.455 863.175 1132.048 857.339 1120.507 851.635 1114.804 840.227 1109.1 805.739 1097.559 794.199 1091.856 788.495 1086.019 782.791 1074.612 782.791 1057.367 794.199 1045.96 811.443 1040.123 834.391 1040.123 851.635 1045.96 863.175 1057.367" fill="none" stroke-width="18.527"/><path d="M 3976.984 1691.715 3978.886 1689.813 3976.984 1687.868 3975.039 1689.813 3976.984 1691.715 M 3990.382 1689.813 4017.176 1689.813 M 3990.382 1675.517 4017.176 1675.517 M 3998.031 1675.517 3992.283 1669.769 3990.382 1665.922 3990.382 1660.218 3992.283 1656.371 3998.031 1654.47 4017.176 1654.47 M 3996.13 1621.072 3992.283 1622.973 3990.382 1628.721 3990.382 1634.469 3992.283 1640.217 3996.13 1642.119 3999.932 1640.217 4001.878 1636.371 4003.779 1626.82 4005.68 1622.973 4009.527 1621.072 4011.428 1621.072 4015.231 1622.973 4017.176 1628.721 4017.176 1634.469 4015.231 1640.217 4011.428 1642.119 M 3976.984 1602.972 4009.527 1602.972 4015.231 1601.071 4017.176 1597.224 4017.176 1593.422 M 3990.382 1608.72 3990.382 1595.323 M 3990.382 1581.07 4017.176 1581.07 M 4001.878 1581.07 3996.13 1579.125 3992.283 1575.322 3990.382 1571.476 3990.382 1565.728 M 3990.382 1553.376 4009.527 1553.376 4015.231 1551.475 4017.176 1547.628 4017.176 1541.88 4015.231 1538.078 4009.527 1532.33 M 3990.382 1532.33 4017.176 1532.33 M 3990.382 1519.978 4017.176 1519.978 M 3998.031 1519.978 3992.283 1514.23 3990.382 1510.383 3990.382 1504.68 3992.283 1500.833 3998.031 1498.932 4017.176 1498.932 M 3998.031 1498.932 3992.283 1493.184 3990.382 1489.337 3990.382 1483.633 3992.283 1479.786 3998.031 1477.841 4017.176 1477.841 M 4001.878 1465.489 4001.878 1442.541 3998.031 1442.541 3994.184 1444.443 3992.283 1446.344 3990.382 1450.191 3990.382 1455.939 3992.283 1459.741 3996.13 1463.588 4001.878 1465.489 4005.68 1465.489 4011.428 1463.588 4015.231 1459.741 4017.176 1455.939 4017.176 1450.191 4015.231 1446.344 4011.428 1442.541 M 3990.382 1430.19 4017.176 1430.19 M 3998.031 1430.19 3992.283 1424.442 3990.382 1420.595 3990.382 1414.891 3992.283 1411.045 3998.031 1409.143 4017.176 1409.143 M 3976.984 1391.044 4009.527 1391.044 4015.231 1389.143 4017.176 1385.296 4017.176 1381.493 M 3990.382 1396.792 3990.382 1383.395 M 3996.13 1348.095 3992.283 1349.997 3990.382 1355.745 3990.382 1361.493 3992.283 1367.241 3996.13 1369.142 3999.932 1367.241 4001.878 1363.394 4003.779 1353.843 4005.68 1349.997 4009.527 1348.095 4011.428 1348.095 4015.231 1349.997 4017.176 1355.745 4017.176 1361.493 4015.231 1367.241 4011.428 1369.142 M 4013.33 1333.843 4015.275 1335.744 4017.176 1333.843 4015.275 1331.897 4013.33 1333.843 M 3990.382 1296.598 4017.176 1296.598 M 3996.13 1296.598 3992.283 1300.4 3990.382 1304.247 3990.382 1309.951 3992.283 1313.798 3996.13 1317.6 4001.878 1319.546 4005.68 1319.546 4011.428 1317.6 4015.231 1313.798 4017.176 1309.951 4017.176 1304.247 4015.231 1300.4 4011.428 1296.598 M 3990.382 1284.247 4017.176 1284.247 M 4001.878 1284.247 3996.13 1282.301 3992.283 1278.498 3990.382 1274.652 3990.382 1268.904 M 3976.984 1250.804 4009.527 1250.804 4015.231 1248.903 4017.176 1245.056 4017.176 1241.254 M 3990.382 1256.552 3990.382 1243.155 M 3976.984 1228.902 3978.886 1227.001 3976.984 1225.056 3975.039 1227.001 3976.984 1228.902 M 3990.382 1227.001 4017.176 1227.001 M 3996.13 1189.712 3992.283 1193.559 3990.382 1197.406 3990.382 1203.109 3992.283 1206.956 3996.13 1210.759 4001.878 1212.704 4005.68 1212.704 4011.428 1210.759 4015.231 1206.956 4017.176 1203.109 4017.176 1197.406 4015.231 1193.559 4011.428 1189.712 M 3990.382 1154.413 4017.176 1154.413 M 3996.13 1154.413 3992.283 1158.215 3990.382 1162.062 3990.382 1167.766 3992.283 1171.613 3996.13 1175.415 4001.878 1177.361 4005.68 1177.361 4011.428 1175.415 4015.231 1171.613 4017.176 1167.766 4017.176 1162.062 4015.231 1158.215 4011.428 1154.413 M 4013.33 1140.16 4015.275 1142.061 4017.176 1140.16 4015.275 1138.215 4013.33 1140.16 M 3996.13 1102.871 3992.283 1106.718 3990.382 1110.565 3990.382 1116.268 3992.283 1120.115 3996.13 1123.918 4001.878 1125.863 4005.68 1125.863 4011.428 1123.918 4015.231 1120.115 4017.176 1116.268 4017.176 1110.565 4015.231 1106.718 4011.428 1102.871 M 3996.13 1067.528 3992.283 1071.374 3990.382 1075.221 3990.382 1080.925 3992.283 1084.772 3996.13 1088.574 4001.878 1090.52 4005.68 1090.52 4011.428 1088.574 4015.231 1084.772 4017.176 1080.925 4017.176 1075.221 4015.231 1071.374 4011.428 1067.528" fill="none" stroke-width="6.176"/><path d="M 3461.781 1419.902 3511.568 1419.902 3511.568 1339.518 M 3511.568 1381.611 3480.971 1381.611 M 3375.796 1339.518 3406.481 1419.902 3437.079 1339.518 M 3425.583 1366.312 3387.292 1366.312 M 3351.093 1419.902 3351.093 1339.518 3324.298 1339.518 3312.802 1343.408 3305.109 1351.014 3301.306 1358.707 3297.504 1370.115 3297.504 1389.304 3301.306 1400.8 3305.109 1408.405 3312.802 1416.099 3324.298 1419.902 3351.093 1419.902 M 3223.102 1419.902 3272.801 1419.902 3272.801 1339.518 3223.102 1339.518 M 3272.801 1381.611 3242.204 1381.611 M 3198.4 1381.611 3164 1381.611 3152.504 1385.502 3148.613 1389.304 3144.81 1396.909 3144.81 1404.603 3148.613 1412.208 3152.504 1416.099 3164 1419.902 3198.4 1419.902 3198.4 1339.518 M 3171.605 1381.611 3144.81 1339.518 M 3066.518 1408.405 3074.123 1416.099 3085.619 1419.902 3100.918 1419.902 3112.414 1416.099 3120.108 1408.405 3120.108 1400.8 3116.217 1393.107 3112.414 1389.304 3104.809 1385.502 3081.817 1377.808 3074.123 1374.006 3070.321 1370.115 3066.518 1362.51 3066.518 1351.014 3074.123 1343.408 3085.619 1339.518 3100.918 1339.518 3112.414 1343.408 3120.108 1351.014 M 2474.672 1419.902 2474.672 1339.518 2428.777 1339.518 M 2354.375 1419.902 2404.074 1419.902 2404.074 1339.518 2354.375 1339.518 M 2404.074 1381.611 2373.477 1381.611 M 2329.673 1419.902 2329.673 1339.518 2302.878 1339.518 2291.382 1343.408 2283.688 1351.014 2279.886 1358.707 2276.083 1370.115 2276.083 1389.304 2279.886 1400.8 2283.688 1408.405 2291.382 1416.099 2302.878 1419.902 2329.673 1419.902 M 2197.791 1408.405 2205.396 1416.099 2216.892 1419.902 2232.191 1419.902 2243.687 1416.099 2251.381 1408.405 2251.381 1400.8 2247.49 1393.107 2243.687 1389.304 2236.082 1385.502 2213.09 1377.808 2205.396 1374.006 2201.594 1370.115 2197.791 1362.51 2197.791 1351.014 2205.396 1343.408 2216.892 1339.518 2232.191 1339.518 2243.687 1343.408 2251.381 1351.014" fill="none" stroke-width="12.351"/><path d="M 1330.066 1677.246 1318.57 1650.451 1307.118 1677.246 M 1294.767 1682.95 1290.92 1684.895 1285.172 1690.599 1285.172 1650.451 M 1270.92 1654.298 1272.821 1652.352 1270.92 1650.451 1268.974 1652.352 1270.92 1654.298 M 1245.127 1690.599 1250.875 1688.698 1254.721 1682.95 1256.623 1673.399 1256.623 1667.651 1254.721 1658.1 1250.875 1652.352 1245.127 1650.451 1241.324 1650.451 1235.576 1652.352 1231.773 1658.1 1229.828 1667.651 1229.828 1673.399 1231.773 1682.95 1235.576 1688.698 1241.324 1690.599 1245.127 1690.599 M 1231.773 1682.95 1254.721 1658.1" fill="none" stroke-width="6.176"/><path d="M 1527.19 578.461 1528.616 581.313 1531.501 584.198 1534.353 585.624 1540.09 585.624 1542.975 584.198 1545.827 581.313 1547.286 578.461 1548.712 574.15 1548.712 566.954 1547.286 562.676 1545.827 559.791 1542.975 556.939 1540.09 555.48 1534.353 555.48 1531.501 556.939 1528.616 559.791 1527.19 562.676 M 1496.404 578.461 1497.83 581.313 1500.715 584.198 1503.567 585.624 1509.304 585.624 1512.189 584.198 1515.041 581.313 1516.5 578.461 1517.926 574.15 1517.926 566.954 1516.5 562.676 1515.041 559.791 1512.189 556.939 1509.304 555.48 1503.567 555.48 1500.715 556.939 1497.83 559.791 1496.404 562.676 M 1457.98 585.624 1457.98 555.48 1445.047 555.48 1440.736 556.939 1439.31 558.365 1437.884 561.217 1437.884 565.528 1439.31 568.413 1440.736 569.839 1445.047 571.265 1440.736 572.724 1439.31 574.15 1437.884 577.002 1437.884 579.887 1439.31 582.739 1440.736 584.198 1445.047 585.624 1457.98 585.624 M 1457.98 571.265 1445.047 571.265 M 1428.621 585.624 1417.147 571.265 1417.147 555.48 M 1405.673 585.624 1417.147 571.265 M 1396.409 570.535 1379.828 570.535 M 1350.469 581.313 1353.321 584.198 1357.632 585.624 1363.369 585.624 1367.68 584.198 1370.565 581.313 1370.565 578.461 1369.106 575.576 1367.68 574.15 1364.828 572.724 1356.206 569.839 1353.321 568.413 1351.895 566.954 1350.469 564.102 1350.469 559.791 1353.321 556.939 1357.632 555.48 1363.369 555.48 1367.68 556.939 1370.565 559.791 M 1318.224 555.48 1329.731 585.624 1341.205 555.48 M 1336.894 565.528 1322.535 565.528 M 1265.441 555.48 1265.441 585.591 1279.8 565.528 1258.278 565.528 M 1247.589 558.365 1249.015 556.906 1247.589 555.48 1246.13 556.906 1247.589 558.365 M 1228.244 585.591 1232.555 584.165 1235.44 579.854 1236.866 572.691 1236.866 568.38 1235.44 561.217 1232.555 556.906 1228.244 555.48 1225.392 555.48 1221.081 556.906 1218.229 561.217 1216.77 568.38 1216.77 572.691 1218.229 579.854 1221.081 584.165 1225.392 585.591 1228.244 585.591 M 1218.229 579.854 1235.44 561.217" fill="none" stroke-width="4.632"/><path d="M 2181.336 760.417 2181.336 763.269 2178.484 769.04 2175.632 771.891 2169.862 774.743 2158.388 774.743 2152.684 771.891 2149.832 769.04 2146.914 763.269 2146.914 757.566 2149.832 751.795 2155.536 743.24 2184.254 714.522 2144.062 714.522 M 2180.74 1150.883 2147.578 1150.883 M 2164.192 1076.719 2164.192 1025.053 M 2189.992 1050.853 2138.326 1050.853 M 2156.963 920.774 2156.963 980.995 2185.681 940.87 2142.637 940.87 M 2178.484 880.998 2146.98 880.998 2164.158 858.05 2155.536 858.05 2149.832 855.198 2146.98 852.346 2144.062 843.724 2144.062 838.02 2146.98 829.398 2152.684 823.628 2161.306 820.776 2169.928 820.776 2178.484 823.628 2181.336 826.546 2184.254 832.25 M 2171.355 660.141 2165.585 663.059 2156.962 671.615 2156.962 611.393" fill="none" stroke-width="9.264"/><path d="M 3855.827 677.139 3848.134 681.03 3836.638 692.438 3836.638 612.142 M 2876 673.337 2876 677.139 2872.198 684.833 2868.395 688.635 2860.701 692.438 2845.403 692.438 2837.798 688.635 2833.995 684.833 2830.104 677.139 2830.104 669.534 2833.995 661.841 2841.6 650.433 2879.891 612.142 2826.302 612.142 M 1883.701 692.438 1841.697 692.438 1864.6 661.841 1853.104 661.841 1845.499 658.038 1841.697 654.235 1837.806 642.739 1837.806 635.134 1841.697 623.638 1849.302 615.945 1860.798 612.142 1872.294 612.142 1883.701 615.945 1887.504 619.836 1891.395 627.441 M 869.899 612.142 869.899 692.438 908.19 638.937 850.798 638.937" fill="none" stroke-width="12.351"/><path d="M 3201.576 751.058 3201.576 753.91 3198.724 759.68 3195.872 762.532 3190.102 765.384 3178.628 765.384 3172.924 762.532 3170.073 759.68 3167.154 753.91 3167.154 748.206 3170.073 742.436 3175.776 733.88 3204.494 705.162 3164.302 705.162 M 3200.979 1141.524 3167.817 1141.524 M 3184.431 1067.359 3184.431 1015.693 M 3210.231 1041.493 3158.565 1041.493 M 3177.202 911.414 3177.202 971.636 3205.92 931.51 3162.876 931.51 M 3198.724 871.638 3167.221 871.638 3184.398 848.69 3175.776 848.69 3170.073 845.839 3167.221 842.987 3164.302 834.365 3164.302 828.661 3167.221 820.039 3172.924 814.269 3181.546 811.417 3190.169 811.417 3198.724 814.269 3201.576 817.187 3204.494 822.891 M 3191.594 650.781 3185.823 653.699 3177.201 662.255 3177.201 602.033" fill="none" stroke-width="9.264"/></g><g id="wwV-II4vkmeSYwfdlHQF_bottom_soldermask"><use xlink:href="#bR-DHm82On8-RYL5VWuq_pad-47" x="3448.425" y="635.827"/><use xlink:href="#bR-DHm82On8-RYL5VWuq_pad-47" x="3323.228" y="735.827"/><use xlink:href="#bR-DHm82On8-RYL5VWuq_pad-47" x="3448.425" y="835.827"/><use xlink:href="#bR-DHm82On8-RYL5VWuq_pad-47" x="3323.228" y="935.827"/><use xlink:href="#bR-DHm82On8-RYL5VWuq_pad-47" x="3448.425" y="1035.827"/><use xlink:href="#bR-DHm82On8-RYL5VWuq_pad-47" x="3323.228" y="1135.827"/><use xlink:href="#bR-DHm82On8-RYL5VWuq_pad-47" x="2418.903" y="635.827"/><use xlink:href="#bR-DHm82On8-RYL5VWuq_pad-47" x="2293.706" y="735.827"/><use xlink:href="#bR-DHm82On8-RYL5VWuq_pad-47" x="2418.903" y="835.827"/><use xlink:href="#bR-DHm82On8-RYL5VWuq_pad-47" x="2293.706" y="935.827"/><use xlink:href="#bR-DHm82On8-RYL5VWuq_pad-47" x="2418.903" y="1035.827"/><use xlink:href="#bR-DHm82On8-RYL5VWuq_pad-47" x="2293.706" y="1135.827"/><use xlink:href="#bR-DHm82On8-RYL5VWuq_pad-45" x="918.701" y="1843.701"/><use xlink:href="#bR-DHm82On8-RYL5VWuq_pad-45" x="1028.937" y="1843.701"/><use xlink:href="#bR-DHm82On8-RYL5VWuq_pad-43" x="935.827" y="787.402"/><use xlink:href="#bR-DHm82On8-RYL5VWuq_pad-43" x="735.827" y="787.402"/><use xlink:href="#bR-DHm82On8-RYL5VWuq_pad-43" x="835.827" y="787.402"/><use xlink:href="#bR-DHm82On8-RYL5VWuq_pad-43" x="1035.827" y="787.402"/><use xlink:href="#bR-DHm82On8-RYL5VWuq_pad-43" x="835.827" y="1968.503"/><use xlink:href="#bR-DHm82On8-RYL5VWuq_pad-43" x="1035.827" y="1968.504"/><use xlink:href="#bR-DHm82On8-RYL5VWuq_pad-45" x="847.688" y="915.576"/><use xlink:href="#bR-DHm82On8-RYL5VWuq_pad-45" x="737.451" y="915.576"/><use xlink:href="#bR-DHm82On8-RYL5VWuq_pad-45" x="1918.701" y="1843.701"/><use xlink:href="#bR-DHm82On8-RYL5VWuq_pad-45" x="2028.937" y="1843.701"/><use xlink:href="#bR-DHm82On8-RYL5VWuq_pad-43" x="1920.079" y="787.402"/><use xlink:href="#bR-DHm82On8-RYL5VWuq_pad-43" x="1720.079" y="787.402"/><use xlink:href="#bR-DHm82On8-RYL5VWuq_pad-43" x="1820.079" y="787.402"/><use xlink:href="#bR-DHm82On8-RYL5VWuq_pad-43" x="2020.079" y="787.402"/><use xlink:href="#bR-DHm82On8-RYL5VWuq_pad-43" x="1820.079" y="1968.503"/><use xlink:href="#bR-DHm82On8-RYL5VWuq_pad-43" x="2020.079" y="1968.504"/><use xlink:href="#bR-DHm82On8-RYL5VWuq_pad-45" x="1827.895" y="915.576"/><use xlink:href="#bR-DHm82On8-RYL5VWuq_pad-45" x="1717.659" y="915.576"/><use xlink:href="#bR-DHm82On8-RYL5VWuq_pad-45" x="2893.701" y="1843.701"/><use xlink:href="#bR-DHm82On8-RYL5VWuq_pad-45" x="3003.937" y="1843.701"/><use xlink:href="#bR-DHm82On8-RYL5VWuq_pad-43" x="2904.331" y="787.402"/><use xlink:href="#bR-DHm82On8-RYL5VWuq_pad-43" x="2704.331" y="787.402"/><use xlink:href="#bR-DHm82On8-RYL5VWuq_pad-43" x="2804.331" y="787.402"/><use xlink:href="#bR-DHm82On8-RYL5VWuq_pad-43" x="3004.331" y="787.402"/><use xlink:href="#bR-DHm82On8-RYL5VWuq_pad-43" x="2804.331" y="1968.503"/><use xlink:href="#bR-DHm82On8-RYL5VWuq_pad-43" x="3004.331" y="1968.504"/><use xlink:href="#bR-DHm82On8-RYL5VWuq_pad-45" x="2814.354" y="915.576"/><use xlink:href="#bR-DHm82On8-RYL5VWuq_pad-45" x="2704.118" y="915.576"/><use xlink:href="#bR-DHm82On8-RYL5VWuq_pad-45" x="3868.701" y="1843.701"/><use xlink:href="#bR-DHm82On8-RYL5VWuq_pad-45" x="3978.937" y="1843.701"/><use xlink:href="#bR-DHm82On8-RYL5VWuq_pad-43" x="3888.583" y="787.402"/><use xlink:href="#bR-DHm82On8-RYL5VWuq_pad-43" x="3688.583" y="787.402"/><use xlink:href="#bR-DHm82On8-RYL5VWuq_pad-43" x="3788.583" y="787.402"/><use xlink:href="#bR-DHm82On8-RYL5VWuq_pad-43" x="3988.583" y="787.402"/><use xlink:href="#bR-DHm82On8-RYL5VWuq_pad-43" x="3788.583" y="1968.503"/><use xlink:href="#bR-DHm82On8-RYL5VWuq_pad-43" x="3988.583" y="1968.504"/><use xlink:href="#bR-DHm82On8-RYL5VWuq_pad-45" x="3797.688" y="915.576"/><use xlink:href="#bR-DHm82On8-RYL5VWuq_pad-45" x="3687.451" y="915.576"/><use xlink:href="#bR-DHm82On8-RYL5VWuq_pad-38" x="511.811" y="511.811"/><use xlink:href="#bR-DHm82On8-RYL5VWuq_pad-38" x="511.811" y="2244.094"/><use xlink:href="#bR-DHm82On8-RYL5VWuq_pad-38" x="4212.598" y="511.811"/><use xlink:href="#bR-DHm82On8-RYL5VWuq_pad-38" x="4212.598" y="2244.094"/></g><g id="wwV-II4vkmeSYwfdlHQF_bottom_copper"><path d="M 918.701 1843.701 918.701 1784.381 1398.341 1304.74 1810.181 1304.74 2181.461 933.461 2291.34 933.461 2293.706 935.827 M 2418.903 835.827 2498.786 835.827 2543.381 880.421 2543.381 1151.861 1916.261 1778.98 1916.261 1841.261 1918.701 1843.701 M 2893.701 1843.701 2893.701 1786.101 2577.701 1470.101 2577.701 861.701 2449.781 733.781 2295.752 733.781 2293.706 735.827 M 3868.701 1843.701 3868.701 1265.062 3594.82 991.181 M 2552.74 635.501 2418.577 635.501 2418.903 635.827 M 3323.228 935.827 3152.535 935.827 2964.581 1123.781 2842.9 1123.781 M 733.781 1042.661 733.781 911.906 737.451 915.576 M 735.827 787.402 735.827 913.951 737.451 915.576 M 3448.425 835.827 3177.655 835.827 2948.98 1064.501 2774.261 1064.501 M 1719.701 1048.9 1719.701 917.618 1717.659 915.576 M 1720.079 787.402 1720.079 913.156 1717.659 915.576 M 2704.118 915.576 2704.118 963.159 2753.98 1013.021 2916.22 1013.021 3192.341 736.9 3322.155 736.9 3323.228 735.827 M 2704.331 787.402 2704.331 915.364 2704.118 915.576 M 3687.451 915.576 3645.576 915.576 3594.82 864.82 3594.82 705.699 3519.941 630.82 3453.432 630.82 3448.425 635.827 M 3688.583 787.402 3688.583 914.445 3687.451 915.576" fill="none" stroke-width="12"/><path d="M 3448.425 1035.827 3448.425 1961.375 3441.298 1968.503 3247.059 2162.741 2804.331 2162.741 1820.079 2162.741 1030.066 2162.741 835.827 1968.503 M 1820.079 1968.503 1820.079 2162.741 M 2804.331 1968.503 2804.331 2162.741 M 3788.583 1968.503 3441.298 1968.503" fill="none" stroke-width="22"/><path d="M 1035.827 1968.504 1035.827 1850.591 1028.937 1843.701 M 2020.079 1968.504 2020.079 1852.559 2028.937 1843.701 M 3004.331 1968.504 3004.331 1844.094 3003.937 1843.701 M 3988.583 1968.504 3988.583 1853.346 3978.937 1843.701" fill="none" stroke-width="12"/><use xlink:href="#cZNswwq19LVCXtNCAn2J_pad-36" x="3594.82" y="991.181"/><use xlink:href="#cZNswwq19LVCXtNCAn2J_pad-36" x="2552.74" y="635.501"/><use xlink:href="#cZNswwq19LVCXtNCAn2J_pad-36" x="2842.9" y="1123.781"/><use xlink:href="#cZNswwq19LVCXtNCAn2J_pad-36" x="733.781" y="1042.661"/><use xlink:href="#cZNswwq19LVCXtNCAn2J_pad-36" x="2774.261" y="1064.501"/><use xlink:href="#cZNswwq19LVCXtNCAn2J_pad-36" x="1719.701" y="1048.9"/><path d="M 644.939 2297.277 4079.474 2297.277 M 644.939 2272.408 4079.474 2272.408 M 644.939 2247.539 4079.474 2247.539 M 644.939 2222.671 4079.474 2222.671 M 644.939 2197.802 1014.283 2197.802 M 3262.834 2197.802 4079.474 2197.802 M 644.939 2172.933 984.75 2172.933 M 3292.403 2172.933 4079.474 2172.933 M 644.939 2148.064 959.883 2148.064 M 3317.27 2148.064 4079.474 2148.064 M 644.939 2123.196 935.015 2123.196 M 1046.053 2123.196 1780.087 2123.196 M 1860.085 2123.196 2764.355 2123.196 M 2844.317 2123.196 3231.1 2123.196 M 3342.138 2123.196 4079.474 2123.196 M 644.939 2098.327 910.111 2098.327 M 1021.185 2098.327 1780.087 2098.327 M 1860.085 2098.327 2764.355 2098.327 M 2844.317 2098.327 3255.968 2098.327 M 3367.006 2098.327 4079.474 2098.327 M 644.939 2073.458 885.243 2073.458 M 996.317 2073.458 1780.087 2073.458 M 1860.085 2073.458 2764.355 2073.458 M 2844.317 2073.458 3280.836 2073.458 M 3391.874 2073.458 4079.474 2073.458 M 644.939 2048.589 860.376 2048.589 M 971.449 2048.589 1780.087 2048.589 M 1860.085 2048.589 2764.355 2048.589 M 2844.317 2048.589 3305.704 2048.589 M 3416.741 2048.589 4079.474 2048.589 M 644.939 2023.72 805.294 2023.72 M 946.582 2023.72 1005.276 2023.72 M 1066.363 2023.72 1780.087 2023.72 M 1860.085 2023.72 1989.543 2023.72 M 2050.595 2023.72 2764.355 2023.72 M 2844.317 2023.72 2973.811 2023.72 M 3034.862 2023.72 3330.571 2023.72 M 3441.609 2023.72 3758.06 2023.72 M 3819.111 2023.72 3958.042 2023.72 M 4019.129 2023.72 4079.474 2023.72 M 644.939 1998.852 779.349 1998.852 M 921.714 1998.852 979.332 1998.852 M 1092.307 1998.852 1763.617 1998.852 M 1876.556 1998.852 1963.599 1998.852 M 2076.575 1998.852 2747.848 1998.852 M 2860.824 1998.852 2947.867 1998.852 M 3060.806 1998.852 3355.439 1998.852 M 3845.055 1998.852 3932.098 1998.852 M 4045.074 1998.852 4079.474 1998.852 M 644.939 1973.983 771.634 1973.983 M 900.004 1973.983 971.653 1973.983 M 1100.022 1973.983 1755.902 1973.983 M 1884.271 1973.983 1955.884 1973.983 M 2084.254 1973.983 2740.133 1973.983 M 2868.503 1973.983 2940.151 1973.983 M 3068.521 1973.983 3380.307 1973.983 M 3852.77 1973.983 3924.383 1973.983 M 4052.753 1973.983 4079.474 1973.983 M 644.939 1949.114 774.505 1949.114 M 897.133 1949.114 974.523 1949.114 M 1097.152 1949.114 1758.772 1949.114 M 1881.401 1949.114 1958.755 1949.114 M 2081.383 1949.114 2743.004 1949.114 M 2865.632 1949.114 2943.022 1949.114 M 3065.651 1949.114 3405.175 1949.114 M 3849.899 1949.114 3927.254 1949.114 M 4049.882 1949.114 4079.474 1949.114 M 644.939 1924.245 790.007 1924.245 M 881.631 1924.245 990.025 1924.245 M 1081.65 1924.245 1774.274 1924.245 M 1865.899 1924.245 1974.257 1924.245 M 2065.881 1924.245 2758.506 1924.245 M 2850.13 1924.245 2958.524 1924.245 M 3050.149 1924.245 3408.44 1924.245 M 3488.402 1924.245 3742.773 1924.245 M 3834.397 1924.245 3942.756 1924.245 M 4034.38 1924.245 4079.474 1924.245 M 644.939 1899.377 858.223 1899.377 M 1089.437 1899.377 1858.207 1899.377 M 2089.421 1899.377 2833.217 1899.377 M 3064.43 1899.377 3408.44 1899.377 M 3488.402 1899.377 3808.226 1899.377 M 4039.44 1899.377 4079.474 1899.377 M 644.939 1874.508 858.223 1874.508 M 1089.437 1874.508 1858.207 1874.508 M 2089.421 1874.508 2833.217 1874.508 M 3064.43 1874.508 3408.44 1874.508 M 3488.402 1874.508 3808.226 1874.508 M 4039.44 1874.508 4079.474 1874.508 M 644.939 1849.639 858.223 1849.639 M 1089.437 1849.639 1858.207 1849.639 M 2089.421 1849.639 2833.217 1849.639 M 3064.43 1849.639 3408.44 1849.639 M 3488.402 1849.639 3808.226 1849.639 M 4039.44 1849.639 4079.474 1849.639 M 644.939 1824.77 858.223 1824.77 M 1089.437 1824.77 1858.207 1824.77 M 2089.421 1824.77 2833.217 1824.77 M 3064.43 1824.77 3408.44 1824.77 M 3488.402 1824.77 3808.226 1824.77 M 4039.44 1824.77 4079.474 1824.77 M 644.939 1799.902 858.223 1799.902 M 1089.437 1799.902 1858.207 1799.902 M 2089.421 1799.902 2833.217 1799.902 M 3064.43 1799.902 3408.44 1799.902 M 3488.402 1799.902 3808.226 1799.902 M 4039.44 1799.902 4079.474 1799.902 M 644.939 1775.033 885.1 1775.033 M 976.509 1775.033 1881.496 1775.033 M 1968.671 1775.033 2834.185 1775.033 M 2926.743 1775.033 3408.44 1775.033 M 3488.402 1775.033 3833.704 1775.033 M 3903.69 1775.033 4079.474 1775.033 M 644.939 1750.164 904.477 1750.164 M 1001.377 1750.164 1896.639 1750.164 M 1993.539 1750.164 2809.318 1750.164 M 2906.217 1750.164 3408.44 1750.164 M 3488.402 1750.164 3833.704 1750.164 M 3903.69 1750.164 4079.474 1750.164 M 644.939 1725.295 929.345 1725.295 M 1026.245 1725.295 1921.507 1725.295 M 2018.406 1725.295 2784.45 1725.295 M 2881.349 1725.295 3408.44 1725.295 M 3488.402 1725.295 3833.704 1725.295 M 3903.69 1725.295 4079.474 1725.295 M 644.939 1700.427 954.213 1700.427 M 1051.112 1700.427 1946.375 1700.427 M 2043.274 1700.427 2759.582 1700.427 M 2856.482 1700.427 3408.44 1700.427 M 3488.402 1700.427 3833.704 1700.427 M 3903.69 1700.427 4079.474 1700.427 M 644.939 1675.558 979.081 1675.558 M 1075.98 1675.558 1971.243 1675.558 M 2068.142 1675.558 2734.714 1675.558 M 2831.614 1675.558 3408.44 1675.558 M 3488.402 1675.558 3833.704 1675.558 M 3903.69 1675.558 4079.474 1675.558 M 644.939 1650.689 1003.948 1650.689 M 1100.848 1650.689 1996.11 1650.689 M 2093.01 1650.689 2709.847 1650.689 M 2806.746 1650.689 3408.44 1650.689 M 3488.402 1650.689 3833.704 1650.689 M 3903.69 1650.689 4079.474 1650.689 M 644.939 1625.82 1028.816 1625.82 M 1125.716 1625.82 2020.978 1625.82 M 2117.877 1625.82 2684.979 1625.82 M 2781.878 1625.82 3408.44 1625.82 M 3488.402 1625.82 3833.704 1625.82 M 3903.69 1625.82 4079.474 1625.82 M 644.939 1600.951 1053.684 1600.951 M 1150.583 1600.951 2045.846 1600.951 M 2142.745 1600.951 2660.111 1600.951 M 2757.011 1600.951 3408.44 1600.951 M 3488.402 1600.951 3833.704 1600.951 M 3903.69 1600.951 4079.474 1600.951 M 644.939 1576.083 1078.552 1576.083 M 1175.451 1576.083 2070.713 1576.083 M 2167.613 1576.083 2635.243 1576.083 M 2732.143 1576.083 3408.44 1576.083 M 3488.402 1576.083 3833.704 1576.083 M 3903.69 1576.083 4079.474 1576.083 M 644.939 1551.214 1103.419 1551.214 M 1200.319 1551.214 2095.581 1551.214 M 2192.481 1551.214 2610.376 1551.214 M 2707.275 1551.214 3408.44 1551.214 M 3488.402 1551.214 3833.704 1551.214 M 3903.69 1551.214 4079.474 1551.214 M 644.939 1526.345 1128.287 1526.345 M 1225.186 1526.345 2120.449 1526.345 M 2217.348 1526.345 2585.508 1526.345 M 2682.407 1526.345 3408.44 1526.345 M 3488.402 1526.345 3833.704 1526.345 M 3903.69 1526.345 4079.474 1526.345 M 644.939 1501.476 1153.155 1501.476 M 1250.054 1501.476 2145.317 1501.476 M 2242.216 1501.476 2560.64 1501.476 M 2657.54 1501.476 3408.44 1501.476 M 3488.402 1501.476 3833.704 1501.476 M 3903.69 1501.476 4079.474 1501.476 M 644.939 1476.608 1178.023 1476.608 M 1274.922 1476.608 2170.184 1476.608 M 2267.084 1476.608 2543.38 1476.608 M 2632.672 1476.608 3408.44 1476.608 M 3488.402 1476.608 3833.704 1476.608 M 3903.69 1476.608 4079.474 1476.608 M 644.939 1451.739 1202.89 1451.739 M 1299.79 1451.739 2195.052 1451.739 M 2291.952 1451.739 2542.698 1451.739 M 2612.684 1451.739 3408.44 1451.739 M 3488.402 1451.739 3833.704 1451.739 M 3903.69 1451.739 4079.474 1451.739 M 644.939 1426.87 1227.758 1426.87 M 1324.657 1426.87 2219.92 1426.87 M 2316.819 1426.87 2542.698 1426.87 M 2612.684 1426.87 3408.44 1426.87 M 3488.402 1426.87 3833.704 1426.87 M 3903.69 1426.87 4079.474 1426.87 M 644.939 1402.001 1252.626 1402.001 M 1349.525 1402.001 2244.788 1402.001 M 2341.687 1402.001 2542.698 1402.001 M 2612.684 1402.001 3408.44 1402.001 M 3488.402 1402.001 3833.704 1402.001 M 3903.69 1402.001 4079.474 1402.001 M 644.939 1377.133 1277.494 1377.133 M 1374.393 1377.133 2269.655 1377.133 M 2366.555 1377.133 2542.698 1377.133 M 2612.684 1377.133 3408.44 1377.133 M 3488.402 1377.133 3833.704 1377.133 M 3903.69 1377.133 4079.474 1377.133 M 644.939 1352.264 1302.361 1352.264 M 1399.261 1352.264 2294.523 1352.264 M 2391.423 1352.264 2542.698 1352.264 M 2612.684 1352.264 3408.44 1352.264 M 3488.402 1352.264 3833.704 1352.264 M 3903.69 1352.264 4079.474 1352.264 M 644.939 1327.395 1327.229 1327.395 M 1835.971 1327.395 2319.391 1327.395 M 2416.29 1327.395 2542.698 1327.395 M 2612.684 1327.395 3408.44 1327.395 M 3488.402 1327.395 3833.704 1327.395 M 3903.69 1327.395 4079.474 1327.395 M 644.939 1302.526 1352.097 1302.526 M 1860.839 1302.526 2344.259 1302.526 M 2441.158 1302.526 2542.698 1302.526 M 2612.684 1302.526 3408.44 1302.526 M 3488.402 1302.526 3833.704 1302.526 M 3903.69 1302.526 4079.474 1302.526 M 644.939 1277.657 1377.897 1277.657 M 1885.707 1277.657 2369.126 1277.657 M 2466.026 1277.657 2542.698 1277.657 M 2612.684 1277.657 3408.44 1277.657 M 3488.402 1277.657 3832.842 1277.657 M 3903.69 1277.657 4079.474 1277.657 M 644.939 1252.789 1813.675 1252.789 M 1910.574 1252.789 2393.994 1252.789 M 2490.894 1252.789 2542.698 1252.789 M 2612.684 1252.789 3408.44 1252.789 M 3488.402 1252.789 3807.975 1252.789 M 3901.286 1252.789 4079.474 1252.789 M 644.939 1227.92 1838.543 1227.92 M 1935.442 1227.92 2418.862 1227.92 M 2515.761 1227.92 2542.698 1227.92 M 2612.684 1227.92 3408.44 1227.92 M 3488.402 1227.92 3783.107 1227.92 M 3880.006 1227.92 4079.474 1227.92 M 644.939 1203.051 1863.411 1203.051 M 1960.31 1203.051 2443.73 1203.051 M 2612.684 1203.051 3408.44 1203.051 M 3488.402 1203.051 3758.239 1203.051 M 3855.139 1203.051 4079.474 1203.051 M 644.939 1178.182 1888.278 1178.182 M 1985.178 1178.182 2202.121 1178.182 M 2385.286 1178.182 2468.597 1178.182 M 2612.684 1178.182 3231.639 1178.182 M 3488.402 1178.182 3733.371 1178.182 M 3830.271 1178.182 4079.474 1178.182 M 644.939 1153.314 1913.146 1153.314 M 2010.045 1153.314 2202.121 1153.314 M 2385.286 1153.314 2493.465 1153.314 M 2612.684 1153.314 2804.509 1153.314 M 2980.641 1153.314 3231.639 1153.314 M 3488.402 1153.314 3708.504 1153.314 M 3805.403 1153.314 4079.474 1153.314 M 644.939 1128.445 1938.014 1128.445 M 2034.913 1128.445 2202.121 1128.445 M 2385.286 1128.445 2508.393 1128.445 M 2612.684 1128.445 2794.139 1128.445 M 3008.379 1128.445 3231.639 1128.445 M 3488.402 1128.445 3683.636 1128.445 M 3780.535 1128.445 4079.474 1128.445 M 644.939 1103.576 1962.882 1103.576 M 2059.781 1103.576 2202.121 1103.576 M 2385.286 1103.576 2508.393 1103.576 M 2612.684 1103.576 2746.556 1103.576 M 3033.247 1103.576 3231.639 1103.576 M 3488.402 1103.576 3658.768 1103.576 M 3755.668 1103.576 4079.474 1103.576 M 644.939 1078.707 701.911 1078.707 M 765.654 1078.707 1681.514 1078.707 M 1757.887 1078.707 1987.749 1078.707 M 2084.649 1078.707 2327.321 1078.707 M 2612.684 1078.707 2727.502 1078.707 M 3058.115 1078.707 3356.839 1078.707 M 3540.004 1078.707 3633.9 1078.707 M 3730.8 1078.707 4079.474 1078.707 M 644.939 1053.839 686.158 1053.839 M 781.407 1053.839 1670.964 1053.839 M 1768.437 1053.839 2012.617 1053.839 M 2109.516 1053.839 2327.321 1053.839 M 2612.684 1053.839 2726.497 1053.839 M 3082.983 1053.839 3356.839 1053.839 M 3540.004 1053.839 3609.033 1053.839 M 3705.932 1053.839 4079.474 1053.839 M 644.939 1028.97 686.84 1028.97 M 780.725 1028.97 1675.198 1028.97 M 1764.203 1028.97 2037.485 1028.97 M 2134.42 1028.97 2327.321 1028.97 M 2612.684 1028.97 2721.473 1028.97 M 3107.85 1028.97 3356.839 1028.97 M 3540.004 1028.97 3565.254 1028.97 M 3681.064 1028.97 4079.474 1028.97 M 644.939 1004.101 698.789 1004.101 M 768.776 1004.101 1684.707 1004.101 M 1754.694 1004.101 2062.352 1004.101 M 2159.288 1004.101 2327.321 1004.101 M 2612.684 1004.101 2696.605 1004.101 M 3132.718 1004.101 3356.839 1004.101 M 3656.197 1004.101 4079.474 1004.101 M 644.939 979.232 698.789 979.232 M 768.776 979.232 1684.707 979.232 M 1754.694 979.232 2087.22 979.232 M 2184.155 979.232 2202.121 979.232 M 2385.286 979.232 2508.393 979.232 M 2612.684 979.232 2673.388 979.232 M 2768.637 979.232 2901.576 979.232 M 3157.586 979.232 3231.639 979.232 M 3414.804 979.232 3547.384 979.232 M 3642.238 979.232 4079.474 979.232 M 644.939 954.364 676.972 954.364 M 908.186 954.364 1657.184 954.364 M 1888.398 954.364 2112.124 954.364 M 2385.286 954.364 2508.393 954.364 M 2612.684 954.364 2643.64 954.364 M 2874.854 954.364 2926.444 954.364 M 3414.804 954.364 3563.926 954.364 M 3858.189 954.364 4079.474 954.364 M 644.939 929.495 676.972 929.495 M 908.186 929.495 1657.184 929.495 M 1888.398 929.495 2136.992 929.495 M 2385.286 929.495 2508.393 929.495 M 2612.684 929.495 2643.64 929.495 M 2874.854 929.495 2951.311 929.495 M 3414.804 929.495 3611.042 929.495 M 3858.189 929.495 4079.474 929.495 M 644.939 904.626 676.972 904.626 M 908.186 904.626 1657.184 904.626 M 1888.398 904.626 2163.976 904.626 M 2385.286 904.626 2508.393 904.626 M 2612.684 904.626 2643.64 904.626 M 2874.854 904.626 2976.179 904.626 M 3414.804 904.626 3586.174 904.626 M 3858.189 904.626 4079.474 904.626 M 644.939 879.757 676.972 879.757 M 908.186 879.757 1657.184 879.757 M 1888.398 879.757 2327.321 879.757 M 2612.684 879.757 2643.64 879.757 M 2874.854 879.757 3001.047 879.757 M 3540.004 879.757 3563.46 879.757 M 3858.189 879.757 4079.474 879.757 M 644.939 854.888 676.972 854.888 M 908.186 854.888 1657.184 854.888 M 1888.398 854.888 2327.321 854.888 M 2611.967 854.888 2643.64 854.888 M 2874.854 854.888 3025.915 854.888 M 3540.004 854.888 3559.835 854.888 M 3858.189 854.888 4079.474 854.888 M 644.939 830.02 688.383 830.02 M 1083.265 830.02 1672.65 830.02 M 2067.496 830.02 2327.321 830.02 M 2594.455 830.02 2656.918 830.02 M 3540.004 830.02 3559.835 830.02 M 4035.995 830.02 4079.474 830.02 M 644.939 805.151 673.993 805.151 M 1097.654 805.151 1658.261 805.151 M 2081.921 805.151 2327.321 805.151 M 2569.588 805.151 2642.492 805.151 M 3540.004 805.151 3559.835 805.151 M 4050.42 805.151 4079.474 805.151 M 644.939 780.282 671.804 780.282 M 1099.843 780.282 1656.072 780.282 M 2084.11 780.282 2202.121 780.282 M 2544.72 780.282 2640.303 780.282 M 3068.342 780.282 3100.518 780.282 M 3414.804 780.282 3559.835 780.282 M 4052.609 780.282 4079.474 780.282 M 644.939 755.413 680.309 755.413 M 1091.338 755.413 1664.54 755.413 M 2075.606 755.413 2202.121 755.413 M 2519.852 755.413 2648.808 755.413 M 3059.837 755.413 3125.386 755.413 M 3414.804 755.413 3559.835 755.413 M 4044.105 755.413 4079.474 755.413 M 644.939 730.545 708.801 730.545 M 762.855 730.545 808.774 730.545 M 862.864 730.545 908.784 730.545 M 962.873 730.545 1008.793 730.545 M 1062.846 730.545 1693.032 730.545 M 1747.122 730.545 1793.042 730.545 M 1847.131 730.545 1893.051 730.545 M 1947.105 730.545 1993.06 730.545 M 2047.114 730.545 2202.121 730.545 M 2494.984 730.545 2677.3 730.545 M 2731.353 730.545 2777.309 730.545 M 2831.363 730.545 2877.282 730.545 M 2931.372 730.545 2977.292 730.545 M 3031.381 730.545 3150.253 730.545 M 3414.804 730.545 3559.835 730.545 M 3629.822 730.545 3661.531 730.545 M 3715.621 730.545 3761.54 730.545 M 3815.63 730.545 3861.55 730.545 M 3915.603 730.545 3961.559 730.545 M 4015.613 730.545 4079.474 730.545 M 644.939 705.676 2202.121 705.676 M 2468.574 705.676 3180.863 705.676 M 3414.804 705.676 3546.343 705.676 M 3629.822 705.676 4079.474 705.676 M 644.939 680.807 2327.321 680.807 M 2510.486 680.807 2539.792 680.807 M 2565.676 680.807 3356.839 680.807 M 3618.375 680.807 4079.474 680.807 M 644.939 655.938 2327.321 655.938 M 2597.003 655.938 3356.839 655.938 M 3593.507 655.938 4079.474 655.938 M 644.939 631.07 2327.321 631.07 M 2601.524 631.07 3356.839 631.07 M 3568.639 631.07 4079.474 631.07 M 644.939 606.201 2327.321 606.201 M 2591.333 606.201 3356.839 606.201 M 3543.628 606.201 4079.474 606.201 M 644.939 581.332 4079.474 581.332 M 644.939 556.463 4079.474 556.463 M 644.939 531.594 4079.474 531.594 M 644.939 506.726 4079.474 506.726 M 644.939 481.857 4079.474 481.857 M 644.939 456.988 4079.474 456.988 M 3412.336 687.319 3530.466 687.319 3562.303 719.134 3562.428 867.37 3563.226 872.405 3564.801 877.254 3567.116 881.797 3570.113 885.922 3617.315 933.266 3624.474 940.283 3628.608 943.285 3629.463 945.514 3629.463 960.191 3625.014 955.828 3619.112 951.54 3612.612 948.228 3605.674 945.974 3598.468 944.832 3591.172 944.832 3583.967 945.974 3577.028 948.228 3570.528 951.54 3564.626 955.828 3559.467 960.987 3555.179 966.889 3551.867 973.389 3549.613 980.328 3548.471 987.533 3548.471 994.829 3549.613 1002.034 3551.867 1008.973 3555.179 1015.473 3559.467 1021.375 3564.626 1026.534 3570.528 1030.822 3577.028 1034.134 3583.967 1036.389 3591.172 1037.53 3595.347 1037.653 3836.216 1278.528 3836.209 1781.758 3810.713 1781.776 3810.713 1905.626 3956.08 1905.626 3956.09 1915.821 3948.365 1921.416 3941.494 1928.287 3935.783 1936.148 3931.371 1944.806 3928.368 1954.048 3926.848 1963.645 3926.848 1973.363 3928.368 1982.96 3931.371 1992.202 3935.783 2000.86 3941.494 2008.721 3948.365 2015.592 3956.227 2021.304 3964.885 2025.715 3974.127 2028.718 3983.724 2030.238 3993.441 2030.238 4003.039 2028.718 4012.28 2025.715 4020.939 2021.304 4028.8 2015.592 4035.671 2008.721 4041.383 2000.86 4045.794 1992.202 4048.797 1982.96 4050.317 1973.363 4050.317 1963.645 4048.797 1954.048 4045.794 1944.806 4041.383 1936.148 4035.671 1928.287 4028.8 1921.416 4021.081 1915.799 4021.075 1905.599 4036.925 1905.626 4036.925 1781.776 3901.175 1781.776 3901.093 1262.512 3900.295 1257.477 3898.72 1252.627 3896.405 1248.085 3893.408 1243.96 3846.206 1196.616 3641.311 991.721 3640.74 983.908 3639.234 977.514 3855.676 977.501 3855.676 853.651 3721.074 853.651 3721.075 840.129 3728.8 834.49 3735.671 827.619 3738.575 823.935 3743.065 829.388 3748.357 834.482 3754.214 838.914 3760.554 842.621 3767.289 845.551 3774.324 847.663 3781.559 848.927 3788.893 849.326 3796.223 848.854 3803.445 847.517 3810.458 845.334 3817.163 842.337 3823.466 838.567 3829.279 834.077 3834.519 828.93 3838.575 823.935 3844.795 831.189 3852.184 837.5 3860.469 842.577 3869.447 846.296 3878.895 848.564 3888.583 849.327 3898.27 848.564 3907.719 846.296 3916.696 842.577 3924.981 837.5 3932.37 831.189 3938.575 823.935 3943.065 829.388 3948.357 834.482 3954.214 838.914 3960.554 842.621 3967.289 845.551 3974.324 847.663 3981.559 848.927 3988.893 849.326 3996.223 848.854 4003.445 847.517 4010.458 845.334 4017.163 842.337 4023.466 838.567 4029.279 834.077 4034.519 828.93 4039.113 823.199 4042.995 816.965 4046.113 810.314 4048.421 803.342 4049.888 796.145 4050.492 788.825 4050.263 781.897 4049.177 774.633 4047.239 767.548 4044.476 760.743 4040.927 754.313 4036.641 748.348 4031.679 742.933 4026.111 738.143 4020.015 734.047 4013.476 730.7 4006.588 728.152 3999.446 726.437 3992.152 725.579 3984.807 725.592 3977.515 726.473 3970.379 728.212 3963.5 730.784 3956.973 734.152 3950.89 738.269 3945.338 743.077 3940.394 748.509 3938.585 750.875 3932.37 743.614 3924.981 737.303 3916.696 732.226 3907.719 728.507 3898.27 726.239 3888.583 725.476 3878.895 726.239 3869.447 728.507 3860.469 732.226 3852.184 737.303 3844.795 743.614 3838.59 750.869 3834.24 745.567 3828.966 740.456 3823.124 736.005 3816.795 732.276 3810.07 729.324 3803.043 727.188 3795.812 725.9 3788.479 725.476 3781.148 725.924 3773.922 727.237 3766.901 729.396 3760.186 732.371 3753.87 736.12 3748.043 740.591 3742.786 745.72 3738.585 750.875 3732.37 743.614 3724.981 737.303 3716.696 732.226 3707.719 728.507 3698.27 726.239 3688.583 725.476 3678.895 726.239 3669.447 728.507 3660.469 732.226 3652.184 737.303 3644.795 743.614 3638.484 751.003 3633.407 759.288 3629.688 768.266 3627.42 777.714 3627.312 763.77 3627.212 703.15 3626.415 698.114 3624.839 693.265 3622.524 688.722 3619.527 684.597 3572.326 637.254 3541.043 606.113 3539.031 604.528 3537.516 595.455 3537.516 584.335 3359.335 584.335 3359.335 684.344 3234.138 684.335 3234.138 704.394 3189.792 704.508 3184.756 705.306 3179.907 706.881 3175.364 709.196 3171.239 712.193 3123.896 759.395 2902.762 980.529 2767.409 980.529 2767.39 977.501 2872.343 977.501 2872.343 853.651 2736.808 853.651 2736.823 840.114 2744.548 834.49 2751.419 827.619 2754.323 823.935 2758.813 829.388 2764.105 834.482 2769.962 838.914 2776.302 842.621 2783.037 845.551 2790.072 847.663 2797.307 848.927 2804.641 849.326 2811.971 848.854 2819.193 847.517 2826.206 845.334 2832.911 842.337 2839.214 838.567 2845.027 834.077 2850.267 828.93 2854.323 823.935 2860.543 831.189 2867.932 837.5 2876.217 842.577 2885.195 846.296 2894.643 848.564 2904.331 849.327 2914.018 848.564 2923.467 846.296 2932.444 842.577 2940.729 837.5 2948.118 831.189 2954.323 823.935 2958.813 829.388 2964.105 834.482 2969.962 838.914 2976.302 842.621 2983.037 845.551 2990.072 847.663 2997.307 848.927 3004.641 849.326 3011.971 848.854 3019.193 847.517 3026.206 845.334 3032.911 842.337 3039.214 838.567 3045.027 834.077 3050.267 828.93 3054.861 823.199 3058.744 816.965 3061.861 810.314 3064.169 803.342 3065.636 796.145 3066.24 788.825 3066.011 781.897 3064.925 774.633 3062.987 767.548 3060.224 760.743 3056.675 754.313 3052.389 748.348 3047.427 742.933 3041.859 738.143 3035.763 734.047 3029.225 730.7 3022.336 728.152 3015.194 726.437 3007.9 725.579 3000.555 725.592 2993.263 726.473 2986.127 728.212 2979.248 730.784 2972.721 734.152 2966.638 738.269 2961.086 743.077 2956.142 748.509 2954.333 750.875 2948.118 743.614 2940.729 737.303 2932.444 732.226 2923.467 728.507 2914.018 726.239 2904.331 725.476 2894.643 726.239 2885.195 728.507 2876.217 732.226 2867.932 737.303 2860.543 743.614 2854.338 750.869 2849.988 745.567 2844.714 740.456 2838.872 736.005 2832.543 732.276 2825.818 729.324 2818.791 727.188 2811.56 725.9 2804.227 725.476 2796.896 725.924 2789.67 727.237 2782.649 729.396 2775.934 732.371 2769.618 736.12 2763.791 740.591 2758.534 745.72 2754.333 750.875 2748.118 743.614 2740.729 737.303 2732.444 732.226 2723.467 728.507 2714.018 726.239 2704.331 725.476 2694.643 726.239 2685.195 728.507 2676.217 732.226 2667.932 737.303 2660.543 743.614 2654.232 751.003 2649.155 759.288 2645.436 768.266 2643.168 777.714 2642.406 787.402 2643.168 797.089 2645.436 806.538 2649.155 815.515 2654.232 823.8 2660.543 831.189 2667.932 837.5 2671.833 840.107 2671.839 853.68 2646.13 853.651 2646.13 977.501 2674.945 977.501 2677.831 982.257 2681.143 986.134 2732.878 1037.728 2734.89 1039.313 2732.836 1043.394 2730.045 1050.134 2728.341 1057.228 2727.769 1064.501 2728.341 1071.774 2730.045 1078.868 2732.836 1085.608 2736.648 1091.829 2741.386 1097.376 2746.934 1102.114 2753.154 1105.926 2759.894 1108.718 2766.988 1110.421 2774.261 1110.993 2781.534 1110.421 2788.628 1108.718 2795.368 1105.926 2801.891 1101.876 2798.684 1109.414 2796.981 1116.508 2796.408 1123.781 2796.981 1131.054 2798.684 1138.148 2801.475 1144.888 2805.287 1151.108 2810.025 1156.656 2815.573 1161.394 2821.793 1165.206 2828.533 1167.997 2835.627 1169.701 2842.9 1170.273 2850.173 1169.701 2857.267 1167.997 2864.007 1165.206 2870.228 1161.394 2876.133 1156.268 2967.131 1156.173 2972.167 1155.375 2977.016 1153.8 2981.558 1151.485 2985.683 1148.488 3033.027 1101.286 3166.012 968.301 3234.172 968.319 3234.138 987.319 3359.338 987.319 3359.335 1084.344 3234.138 1084.335 3234.138 1187.319 3410.931 1187.319 3410.933 1945.814 3231.511 2125.268 2841.819 2125.249 2841.823 2017.805 2848.118 2012.29 2854.429 2004.901 2859.506 1996.616 2863.225 1987.639 2865.494 1978.19 2866.256 1968.503 2865.494 1958.815 2863.225 1949.367 2859.506 1940.389 2854.429 1932.104 2848.118 1924.715 2840.729 1918.404 2832.444 1913.327 2823.467 1909.608 2814.018 1907.34 2804.331 1906.577 2794.643 1907.34 2785.195 1909.608 2776.217 1913.327 2767.932 1918.404 2760.543 1924.715 2754.232 1932.104 2749.155 1940.389 2745.436 1949.367 2743.168 1958.815 2742.406 1968.503 2743.168 1978.19 2745.436 1987.639 2749.155 1996.616 2754.232 2004.901 2760.543 2012.29 2766.843 2017.743 2766.839 2125.281 1857.598 2125.249 1857.571 2017.805 1863.866 2012.29 1870.177 2004.901 1875.254 1996.616 1878.973 1987.639 1881.242 1978.19 1882.004 1968.503 1881.242 1958.815 1878.973 1949.367 1875.254 1940.389 1870.177 1932.104 1863.866 1924.715 1856.477 1918.404 1848.192 1913.327 1839.215 1909.608 1829.766 1907.34 1820.079 1906.577 1810.392 1907.34 1800.943 1909.608 1791.965 1913.327 1783.68 1918.404 1776.291 1924.715 1769.98 1932.104 1764.903 1940.389 1761.184 1949.367 1758.916 1958.815 1758.154 1968.503 1758.916 1978.19 1761.184 1987.639 1764.903 1996.616 1769.98 2004.901 1776.291 2012.29 1782.591 2017.743 1782.587 2125.281 1045.59 2125.249 897.203 1976.857 897.752 1968.503 896.99 1958.815 894.721 1949.367 891.003 1940.389 885.925 1932.104 879.614 1924.715 872.225 1918.404 863.94 1913.327 854.963 1909.608 845.514 1907.34 835.827 1906.577 826.14 1907.34 816.691 1909.608 807.713 1913.327 799.428 1918.404 792.039 1924.715 785.728 1932.104 780.651 1940.389 776.932 1949.367 774.664 1958.815 773.902 1968.503 774.664 1978.19 776.932 1987.639 780.651 1996.616 785.728 2004.901 792.039 2012.29 799.428 2018.601 807.713 2023.678 816.691 2027.397 826.14 2029.665 835.827 2030.428 844.137 2029.828 1005.716 2191.251 1010.476 2194.709 1015.718 2197.38 1021.313 2199.198 1027.124 2200.118 1075.997 2200.234 3250.001 2200.118 3255.811 2199.198 3261.407 2197.38 3266.649 2194.709 3271.408 2191.251 3306.049 2156.774 3456.846 2005.976 3739.316 2005.995 3744.795 2012.29 3752.184 2018.601 3760.469 2023.678 3769.447 2027.397 3778.895 2029.665 3788.583 2030.428 3798.27 2029.665 3807.719 2027.397 3816.696 2023.678 3824.981 2018.601 3832.37 2012.29 3838.681 2004.901 3843.758 1996.616 3847.477 1987.639 3849.745 1978.19 3850.508 1968.503 3849.745 1958.815 3847.477 1949.367 3843.758 1940.389 3838.681 1932.104 3832.37 1924.715 3824.981 1918.404 3816.696 1913.327 3807.719 1909.608 3798.27 1907.34 3788.583 1906.577 3778.895 1907.34 3769.447 1909.608 3760.469 1913.327 3752.184 1918.404 3744.795 1924.715 3739.343 1931.015 3485.9 1931.01 3485.917 1087.344 3537.516 1087.319 3537.516 984.335 3412.316 984.335 3412.319 887.31 3537.516 887.319 3537.516 784.335 3412.316 784.335 3412.319 687.31 M 2382.813 687.319 2507.994 687.319 2507.994 667.977 2519.52 667.993 2525.413 673.114 2531.633 676.926 2538.373 679.718 2545.467 681.421 2552.74 681.993 2560.013 681.421 2567.107 679.718 2573.847 676.926 2580.068 673.114 2585.615 668.376 2590.353 662.829 2594.165 656.608 2596.957 649.868 2598.66 642.774 2599.232 635.501 2598.66 628.228 2596.957 621.134 2594.165 614.394 2590.353 608.174 2585.615 602.626 2580.068 597.888 2573.847 594.077 2567.107 591.285 2560.013 589.582 2552.74 589.009 2545.467 589.582 2538.373 591.285 2531.633 594.077 2525.413 597.888 2519.507 603.014 2507.993 603.009 2507.994 584.335 2329.812 584.335 2329.812 684.344 2204.616 684.335 2204.616 787.319 2329.816 787.319 2329.812 884.344 2204.616 884.334 2204.616 900.949 2178.911 901.069 2173.875 901.866 2169.026 903.442 2164.483 905.756 2160.359 908.753 2113.015 955.955 1796.729 1272.242 1395.792 1272.348 1390.756 1273.146 1385.907 1274.721 1381.364 1277.036 1377.239 1280.033 1329.896 1327.235 893.994 1763.279 890.997 1767.403 888.682 1771.946 887.106 1776.795 886.607 1779.308 884.826 1781.775 860.713 1781.775 860.713 1905.626 1003.335 1905.709 1003.335 1915.792 995.61 1921.416 988.738 1928.287 983.027 1936.148 978.615 1944.806 975.613 1954.048 974.092 1963.645 974.092 1973.363 975.613 1982.96 978.615 1992.202 983.027 2000.86 988.738 2008.721 995.61 2015.592 1003.471 2021.304 1012.129 2025.715 1021.371 2028.718 1030.968 2030.238 1040.685 2030.238 1050.283 2028.718 1059.525 2025.715 1068.183 2021.304 1076.044 2015.592 1082.915 2008.721 1088.627 2000.86 1093.038 1992.202 1096.041 1982.96 1097.561 1973.363 1097.561 1963.645 1096.041 1954.048 1093.038 1944.806 1088.627 1936.148 1082.915 1928.287 1076.044 1921.416 1068.325 1915.799 1068.319 1905.599 1086.925 1905.626 1086.925 1781.775 967.252 1781.775 1411.779 1337.253 1812.73 1337.132 1817.766 1336.335 1822.615 1334.759 1827.158 1332.444 1831.283 1329.447 1878.627 1282.246 2194.913 965.959 2204.606 965.953 2204.616 987.319 2329.816 987.319 2329.813 1084.344 2204.616 1084.334 2204.616 1187.319 2382.797 1187.319 2382.797 1087.324 2507.994 1087.319 2507.994 984.334 2382.794 984.334 2382.797 887.31 2504.317 887.319 2510.903 893.894 2510.888 1138.393 1891.554 1757.878 1888.557 1762.003 1886.242 1766.546 1884.667 1771.395 1883.869 1776.431 1883.769 1781.743 1860.713 1781.775 1860.713 1905.626 1987.563 1905.626 1987.587 1915.823 1979.862 1921.416 1972.99 1928.287 1967.279 1936.148 1962.867 1944.806 1959.865 1954.048 1958.344 1963.645 1958.344 1973.363 1959.865 1982.96 1962.867 1992.202 1967.279 2000.86 1972.99 2008.721 1979.862 2015.592 1987.723 2021.304 1996.381 2025.715 2005.623 2028.718 2015.22 2030.238 2024.937 2030.238 2034.535 2028.718 2043.776 2025.715 2052.435 2021.304 2060.296 2015.592 2067.167 2008.721 2072.879 2000.86 2077.29 1992.202 2080.293 1982.96 2081.813 1973.363 2081.813 1963.645 2080.293 1954.048 2077.29 1944.806 2072.879 1936.148 2067.167 1928.287 2060.296 1921.416 2052.577 1915.799 2052.571 1905.599 2086.925 1905.626 2086.925 1781.775 1959.429 1781.775 2545.192 1196 2545.309 1472.65 2546.106 1477.686 2547.682 1482.535 2549.997 1487.078 2552.994 1491.203 2600.196 1538.547 2843.405 1781.756 2835.713 1781.776 2835.713 1905.626 2971.821 1905.626 2971.838 1915.755 2964.114 1921.416 2957.242 1928.287 2951.531 1936.148 2947.119 1944.806 2944.117 1954.048 2942.596 1963.645 2942.596 1973.363 2944.117 1982.96 2947.119 1992.202 2951.531 2000.86 2957.242 2008.721 2964.114 2015.592 2971.975 2021.304 2980.633 2025.715 2989.875 2028.718 2999.472 2030.238 3009.189 2030.238 3018.787 2028.718 3028.028 2025.715 3036.687 2021.304 3044.548 2015.592 3051.419 2008.721 3057.131 2000.86 3061.542 1992.202 3064.545 1982.96 3066.065 1973.363 3066.065 1963.645 3064.545 1954.048 3061.542 1944.806 3057.131 1936.148 3051.419 1928.287 3044.548 1921.416 3036.829 1915.799 3036.823 1905.599 3061.925 1905.626 3061.925 1781.776 2925.888 1781.776 2924.603 1776.06 2922.652 1771.35 2919.988 1767.003 2916.669 1763.119 2610.184 1456.634 2610.093 859.152 2609.295 854.116 2607.72 849.267 2605.405 844.724 2602.408 840.599 2555.206 793.255 2470.883 709.074 2466.758 706.077 2462.215 703.762 2457.366 702.186 2452.33 701.389 2382.785 701.289 2382.797 687.31 M 985.819 750.869 979.614 743.614 972.225 737.303 963.94 732.226 954.963 728.507 945.514 726.239 935.827 725.476 926.14 726.239 916.691 728.507 907.713 732.226 899.428 737.303 892.039 743.614 885.834 750.869 881.484 745.567 876.21 740.456 870.368 736.005 864.039 732.276 857.314 729.324 850.287 727.188 843.056 725.9 835.723 725.476 828.392 725.924 821.166 727.237 814.145 729.396 807.43 732.371 801.114 736.12 795.287 740.591 790.03 745.72 785.829 750.875 779.614 743.614 772.225 737.303 763.94 732.226 754.963 728.507 745.514 726.239 735.827 725.476 726.14 726.239 716.691 728.507 707.713 732.226 699.428 737.303 692.039 743.614 685.728 751.003 680.651 759.288 676.932 768.266 674.664 777.714 673.902 787.402 674.664 797.089 676.932 806.538 680.651 815.515 685.728 823.8 692.039 831.189 699.428 837.5 703.329 840.107 703.335 853.68 679.464 853.651 679.464 977.501 701.317 977.501 701.289 1009.403 696.168 1015.334 692.356 1021.554 689.564 1028.295 687.861 1035.388 687.289 1042.661 687.861 1049.934 689.564 1057.028 692.356 1063.768 696.168 1069.989 700.906 1075.536 706.453 1080.274 712.674 1084.086 719.414 1086.878 726.508 1088.581 733.781 1089.154 741.054 1088.581 748.148 1086.878 754.888 1084.086 761.108 1080.274 766.656 1075.536 771.394 1069.989 775.206 1063.768 777.997 1057.028 779.701 1049.934 780.273 1042.661 779.701 1035.388 777.997 1028.295 775.206 1021.554 771.394 1015.334 766.268 1009.428 766.273 977.532 905.676 977.501 905.676 853.651 768.347 853.651 768.319 840.138 776.044 834.49 782.915 827.619 785.819 823.935 790.309 829.388 795.601 834.482 801.458 838.914 807.799 842.621 814.534 845.551 821.568 847.663 828.803 848.927 836.137 849.326 843.467 848.854 850.689 847.517 857.702 845.334 864.407 842.337 870.71 838.567 876.523 834.077 881.763 828.93 885.819 823.935 892.039 831.189 899.428 837.5 907.713 842.577 916.691 846.296 926.14 848.564 935.827 849.327 945.514 848.564 954.963 846.296 963.94 842.577 972.225 837.5 979.614 831.189 985.819 823.935 990.309 829.388 995.601 834.482 1001.458 838.914 1007.799 842.621 1014.534 845.551 1021.568 847.663 1028.803 848.927 1036.137 849.326 1043.467 848.854 1050.689 847.517 1057.702 845.334 1064.407 842.337 1070.71 838.567 1076.523 834.077 1081.763 828.93 1086.357 823.199 1090.24 816.965 1093.357 810.314 1095.665 803.342 1097.132 796.145 1097.736 788.825 1097.507 781.897 1096.421 774.633 1094.483 767.548 1091.72 760.743 1088.171 754.313 1083.885 748.348 1078.923 742.933 1073.355 738.143 1067.259 734.047 1060.721 730.7 1053.832 728.152 1046.69 726.437 1039.396 725.579 1032.051 725.592 1024.759 726.473 1017.624 728.212 1010.744 730.784 1004.217 734.152 998.134 738.269 992.582 743.077 987.638 748.509 985.829 750.875 M 1970.071 750.869 1963.866 743.614 1956.477 737.303 1948.192 732.226 1939.215 728.507 1929.766 726.239 1920.079 725.476 1910.392 726.239 1900.943 728.507 1891.965 732.226 1883.68 737.303 1876.291 743.614 1870.086 750.869 1865.736 745.567 1860.462 740.456 1854.62 736.005 1848.291 732.276 1841.566 729.324 1834.539 727.188 1827.308 725.9 1819.975 725.476 1812.644 725.924 1805.418 727.237 1798.397 729.396 1791.682 732.371 1785.366 736.12 1779.539 740.591 1774.282 745.72 1770.081 750.875 1763.866 743.614 1756.477 737.303 1748.192 732.226 1739.215 728.507 1729.766 726.239 1720.079 725.476 1710.392 726.239 1700.943 728.507 1691.965 732.226 1683.68 737.303 1676.291 743.614 1669.98 751.003 1664.903 759.288 1661.184 768.266 1658.916 777.714 1658.154 787.402 1658.916 797.089 1661.184 806.538 1664.903 815.515 1669.98 823.8 1676.291 831.189 1683.68 837.5 1687.581 840.107 1687.587 853.68 1659.671 853.651 1659.671 977.501 1687.194 977.501 1687.209 1015.618 1682.088 1021.573 1678.276 1027.793 1675.484 1034.533 1673.781 1041.627 1673.209 1048.9 1673.781 1056.173 1675.484 1063.267 1678.276 1070.007 1682.088 1076.228 1686.826 1081.775 1692.373 1086.513 1698.594 1090.325 1705.334 1093.117 1712.428 1094.82 1719.701 1095.392 1726.974 1094.82 1734.068 1093.117 1740.808 1090.325 1747.028 1086.513 1752.576 1081.775 1757.314 1076.228 1761.126 1070.007 1763.917 1063.267 1765.621 1056.173 1766.193 1048.9 1765.621 1041.627 1763.917 1034.533 1761.126 1027.793 1757.314 1021.573 1752.188 1015.667 1752.193 977.527 1885.884 977.501 1885.884 853.651 1752.574 853.651 1752.571 840.132 1760.296 834.49 1767.167 827.619 1770.071 823.935 1774.561 829.388 1779.853 834.482 1785.71 838.914 1792.051 842.621 1798.786 845.551 1805.82 847.663 1813.055 848.927 1820.389 849.326 1827.719 848.854 1834.941 847.517 1841.954 845.334 1848.659 842.337 1854.962 838.567 1860.775 834.077 1866.015 828.93 1870.071 823.935 1876.291 831.189 1883.68 837.5 1891.965 842.577 1900.943 846.296 1910.392 848.564 1920.079 849.327 1929.766 848.564 1939.215 846.296 1948.192 842.577 1956.477 837.5 1963.866 831.189 1970.071 823.935 1974.561 829.388 1979.853 834.482 1985.71 838.914 1992.051 842.621 1998.786 845.551 2005.82 847.663 2013.055 848.927 2020.389 849.326 2027.719 848.854 2034.941 847.517 2041.954 845.334 2048.659 842.337 2054.962 838.567 2060.775 834.077 2066.015 828.93 2070.609 823.199 2074.492 816.965 2077.609 810.314 2079.917 803.342 2081.384 796.145 2081.988 788.825 2081.759 781.897 2080.673 774.633 2078.735 767.548 2075.972 760.743 2072.423 754.313 2068.137 748.348 2063.175 742.933 2057.607 738.143 2051.511 734.047 2044.973 730.7 2038.084 728.152 2030.942 726.437 2023.648 725.579 2016.303 725.592 2009.011 726.473 2001.875 728.212 1994.996 730.784 1988.469 734.152 1982.386 738.269 1976.834 743.077 1971.89 748.509 1970.081 750.875 M 3627.31 796.165 3628.368 801.858 3631.371 811.099 3635.783 819.757 3641.494 827.619 3648.365 834.49 3656.085 840.107 3656.09 853.68 3629.577 853.626 3627.319 851.368 3627.312 796.389 M 642.445 433.76 4082.016 433.76 4081.988 2322.153 642.394 2322.146 642.421 433.753" fill="none" stroke-width="25"/><path d="M 3323.228 1187.283 3323.228 1084.37 M 3234.174 1135.827 3323.228 1135.827 M 2293.706 1187.283 2293.706 1084.37 M 2204.652 1135.827 2382.761 1135.827 M 835.827 849.291 835.827 725.512 M 1035.827 849.291 1035.827 725.512 M 1035.827 787.402 1097.716 787.402 M 847.688 977.465 847.688 853.687 M 847.688 915.576 905.64 915.576 M 1820.079 849.291 1820.079 725.512 M 2020.079 849.291 2020.079 725.512 M 2020.079 787.402 2081.968 787.402 M 1827.895 977.465 1827.895 853.687 M 1827.895 915.576 1885.848 915.576 M 2804.331 849.291 2804.331 725.512 M 3004.331 849.291 3004.331 725.512 M 3004.331 787.402 3066.22 787.402 M 2814.354 977.465 2814.354 853.687 M 2814.354 915.576 2872.307 915.576 M 3788.583 849.291 3788.583 725.512 M 3988.583 849.291 3988.583 725.512 M 3988.583 787.402 4050.472 787.402 M 3797.688 977.465 3797.688 853.687 M 3797.688 915.576 3855.64 915.576" fill="none" stroke-width="20"/><use xlink:href="#cZNswwq19LVCXtNCAn2J_pad-18" x="3448.425" y="635.827"/><use xlink:href="#cZNswwq19LVCXtNCAn2J_pad-18" x="3323.228" y="735.827"/><use xlink:href="#cZNswwq19LVCXtNCAn2J_pad-18" x="3448.425" y="835.827"/><use xlink:href="#cZNswwq19LVCXtNCAn2J_pad-18" x="3323.228" y="935.827"/><use xlink:href="#cZNswwq19LVCXtNCAn2J_pad-18" x="3448.425" y="1035.827"/><use xlink:href="#cZNswwq19LVCXtNCAn2J_pad-18" x="3323.228" y="1135.827"/><use xlink:href="#cZNswwq19LVCXtNCAn2J_pad-18" x="2418.903" y="635.827"/><use xlink:href="#cZNswwq19LVCXtNCAn2J_pad-18" x="2293.706" y="735.827"/><use xlink:href="#cZNswwq19LVCXtNCAn2J_pad-18" x="2418.903" y="835.827"/><use xlink:href="#cZNswwq19LVCXtNCAn2J_pad-18" x="2293.706" y="935.827"/><use xlink:href="#cZNswwq19LVCXtNCAn2J_pad-18" x="2418.903" y="1035.827"/><use xlink:href="#cZNswwq19LVCXtNCAn2J_pad-18" x="2293.706" y="1135.827"/><use xlink:href="#cZNswwq19LVCXtNCAn2J_pad-33" x="918.701" y="1843.701"/><use xlink:href="#cZNswwq19LVCXtNCAn2J_pad-33" x="1028.937" y="1843.701"/><use xlink:href="#cZNswwq19LVCXtNCAn2J_pad-35" x="935.827" y="787.402"/><use xlink:href="#cZNswwq19LVCXtNCAn2J_pad-35" x="735.827" y="787.402"/><use xlink:href="#cZNswwq19LVCXtNCAn2J_pad-35" x="835.827" y="787.402"/><use xlink:href="#cZNswwq19LVCXtNCAn2J_pad-35" x="1035.827" y="787.402"/><use xlink:href="#cZNswwq19LVCXtNCAn2J_pad-35" x="835.827" y="1968.503"/><use xlink:href="#cZNswwq19LVCXtNCAn2J_pad-35" x="1035.827" y="1968.504"/><use xlink:href="#cZNswwq19LVCXtNCAn2J_pad-33" x="847.688" y="915.576"/><use xlink:href="#cZNswwq19LVCXtNCAn2J_pad-33" x="737.451" y="915.576"/><use xlink:href="#cZNswwq19LVCXtNCAn2J_pad-33" x="1918.701" y="1843.701"/><use xlink:href="#cZNswwq19LVCXtNCAn2J_pad-33" x="2028.937" y="1843.701"/><use xlink:href="#cZNswwq19LVCXtNCAn2J_pad-35" x="1920.079" y="787.402"/><use xlink:href="#cZNswwq19LVCXtNCAn2J_pad-35" x="1720.079" y="787.402"/><use xlink:href="#cZNswwq19LVCXtNCAn2J_pad-35" x="1820.079" y="787.402"/><use xlink:href="#cZNswwq19LVCXtNCAn2J_pad-35" x="2020.079" y="787.402"/><use xlink:href="#cZNswwq19LVCXtNCAn2J_pad-35" x="1820.079" y="1968.503"/><use xlink:href="#cZNswwq19LVCXtNCAn2J_pad-35" x="2020.079" y="1968.504"/><use xlink:href="#cZNswwq19LVCXtNCAn2J_pad-33" x="1827.895" y="915.576"/><use xlink:href="#cZNswwq19LVCXtNCAn2J_pad-33" x="1717.659" y="915.576"/><use xlink:href="#cZNswwq19LVCXtNCAn2J_pad-33" x="2893.701" y="1843.701"/><use xlink:href="#cZNswwq19LVCXtNCAn2J_pad-33" x="3003.937" y="1843.701"/><use xlink:href="#cZNswwq19LVCXtNCAn2J_pad-35" x="2904.331" y="787.402"/><use xlink:href="#cZNswwq19LVCXtNCAn2J_pad-35" x="2704.331" y="787.402"/><use xlink:href="#cZNswwq19LVCXtNCAn2J_pad-35" x="2804.331" y="787.402"/><use xlink:href="#cZNswwq19LVCXtNCAn2J_pad-35" x="3004.331" y="787.402"/><use xlink:href="#cZNswwq19LVCXtNCAn2J_pad-35" x="2804.331" y="1968.503"/><use xlink:href="#cZNswwq19LVCXtNCAn2J_pad-35" x="3004.331" y="1968.504"/><use xlink:href="#cZNswwq19LVCXtNCAn2J_pad-33" x="2814.354" y="915.576"/><use xlink:href="#cZNswwq19LVCXtNCAn2J_pad-33" x="2704.118" y="915.576"/><use xlink:href="#cZNswwq19LVCXtNCAn2J_pad-33" x="3868.701" y="1843.701"/><use xlink:href="#cZNswwq19LVCXtNCAn2J_pad-33" x="3978.937" y="1843.701"/><use xlink:href="#cZNswwq19LVCXtNCAn2J_pad-35" x="3888.583" y="787.402"/><use xlink:href="#cZNswwq19LVCXtNCAn2J_pad-35" x="3688.583" y="787.402"/><use xlink:href="#cZNswwq19LVCXtNCAn2J_pad-35" x="3788.583" y="787.402"/><use xlink:href="#cZNswwq19LVCXtNCAn2J_pad-35" x="3988.583" y="787.402"/><use xlink:href="#cZNswwq19LVCXtNCAn2J_pad-35" x="3788.583" y="1968.503"/><use xlink:href="#cZNswwq19LVCXtNCAn2J_pad-35" x="3988.583" y="1968.504"/><use xlink:href="#cZNswwq19LVCXtNCAn2J_pad-33" x="3797.688" y="915.576"/><use xlink:href="#cZNswwq19LVCXtNCAn2J_pad-33" x="3687.451" y="915.576"/></g><g id="wwV-II4vkmeSYwfdlHQF_bottom_drill1"><use xlink:href="#tXpkak0LK86hh7I5NXnc_pad-1" x="3594.8" y="991.2"/><use xlink:href="#tXpkak0LK86hh7I5NXnc_pad-1" x="2842.9" y="1123.8"/><use xlink:href="#tXpkak0LK86hh7I5NXnc_pad-1" x="2774.3" y="1064.5"/><use xlink:href="#tXpkak0LK86hh7I5NXnc_pad-1" x="2552.7" y="635.5"/><use xlink:href="#tXpkak0LK86hh7I5NXnc_pad-1" x="1719.7" y="1048.9"/><use xlink:href="#tXpkak0LK86hh7I5NXnc_pad-1" x="733.8" y="1042.7"/><use xlink:href="#tXpkak0LK86hh7I5NXnc_pad-2" x="935.8" y="787.4"/><use xlink:href="#tXpkak0LK86hh7I5NXnc_pad-2" x="835.8" y="787.4"/><use xlink:href="#tXpkak0LK86hh7I5NXnc_pad-2" x="735.8" y="787.4"/><use xlink:href="#tXpkak0LK86hh7I5NXnc_pad-2" x="1035.8" y="787.4"/><use xlink:href="#tXpkak0LK86hh7I5NXnc_pad-2" x="1720.1" y="787.4"/><use xlink:href="#tXpkak0LK86hh7I5NXnc_pad-2" x="1820.1" y="787.4"/><use xlink:href="#tXpkak0LK86hh7I5NXnc_pad-2" x="1920.1" y="787.4"/><use xlink:href="#tXpkak0LK86hh7I5NXnc_pad-2" x="2020.1" y="787.4"/><use xlink:href="#tXpkak0LK86hh7I5NXnc_pad-2" x="2704.3" y="787.4"/><use xlink:href="#tXpkak0LK86hh7I5NXnc_pad-2" x="2804.3" y="787.4"/><use xlink:href="#tXpkak0LK86hh7I5NXnc_pad-2" x="2904.3" y="787.4"/><use xlink:href="#tXpkak0LK86hh7I5NXnc_pad-2" x="3004.3" y="787.4"/><use xlink:href="#tXpkak0LK86hh7I5NXnc_pad-2" x="3688.6" y="787.4"/><use xlink:href="#tXpkak0LK86hh7I5NXnc_pad-2" x="3788.6" y="787.4"/><use xlink:href="#tXpkak0LK86hh7I5NXnc_pad-2" x="3888.6" y="787.4"/><use xlink:href="#tXpkak0LK86hh7I5NXnc_pad-2" x="3988.6" y="787.4"/><use xlink:href="#tXpkak0LK86hh7I5NXnc_pad-2" x="3988.6" y="1968.5"/><use xlink:href="#tXpkak0LK86hh7I5NXnc_pad-2" x="3788.6" y="1968.5"/><use xlink:href="#tXpkak0LK86hh7I5NXnc_pad-2" x="3004.3" y="1968.5"/><use xlink:href="#tXpkak0LK86hh7I5NXnc_pad-2" x="2804.3" y="1968.5"/><use xlink:href="#tXpkak0LK86hh7I5NXnc_pad-2" x="2020.1" y="1968.5"/><use xlink:href="#tXpkak0LK86hh7I5NXnc_pad-2" x="1820.1" y="1968.5"/><use xlink:href="#tXpkak0LK86hh7I5NXnc_pad-2" x="1035.8" y="1968.5"/><use xlink:href="#tXpkak0LK86hh7I5NXnc_pad-2" x="835.8" y="1968.5"/><use xlink:href="#tXpkak0LK86hh7I5NXnc_pad-3" x="511.8" y="511.8"/><use xlink:href="#tXpkak0LK86hh7I5NXnc_pad-3" x="511.8" y="2244.1"/><use xlink:href="#tXpkak0LK86hh7I5NXnc_pad-3" x="4212.6" y="2244.1"/><use xlink:href="#tXpkak0LK86hh7I5NXnc_pad-3" x="4212.6" y="511.8"/></g><clipPath id="wwV-II4vkmeSYwfdlHQF_bottom_outline"><path d="M 393.701 393.701 4330.709 393.701 4330.709 2362.205 393.701 2362.205 393.701 393.701" fill="none" stroke-width="5.512"/></clipPath><mask id="wwV-II4vkmeSYwfdlHQF_bottom_mech-mask"><g fill="#000" stroke="#000"><rect x="393.701" y="393.701" width="3937.008" height="1968.504" fill="#fff"/><use xlink:href="#wwV-II4vkmeSYwfdlHQF_bottom_drill1"/></g></mask><mask id="wwV-II4vkmeSYwfdlHQF_bottom_cf-mask"><g fill="#fff" stroke="#fff"><use xlink:href="#wwV-II4vkmeSYwfdlHQF_bottom_soldermask"/></g></mask><mask id="wwV-II4vkmeSYwfdlHQF_bottom_sm-mask"><g fill="#000" stroke="#000"><rect x="393.701" y="393.701" width="3937.008" height="1968.504" fill="#fff"/><use xlink:href="#wwV-II4vkmeSYwfdlHQF_bottom_soldermask"/></g></mask></defs><g transform="translate(0,2755.906) scale(1,-1)"><g mask="url(#wwV-II4vkmeSYwfdlHQF_bottom_mech-mask)" clip-path="url(#wwV-II4vkmeSYwfdlHQF_bottom_outline)" transform="translate(4724.41,0) scale(-1,1)"><rect x="393.701" y="393.701" width="3937.008" height="1968.504" fill="currentColor" class="wwV-II4vkmeSYwfdlHQF_fr4"/><use xlink:href="#wwV-II4vkmeSYwfdlHQF_bottom_copper" fill="currentColor" stroke="currentColor" class="wwV-II4vkmeSYwfdlHQF_cu"/><use xlink:href="#wwV-II4vkmeSYwfdlHQF_bottom_copper" fill="currentColor" stroke="currentColor" class="wwV-II4vkmeSYwfdlHQF_cf" mask="url(#wwV-II4vkmeSYwfdlHQF_bottom_cf-mask)"/><g mask="url(#wwV-II4vkmeSYwfdlHQF_bottom_sm-mask)"><rect x="393.701" y="393.701" width="3937.008" height="1968.504" fill="currentColor" class="wwV-II4vkmeSYwfdlHQF_sm"/><use xlink:href="#wwV-II4vkmeSYwfdlHQF_bottom_silkscreen" fill="currentColor" stroke="currentColor" class="wwV-II4vkmeSYwfdlHQF_ss"/></g></g></g></svg>