<svg version="1.1" xmlns="http://www.w3.org/2000/svg" xmlns:xlink="http://www.w3.org/1999/xlink" stroke-linecap="round" stroke-linejoin="round" stroke-width="0" fill-rule="evenodd" width="3.333092in" height="1.4955195000000001in" viewBox="691.6485 553.164 3333.092 1495.5195" id="YM8oGotyCKBMg9FnAgfb"><defs><rect x="-22.335" y="-21.8685" width="44.67" height="43.737" rx="21.8685" ry="21.8685" id="YM8oGotyCKBMg9FnAgfb_pad-17"/><circle cx="0" cy="0" r="7.7975" id="YM8oGotyCKBMg9FnAgfb_pad-19"/><circle cx="0" cy="0" r="16.3815" id="YM8oGotyCKBMg9FnAgfb_pad-20"/><circle cx="0" cy="0" r="6.236" id="YM8oGotyCKBMg9FnAgfb_pad-21"/><circle cx="0" cy="0" r="6.247" id="YM8oGotyCKBMg9FnAgfb_pad-22"/><circle cx="0" cy="0" r="6.236" id="YM8oGotyCKBMg9FnAgfb_pad-23"/><circle cx="0" cy="0" r="6.247" id="YM8oGotyCKBMg9FnAgfb_pad-24"/><circle cx="0" cy="0" r="7.022" id="YM8oGotyCKBMg9FnAgfb_pad-25"/><rect x="-7.022" y="-7.792" width="14.044" height="15.584" rx="7.022" ry="7.022" id="YM8oGotyCKBMg9FnAgfb_pad-26"/><rect x="-16.3815" y="-13.2425" width="32.763" height="26.485" rx="13.2425" ry="13.2425" id="YM8oGotyCKBMg9FnAgfb_pad-27"/><rect x="-3.1235" y="-3.9145" width="6.247" height="7.829" rx="3.1235" ry="3.1235" id="YM8oGotyCKBMg9FnAgfb_pad-28"/><circle cx="0" cy="0" r="7.022" id="YM8oGotyCKBMg9FnAgfb_pad-29"/><rect x="-7.022" y="-7.8285" width="14.044" height="15.657" rx="7.022" ry="7.022" id="YM8oGotyCKBMg9FnAgfb_pad-30"/><rect x="-7.022" y="-6.219" width="14.044" height="12.438" rx="6.219" ry="6.219" id="YM8oGotyCKBMg9FnAgfb_pad-31"/><rect x="-5.4605" y="-6.219" width="10.921" height="12.438" rx="5.4605" ry="5.4605" id="YM8oGotyCKBMg9FnAgfb_pad-32"/></defs><g transform="translate(0,2601.8475) scale(1,-1)" fill="currentColor" stroke="currentColor"><use xlink:href="#YM8oGotyCKBMg9FnAgfb_pad-17" x="3288.499" y="1213.958"/><path d="M 3434.854 680.238 3434.854 790.524 M 3434.854 585.94 3434.854 593.673 M 3434.854 585.94 3336.8 585.94 3336.8 692.131 M 3336.8 778.696 3336.8 892.816 M 3434.854 880.274 3434.854 990.559 M 3336.8 978.666 3336.8 1092.852 M 3434.854 1080.374 3434.854 1185.85 M 3336.8 1178.832 3336.8 1185.85 3434.854 1185.85" fill="none" stroke-width="9.843"/><use xlink:href="#YM8oGotyCKBMg9FnAgfb_pad-17" x="2258.976" y="1213.958"/><path d="M 2405.332 680.238 2405.332 790.524 M 2405.332 585.94 2405.332 593.673 M 2405.332 585.94 2307.277 585.94 2307.277 692.131 M 2307.277 778.696 2307.277 892.816 M 2405.332 880.274 2405.332 990.559 M 2307.277 978.666 2307.277 1092.852 M 2405.332 1080.374 2405.332 1185.85 M 2307.277 1178.832 2307.277 1185.85 2405.332 1185.85" fill="none" stroke-width="9.843"/><use xlink:href="#YM8oGotyCKBMg9FnAgfb_pad-19" x="3856.906" y="1578.518"/><path d="M 3827.267 1745.442 3683.5 1661.084 3827.267 1595.456 3827.267 1745.442"/><path d="M 3689.991 1581.628 3689.991 1522.365 3691.542 1514.537 3696.216 1503.635 3700.89 1495.807 3707.137 1488.051 3713.383 1483.369 3722.732 1478.686 3730.551 1477.15 3741.45 1475.54 3750.82 1477.15 3761.741 1481.832 3767.988 1488.051 3774.213 1495.807 3778.909 1505.172 3782.01 1513 3827.267 1464.639 3827.267 1581.628 3689.991 1581.628"/><path d="M 3689.991 1483.369 3689.991 1339.821 3728.978 1360.087 3733.653 1388.182 3825.694 1397.547 3825.694 1424.106 3733.653 1433.471 3728.978 1461.493 3689.991 1483.369"/><path d="M 3747.697 1325.773 3747.697 1305.507 3827.267 1285.24 3827.267 1344.503 3747.697 1325.773"/><path d="M 3800.751 1168.251 3763.292 1236.879 3727.428 1168.251 3716.507 1177.616 3710.26 1186.981 3704.013 1199.419 3700.89 1211.93 3700.89 1225.978 3704.013 1238.415 3708.709 1250.926 3716.507 1261.828 3727.428 1271.193 3738.349 1277.412 3750.82 1280.558 3763.292 1282.094 3777.336 1280.558 3789.83 1277.412 3802.301 1269.656 3811.65 1260.291 3819.469 1249.39 3824.143 1236.879 3827.267 1225.978 3827.267 1211.93 3824.143 1199.419 3817.896 1185.372 3800.751 1168.251"/><path d="M 3825.694 1166.715 3680.621 1102.696 3827.267 1013.802 3825.694 1166.715"/><use xlink:href="#YM8oGotyCKBMg9FnAgfb_pad-20" x="3704.8" y="1315.677"/><path d="M 3856.906 1662.767 3894.343 1662.767 3894.343 1650.256 3856.906 1650.256 3856.906 1662.767"/><use xlink:href="#YM8oGotyCKBMg9FnAgfb_pad-21" x="3855.344" y="1656.511"/><use xlink:href="#YM8oGotyCKBMg9FnAgfb_pad-22" x="3894.343" y="1656.511"/><path d="M 3856.906 1645.573 3894.343 1645.573 3894.343 1633.135 3856.906 1633.135 3856.906 1645.573"/><use xlink:href="#YM8oGotyCKBMg9FnAgfb_pad-23" x="3855.344" y="1639.354"/><use xlink:href="#YM8oGotyCKBMg9FnAgfb_pad-24" x="3894.343" y="1639.354"/><path d="M 3856.906 1605.04 3894.343 1605.04 3894.343 1592.529 3856.906 1592.529 3856.906 1605.04"/><use xlink:href="#YM8oGotyCKBMg9FnAgfb_pad-21" x="3855.344" y="1598.785"/><use xlink:href="#YM8oGotyCKBMg9FnAgfb_pad-22" x="3894.343" y="1598.785"/><path d="M 3858.457 1513 3895.894 1513 3895.894 1500.489 3858.457 1500.489 3858.457 1513"/><use xlink:href="#YM8oGotyCKBMg9FnAgfb_pad-21" x="3856.895" y="1506.745"/><use xlink:href="#YM8oGotyCKBMg9FnAgfb_pad-21" x="3895.905" y="1506.745"/><use xlink:href="#YM8oGotyCKBMg9FnAgfb_pad-25" x="3874.849" y="1541.863"/><use xlink:href="#YM8oGotyCKBMg9FnAgfb_pad-26" x="3891.995" y="1542.668"/><use xlink:href="#YM8oGotyCKBMg9FnAgfb_pad-19" x="3856.906" y="1132.364"/><path d="M 3849.109 1525.511 3861.58 1525.511 3861.58 1488.051 3849.109 1488.051 3849.109 1525.511"/><use xlink:href="#YM8oGotyCKBMg9FnAgfb_pad-21" x="3855.344" y="1523.938"/><use xlink:href="#YM8oGotyCKBMg9FnAgfb_pad-23" x="3855.344" y="1489.588"/><path d="M 3856.906 1475.54 3894.343 1475.54 3894.343 1463.102 3856.906 1463.102 3856.906 1475.54"/><use xlink:href="#YM8oGotyCKBMg9FnAgfb_pad-23" x="3855.344" y="1469.321"/><use xlink:href="#YM8oGotyCKBMg9FnAgfb_pad-24" x="3894.343" y="1469.321"/><path d="M 3856.906 1420.96 3875.625 1420.96 3875.625 1408.449 3856.906 1408.449 3856.906 1420.96"/><use xlink:href="#YM8oGotyCKBMg9FnAgfb_pad-21" x="3855.344" y="1414.704"/><path d="M 3849.109 1469.321 3881.871 1469.321 3881.871 1435.007 3849.109 1435.007 3849.109 1469.321"/><path d="M 3856.906 1380.427 3870.95 1380.427 3870.95 1367.916 3856.906 1367.916 3856.906 1380.427"/><use xlink:href="#YM8oGotyCKBMg9FnAgfb_pad-21" x="3855.344" y="1374.171"/><use xlink:href="#YM8oGotyCKBMg9FnAgfb_pad-27" x="3865.49" y="1437.348"/><path d="M 3858.457 1174.47 3895.894 1174.47 3895.894 1162.032 3858.457 1162.032 3858.457 1174.47"/><use xlink:href="#YM8oGotyCKBMg9FnAgfb_pad-23" x="3856.895" y="1168.251"/><use xlink:href="#YM8oGotyCKBMg9FnAgfb_pad-23" x="3895.905" y="1168.251"/><path d="M 3849.109 1186.981 3861.58 1186.981 3861.58 1149.521 3849.109 1149.521 3849.109 1186.981"/><use xlink:href="#YM8oGotyCKBMg9FnAgfb_pad-21" x="3855.344" y="1185.408"/><use xlink:href="#YM8oGotyCKBMg9FnAgfb_pad-21" x="3855.344" y="1151.094"/><path d="M 3856.906 1307.116 3894.343 1307.116 3894.343 1294.605 3856.906 1294.605 3856.906 1307.116"/><use xlink:href="#YM8oGotyCKBMg9FnAgfb_pad-21" x="3855.344" y="1300.861"/><use xlink:href="#YM8oGotyCKBMg9FnAgfb_pad-22" x="3894.343" y="1300.861"/><path d="M 3856.906 1324.237 3894.343 1324.237 3894.343 1311.726 3856.906 1311.726 3856.906 1324.237"/><use xlink:href="#YM8oGotyCKBMg9FnAgfb_pad-21" x="3855.344" y="1317.981"/><use xlink:href="#YM8oGotyCKBMg9FnAgfb_pad-22" x="3894.343" y="1317.981"/><path d="M 3856.906 1364.77 3894.343 1364.77 3894.343 1352.332 3856.906 1352.332 3856.906 1364.77"/><use xlink:href="#YM8oGotyCKBMg9FnAgfb_pad-23" x="3855.344" y="1358.551"/><use xlink:href="#YM8oGotyCKBMg9FnAgfb_pad-24" x="3894.343" y="1358.551"/><path d="M 3872.501 1417.814 3881.871 1417.814 3881.871 1408.449 3872.501 1408.449 3872.501 1417.814"/><use xlink:href="#YM8oGotyCKBMg9FnAgfb_pad-28" x="3880.299" y="1339.053"/><use xlink:href="#YM8oGotyCKBMg9FnAgfb_pad-29" x="3874.849" y="1095.672"/><use xlink:href="#YM8oGotyCKBMg9FnAgfb_pad-30" x="3891.995" y="1096.477"/><path d="M 3849.109 1130.791 3861.58 1130.791 3861.58 1093.331 3849.109 1093.331 3849.109 1130.791"/><use xlink:href="#YM8oGotyCKBMg9FnAgfb_pad-23" x="3855.344" y="1129.255"/><use xlink:href="#YM8oGotyCKBMg9FnAgfb_pad-21" x="3855.344" y="1094.904"/><path d="M 3867.827 1135.474 3878.748 1135.474 3878.748 1098.014 3867.827 1098.014 3867.827 1135.474"/><use xlink:href="#YM8oGotyCKBMg9FnAgfb_pad-31" x="3871.726" y="1133.937"/><path d="M 3888.096 1135.474 3899.017 1135.474 3899.017 1098.014 3888.096 1098.014 3888.096 1135.474"/><path d="M 3849.109 1639.354 3888.096 1595.675 3900.59 1597.212 3897.466 1603.504 3866.254 1639.354 3849.109 1639.354"/><path d="M 3856.906 1250.926 3894.343 1250.926 3894.343 1238.415 3856.906 1238.415 3856.906 1250.926"/><use xlink:href="#YM8oGotyCKBMg9FnAgfb_pad-21" x="3855.344" y="1244.671"/><use xlink:href="#YM8oGotyCKBMg9FnAgfb_pad-22" x="3894.343" y="1244.671"/><path d="M 3856.906 1210.394 3894.343 1210.394 3894.343 1197.883 3856.906 1197.883 3856.906 1210.394"/><use xlink:href="#YM8oGotyCKBMg9FnAgfb_pad-21" x="3855.344" y="1204.138"/><use xlink:href="#YM8oGotyCKBMg9FnAgfb_pad-22" x="3894.343" y="1204.138"/><path d="M 3849.109 1244.708 3888.096 1201.029 3900.59 1202.565 3897.466 1208.784 3866.254 1244.708 3849.109 1244.708"/><path d="M 3849.109 1576.945 3861.58 1576.945 3861.58 1539.559 3849.109 1539.559 3849.109 1576.945"/><use xlink:href="#YM8oGotyCKBMg9FnAgfb_pad-23" x="3855.344" y="1575.409"/><use xlink:href="#YM8oGotyCKBMg9FnAgfb_pad-23" x="3855.344" y="1541.095"/><path d="M 3867.827 1581.628 3878.748 1581.628 3878.748 1544.168 3867.827 1544.168 3867.827 1581.628"/><use xlink:href="#YM8oGotyCKBMg9FnAgfb_pad-31" x="3871.726" y="1580.092"/><use xlink:href="#YM8oGotyCKBMg9FnAgfb_pad-32" x="3893.557" y="1135.474"/><path d="M 3888.096 1581.628 3899.017 1581.628 3899.017 1544.168 3888.096 1544.168 3888.096 1581.628"/><use xlink:href="#YM8oGotyCKBMg9FnAgfb_pad-32" x="3893.557" y="1581.628"/><use xlink:href="#YM8oGotyCKBMg9FnAgfb_pad-23" x="3892.781" y="1545.778"/><use xlink:href="#YM8oGotyCKBMg9FnAgfb_pad-22" x="3894.343" y="1431.898"/><path d="M 3880.299 1456.81 3899.017 1436.544 3889.669 1427.179 3877.175 1439.69 3880.299 1456.81"/><path d="M 3900.59 1396.011 3900.59 1385.109 3892.77 1374.135 3881.871 1369.452 3869.378 1367.916 3867.827 1380.427 3880.299 1381.963 3900.59 1396.011"/><path d="M 3869.378 1420.96 3884.973 1420.96 3899.017 1410.058 3900.59 1392.865 3891.219 1378.817 3886.545 1386.646 3889.669 1392.865 3888.096 1402.23 3869.378 1420.96"/><path d="M 3849.109 1357.014 3866.254 1338.284 3850.659 1321.091 3860.03 1314.872 3880.299 1335.138 3880.299 1342.967 3866.254 1357.014 3849.109 1357.014"/><path d="M 3858.457 1586.31 3870.95 1586.31 3870.95 1573.873 3858.457 1573.873 3858.457 1586.31"/><path d="M 3877.175 1545.778 3891.219 1545.778 3891.219 1534.876 3877.175 1534.876 3877.175 1545.778"/><path d="M 3847.536 1300.824 3860.03 1300.824 3860.03 1263.438 3847.536 1263.438 3847.536 1300.824"/><use xlink:href="#YM8oGotyCKBMg9FnAgfb_pad-24" x="3853.783" y="1299.288"/><use xlink:href="#YM8oGotyCKBMg9FnAgfb_pad-24" x="3853.783" y="1264.974"/><path d="M 3867.827 1302.434 3880.299 1302.434 3880.299 1264.974 3867.827 1264.974 3867.827 1302.434"/><use xlink:href="#YM8oGotyCKBMg9FnAgfb_pad-21" x="3874.063" y="1300.861"/><use xlink:href="#YM8oGotyCKBMg9FnAgfb_pad-23" x="3874.063" y="1266.51"/><path d="M 3888.096 1300.824 3900.59 1300.824 3900.59 1263.438 3888.096 1263.438 3888.096 1300.824"/><use xlink:href="#YM8oGotyCKBMg9FnAgfb_pad-24" x="3894.343" y="1299.288"/><use xlink:href="#YM8oGotyCKBMg9FnAgfb_pad-24" x="3894.343" y="1264.974"/><use xlink:href="#YM8oGotyCKBMg9FnAgfb_pad-21" x="3892.781" y="1099.587"/><path d="M 3858.457 1140.156 3870.95 1140.156 3870.95 1127.718 3858.457 1127.718 3858.457 1140.156"/><path d="M 3877.175 1099.623 3891.219 1099.623 3891.219 1088.649 3877.175 1088.649 3877.175 1099.623"/><path d="M 1396.778 820.36 1370.26 820.36 1365.588 789.163 1346.858 781.359 1321.898 801.649 1301.63 781.359 1321.898 756.404 1314.09 739.235 1282.9 734.553 1282.9 706.477 1314.09 703.355 1321.898 684.644 1303.188 659.671 1321.898 640.96 1346.858 659.671 1357.78 655.007 1373.375 692.448 1362.453 701.795 1354.665 712.72 1354.665 725.206 1357.78 736.114 1367.145 743.918 1378.068 748.6 1390.548 748.6 1401.47 742.357 1407.7 732.992 1410.815 720.524 1407.7 708.038 1399.893 697.112 1392.105 692.448 1407.7 655.007 1418.623 659.671 1443.583 640.96 1462.293 659.671 1443.583 686.205 1451.39 703.355 1482.58 706.477 1482.58 734.553 1449.813 737.675 1443.583 756.404 1463.85 781.359 1443.583 800.088 1418.623 781.359 1399.893 787.602 1396.778 820.36"/><path d="M 877.819 1798.701 1069.819 1798.701 1069.819 1888.701 877.819 1888.701 877.819 1798.701 M 888.57 960.576 696.57 960.576 696.57 870.576 888.57 870.576 888.57 960.576 M 1877.819 1798.701 2069.819 1798.701 2069.819 1888.701 1877.819 1888.701 1877.819 1798.701 M 1868.777 960.576 1676.777 960.576 1676.777 870.576 1868.777 870.576 1868.777 960.576 M 2852.819 1798.701 3044.819 1798.701 3044.819 1888.701 2852.819 1888.701 2852.819 1798.701 M 2855.236 960.576 2663.236 960.576 2663.236 870.576 2855.236 870.576 2855.236 960.576 M 3827.819 1798.701 4019.819 1798.701 4019.819 1888.701 3827.819 1888.701 3827.819 1798.701 M 3838.57 960.576 3646.57 960.576 3646.57 870.576 3838.57 870.576 3838.57 960.576" fill="none" stroke-width="9.843"/><path d="M 992.097 1782.755 989.212 1784.215 984.901 1788.492 984.901 1758.382 M 975.637 1788.526 975.637 1758.382 M 955.541 1788.526 975.637 1768.43 M 968.474 1775.626 955.541 1758.382 M 840.207 998.74 837.322 1000.199 833.011 1004.477 833.011 974.366 M 815.125 1004.477 819.436 1003.051 822.321 998.74 823.747 991.577 823.747 987.266 822.321 980.103 819.436 975.792 815.125 974.366 812.273 974.366 807.962 975.792 805.11 980.103 803.651 987.266 803.651 991.577 805.11 998.74 807.962 1003.051 812.273 1004.477 815.125 1004.477 M 805.11 998.74 822.321 980.103 M 785.766 1004.477 790.077 1003.051 792.962 998.74 794.388 991.577 794.388 987.266 792.962 980.103 790.077 975.792 785.766 974.366 782.914 974.366 778.603 975.792 775.751 980.103 774.292 987.266 774.292 991.577 775.751 998.74 778.603 1003.051 782.914 1004.477 785.766 1004.477 M 775.751 998.74 792.962 980.103 M 744.932 1004.51 744.932 974.366 765.028 1004.51 765.028 974.366 M 1992.097 1782.755 1989.212 1784.215 1984.901 1788.492 1984.901 1758.382 M 1975.637 1788.526 1975.637 1758.382 M 1955.541 1788.526 1975.637 1768.43 M 1968.474 1775.626 1955.541 1758.382 M 1820.414 998.74 1817.529 1000.199 1813.218 1004.477 1813.218 974.366 M 1795.333 1004.477 1799.644 1003.051 1802.529 998.74 1803.955 991.577 1803.955 987.266 1802.529 980.103 1799.644 975.792 1795.333 974.366 1792.481 974.366 1788.17 975.792 1785.318 980.103 1783.859 987.266 1783.859 991.577 1785.318 998.74 1788.17 1003.051 1792.481 1004.477 1795.333 1004.477 M 1785.318 998.74 1802.529 980.103 M 1765.973 1004.477 1770.284 1003.051 1773.169 998.74 1774.595 991.577 1774.595 987.266 1773.169 980.103 1770.284 975.792 1765.973 974.366 1763.121 974.366 1758.81 975.792 1755.958 980.103 1754.499 987.266 1754.499 991.577 1755.958 998.74 1758.81 1003.051 1763.121 1004.477 1765.973 1004.477 M 1755.958 998.74 1773.169 980.103 M 1725.14 1004.51 1725.14 974.366 1745.236 1004.51 1745.236 974.366 M 2967.097 1782.755 2964.212 1784.215 2959.901 1788.492 2959.901 1758.382 M 2950.637 1788.526 2950.637 1758.382 M 2930.541 1788.526 2950.637 1768.43 M 2943.474 1775.626 2930.541 1758.382 M 2806.874 998.74 2803.989 1000.199 2799.677 1004.477 2799.677 974.366 M 2781.792 1004.477 2786.103 1003.051 2788.988 998.74 2790.414 991.577 2790.414 987.266 2788.988 980.103 2786.103 975.792 2781.792 974.366 2778.94 974.366 2774.629 975.792 2771.777 980.103 2770.318 987.266 2770.318 991.577 2771.777 998.74 2774.629 1003.051 2778.94 1004.477 2781.792 1004.477 M 2771.777 998.74 2788.988 980.103 M 2752.432 1004.477 2756.743 1003.051 2759.628 998.74 2761.054 991.577 2761.054 987.266 2759.628 980.103 2756.743 975.792 2752.432 974.366 2749.58 974.366 2745.269 975.792 2742.418 980.103 2740.958 987.266 2740.958 991.577 2742.418 998.74 2745.269 1003.051 2749.58 1004.477 2752.432 1004.477 M 2742.418 998.74 2759.628 980.103 M 2711.599 1004.51 2711.599 974.366 2731.695 1004.51 2731.695 974.366 M 3942.097 1782.755 3939.212 1784.215 3934.901 1788.492 3934.901 1758.382 M 3925.637 1788.526 3925.637 1758.382 M 3905.541 1788.526 3925.637 1768.43 M 3918.474 1775.626 3905.541 1758.382 M 3790.207 998.74 3787.322 1000.199 3783.011 1004.477 3783.011 974.366 M 3765.125 1004.477 3769.436 1003.051 3772.321 998.74 3773.747 991.577 3773.747 987.266 3772.321 980.103 3769.436 975.792 3765.125 974.366 3762.273 974.366 3757.962 975.792 3755.11 980.103 3753.651 987.266 3753.651 991.577 3755.11 998.74 3757.962 1003.051 3762.273 1004.477 3765.125 1004.477 M 3755.11 998.74 3772.321 980.103 M 3735.766 1004.477 3740.077 1003.051 3742.962 998.74 3744.388 991.577 3744.388 987.266 3742.962 980.103 3740.077 975.792 3735.766 974.366 3732.914 974.366 3728.603 975.792 3725.751 980.103 3724.292 987.266 3724.292 991.577 3725.751 998.74 3728.603 1003.051 3732.914 1004.477 3735.766 1004.477 M 3725.751 998.74 3742.962 980.103 M 3694.932 1004.51 3694.932 974.366 3715.028 1004.51 3715.028 974.366" fill="none" stroke-width="4.632"/><path d="M 1568.023 1074.885 1568.023 1978.211 1998.794 1376.325 1353.135 1376.325 M 856.495 1979.207 1416.596 1979.207 1416.596 1074.887 M 1416.596 1548.436 1072.378 1548.436" fill="none" stroke-width="138.953"/><path d="M 1246.707 1040.123 1292.736 1160.699 1338.632 1040.123 M 1321.388 1080.315 1263.952 1080.315 M 1209.653 1160.699 1209.653 1040.123 1169.461 1040.123 1152.217 1045.96 1140.677 1057.367 1134.973 1068.908 1129.269 1086.019 1129.269 1114.804 1134.973 1132.048 1140.677 1143.455 1152.217 1154.996 1169.461 1160.699 1209.653 1160.699 M 1017.668 1160.699 1092.215 1160.699 1092.215 1040.123 1017.668 1040.123 M 1092.215 1103.263 1046.319 1103.263 M 980.613 1103.263 929.014 1103.263 911.77 1109.1 905.933 1114.804 900.229 1126.211 900.229 1137.751 905.933 1149.159 911.77 1154.996 929.014 1160.699 980.613 1160.699 980.613 1040.123 M 940.421 1103.263 900.229 1040.123 M 782.791 1143.455 794.199 1154.996 811.443 1160.699 834.391 1160.699 851.635 1154.996 863.175 1143.455 863.175 1132.048 857.339 1120.507 851.635 1114.804 840.227 1109.1 805.739 1097.559 794.199 1091.856 788.495 1086.019 782.791 1074.612 782.791 1057.367 794.199 1045.96 811.443 1040.123 834.391 1040.123 851.635 1045.96 863.175 1057.367" fill="none" stroke-width="18.527"/><path d="M 3976.984 1691.715 3978.886 1689.813 3976.984 1687.868 3975.039 1689.813 3976.984 1691.715 M 3990.382 1689.813 4017.176 1689.813 M 3990.382 1675.517 4017.176 1675.517 M 3998.031 1675.517 3992.283 1669.769 3990.382 1665.922 3990.382 1660.218 3992.283 1656.371 3998.031 1654.47 4017.176 1654.47 M 3996.13 1621.072 3992.283 1622.973 3990.382 1628.721 3990.382 1634.469 3992.283 1640.217 3996.13 1642.119 3999.932 1640.217 4001.878 1636.371 4003.779 1626.82 4005.68 1622.973 4009.527 1621.072 4011.428 1621.072 4015.231 1622.973 4017.176 1628.721 4017.176 1634.469 4015.231 1640.217 4011.428 1642.119 M 3976.984 1602.972 4009.527 1602.972 4015.231 1601.071 4017.176 1597.224 4017.176 1593.422 M 3990.382 1608.72 3990.382 1595.323 M 3990.382 1581.07 4017.176 1581.07 M 4001.878 1581.07 3996.13 1579.125 3992.283 1575.322 3990.382 1571.476 3990.382 1565.728 M 3990.382 1553.376 4009.527 1553.376 4015.231 1551.475 4017.176 1547.628 4017.176 1541.88 4015.231 1538.078 4009.527 1532.33 M 3990.382 1532.33 4017.176 1532.33 M 3990.382 1519.978 4017.176 1519.978 M 3998.031 1519.978 3992.283 1514.23 3990.382 1510.383 3990.382 1504.68 3992.283 1500.833 3998.031 1498.932 4017.176 1498.932 M 3998.031 1498.932 3992.283 1493.184 3990.382 1489.337 3990.382 1483.633 3992.283 1479.786 3998.031 1477.841 4017.176 1477.841 M 4001.878 1465.489 4001.878 1442.541 3998.031 1442.541 3994.184 1444.443 3992.283 1446.344 3990.382 1450.191 3990.382 1455.939 3992.283 1459.741 3996.13 1463.588 4001.878 1465.489 4005.68 1465.489 4011.428 1463.588 4015.231 1459.741 4017.176 1455.939 4017.176 1450.191 4015.231 1446.344 4011.428 1442.541 M 3990.382 1430.19 4017.176 1430.19 M 3998.031 1430.19 3992.283 1424.442 3990.382 1420.595 3990.382 1414.891 3992.283 1411.045 3998.031 1409.143 4017.176 1409.143 M 3976.984 1391.044 4009.527 1391.044 4015.231 1389.143 4017.176 1385.296 4017.176 1381.493 M 3990.382 1396.792 3990.382 1383.395 M 3996.13 1348.095 3992.283 1349.997 3990.382 1355.745 3990.382 1361.493 3992.283 1367.241 3996.13 1369.142 3999.932 1367.241 4001.878 1363.394 4003.779 1353.843 4005.68 1349.997 4009.527 1348.095 4011.428 1348.095 4015.231 1349.997 4017.176 1355.745 4017.176 1361.493 4015.231 1367.241 4011.428 1369.142 M 4013.33 1333.843 4015.275 1335.744 4017.176 1333.843 4015.275 1331.897 4013.33 1333.843 M 3990.382 1296.598 4017.176 1296.598 M 3996.13 1296.598 3992.283 1300.4 3990.382 1304.247 3990.382 1309.951 3992.283 1313.798 3996.13 1317.6 4001.878 1319.546 4005.68 1319.546 4011.428 1317.6 4015.231 1313.798 4017.176 1309.951 4017.176 1304.247 4015.231 1300.4 4011.428 1296.598 M 3990.382 1284.247 4017.176 1284.247 M 4001.878 1284.247 3996.13 1282.301 3992.283 1278.498 3990.382 1274.652 3990.382 1268.904 M 3976.984 1250.804 4009.527 1250.804 4015.231 1248.903 4017.176 1245.056 4017.176 1241.254 M 3990.382 1256.552 3990.382 1243.155 M 3976.984 1228.902 3978.886 1227.001 3976.984 1225.056 3975.039 1227.001 3976.984 1228.902 M 3990.382 1227.001 4017.176 1227.001 M 3996.13 1189.712 3992.283 1193.559 3990.382 1197.406 3990.382 1203.109 3992.283 1206.956 3996.13 1210.759 4001.878 1212.704 4005.68 1212.704 4011.428 1210.759 4015.231 1206.956 4017.176 1203.109 4017.176 1197.406 4015.231 1193.559 4011.428 1189.712 M 3990.382 1154.413 4017.176 1154.413 M 3996.13 1154.413 3992.283 1158.215 3990.382 1162.062 3990.382 1167.766 3992.283 1171.613 3996.13 1175.415 4001.878 1177.361 4005.68 1177.361 4011.428 1175.415 4015.231 1171.613 4017.176 1167.766 4017.176 1162.062 4015.231 1158.215 4011.428 1154.413 M 4013.33 1140.16 4015.275 1142.061 4017.176 1140.16 4015.275 1138.215 4013.33 1140.16 M 3996.13 1102.871 3992.283 1106.718 3990.382 1110.565 3990.382 1116.268 3992.283 1120.115 3996.13 1123.918 4001.878 1125.863 4005.68 1125.863 4011.428 1123.918 4015.231 1120.115 4017.176 1116.268 4017.176 1110.565 4015.231 1106.718 4011.428 1102.871 M 3996.13 1067.528 3992.283 1071.374 3990.382 1075.221 3990.382 1080.925 3992.283 1084.772 3996.13 1088.574 4001.878 1090.52 4005.68 1090.52 4011.428 1088.574 4015.231 1084.772 4017.176 1080.925 4017.176 1075.221 4015.231 1071.374 4011.428 1067.528" fill="none" stroke-width="6.176"/><path d="M 3461.781 1419.902 3511.568 1419.902 3511.568 1339.518 M 3511.568 1381.611 3480.971 1381.611 M 3375.796 1339.518 3406.481 1419.902 3437.079 1339.518 M 3425.583 1366.312 3387.292 1366.312 M 3351.093 1419.902 3351.093 1339.518 3324.298 1339.518 3312.802 1343.408 3305.109 1351.014 3301.306 1358.707 3297.504 1370.115 3297.504 1389.304 3301.306 1400.8 3305.109 1408.405 3312.802 1416.099 3324.298 1419.902 3351.093 1419.902 M 3223.102 1419.902 3272.801 1419.902 3272.801 1339.518 3223.102 1339.518 M 3272.801 1381.611 3242.204 1381.611 M 3198.4 1381.611 3164 1381.611 3152.504 1385.502 3148.613 1389.304 3144.81 1396.909 3144.81 1404.603 3148.613 1412.208 3152.504 1416.099 3164 1419.902 3198.4 1419.902 3198.4 1339.518 M 3171.605 1381.611 3144.81 1339.518 M 3066.518 1408.405 3074.123 1416.099 3085.619 1419.902 3100.918 1419.902 3112.414 1416.099 3120.108 1408.405 3120.108 1400.8 3116.217 1393.107 3112.414 1389.304 3104.809 1385.502 3081.817 1377.808 3074.123 1374.006 3070.321 1370.115 3066.518 1362.51 3066.518 1351.014 3074.123 1343.408 3085.619 1339.518 3100.918 1339.518 3112.414 1343.408 3120.108 1351.014 M 2474.672 1419.902 2474.672 1339.518 2428.777 1339.518 M 2354.375 1419.902 2404.074 1419.902 2404.074 1339.518 2354.375 1339.518 M 2404.074 1381.611 2373.477 1381.611 M 2329.673 1419.902 2329.673 1339.518 2302.878 1339.518 2291.382 1343.408 2283.688 1351.014 2279.886 1358.707 2276.083 1370.115 2276.083 1389.304 2279.886 1400.8 2283.688 1408.405 2291.382 1416.099 2302.878 1419.902 2329.673 1419.902 M 2197.791 1408.405 2205.396 1416.099 2216.892 1419.902 2232.191 1419.902 2243.687 1416.099 2251.381 1408.405 2251.381 1400.8 2247.49 1393.107 2243.687 1389.304 2236.082 1385.502 2213.09 1377.808 2205.396 1374.006 2201.594 1370.115 2197.791 1362.51 2197.791 1351.014 2205.396 1343.408 2216.892 1339.518 2232.191 1339.518 2243.687 1343.408 2251.381 1351.014" fill="none" stroke-width="12.351"/><path d="M 1330.066 1677.246 1318.57 1650.451 1307.118 1677.246 M 1294.767 1682.95 1290.92 1684.895 1285.172 1690.599 1285.172 1650.451 M 1270.92 1654.298 1272.821 1652.352 1270.92 1650.451 1268.974 1652.352 1270.92 1654.298 M 1245.127 1690.599 1250.875 1688.698 1254.721 1682.95 1256.623 1673.399 1256.623 1667.651 1254.721 1658.1 1250.875 1652.352 1245.127 1650.451 1241.324 1650.451 1235.576 1652.352 1231.773 1658.1 1229.828 1667.651 1229.828 1673.399 1231.773 1682.95 1235.576 1688.698 1241.324 1690.599 1245.127 1690.599 M 1231.773 1682.95 1254.721 1658.1" fill="none" stroke-width="6.176"/><path d="M 1527.19 578.461 1528.616 581.313 1531.501 584.198 1534.353 585.624 1540.09 585.624 1542.975 584.198 1545.827 581.313 1547.286 578.461 1548.712 574.15 1548.712 566.954 1547.286 562.676 1545.827 559.791 1542.975 556.939 1540.09 555.48 1534.353 555.48 1531.501 556.939 1528.616 559.791 1527.19 562.676 M 1496.404 578.461 1497.83 581.313 1500.715 584.198 1503.567 585.624 1509.304 585.624 1512.189 584.198 1515.041 581.313 1516.5 578.461 1517.926 574.15 1517.926 566.954 1516.5 562.676 1515.041 559.791 1512.189 556.939 1509.304 555.48 1503.567 555.48 1500.715 556.939 1497.83 559.791 1496.404 562.676 M 1457.98 585.624 1457.98 555.48 1445.047 555.48 1440.736 556.939 1439.31 558.365 1437.884 561.217 1437.884 565.528 1439.31 568.413 1440.736 569.839 1445.047 571.265 1440.736 572.724 1439.31 574.15 1437.884 577.002 1437.884 579.887 1439.31 582.739 1440.736 584.198 1445.047 585.624 1457.98 585.624 M 1457.98 571.265 1445.047 571.265 M 1428.621 585.624 1417.147 571.265 1417.147 555.48 M 1405.673 585.624 1417.147 571.265 M 1396.409 570.535 1379.828 570.535 M 1350.469 581.313 1353.321 584.198 1357.632 585.624 1363.369 585.624 1367.68 584.198 1370.565 581.313 1370.565 578.461 1369.106 575.576 1367.68 574.15 1364.828 572.724 1356.206 569.839 1353.321 568.413 1351.895 566.954 1350.469 564.102 1350.469 559.791 1353.321 556.939 1357.632 555.48 1363.369 555.48 1367.68 556.939 1370.565 559.791 M 1318.224 555.48 1329.731 585.624 1341.205 555.48 M 1336.894 565.528 1322.535 565.528 M 1265.441 555.48 1265.441 585.591 1279.8 565.528 1258.278 565.528 M 1247.589 558.365 1249.015 556.906 1247.589 555.48 1246.13 556.906 1247.589 558.365 M 1228.244 585.591 1232.555 584.165 1235.44 579.854 1236.866 572.691 1236.866 568.38 1235.44 561.217 1232.555 556.906 1228.244 555.48 1225.392 555.48 1221.081 556.906 1218.229 561.217 1216.77 568.38 1216.77 572.691 1218.229 579.854 1221.081 584.165 1225.392 585.591 1228.244 585.591 M 1218.229 579.854 1235.44 561.217" fill="none" stroke-width="4.632"/><path d="M 2181.336 760.417 2181.336 763.269 2178.484 769.04 2175.632 771.891 2169.862 774.743 2158.388 774.743 2152.684 771.891 2149.832 769.04 2146.914 763.269 2146.914 757.566 2149.832 751.795 2155.536 743.24 2184.254 714.522 2144.062 714.522 M 2180.74 1150.883 2147.578 1150.883 M 2164.192 1076.719 2164.192 1025.053 M 2189.992 1050.853 2138.326 1050.853 M 2156.963 920.774 2156.963 980.995 2185.681 940.87 2142.637 940.87 M 2178.484 880.998 2146.98 880.998 2164.158 858.05 2155.536 858.05 2149.832 855.198 2146.98 852.346 2144.062 843.724 2144.062 838.02 2146.98 829.398 2152.684 823.628 2161.306 820.776 2169.928 820.776 2178.484 823.628 2181.336 826.546 2184.254 832.25 M 2171.355 660.141 2165.585 663.059 2156.962 671.615 2156.962 611.393" fill="none" stroke-width="9.264"/><path d="M 3855.827 677.139 3848.134 681.03 3836.638 692.438 3836.638 612.142 M 2876 673.337 2876 677.139 2872.198 684.833 2868.395 688.635 2860.701 692.438 2845.403 692.438 2837.798 688.635 2833.995 684.833 2830.104 677.139 2830.104 669.534 2833.995 661.841 2841.6 650.433 2879.891 612.142 2826.302 612.142 M 1883.701 692.438 1841.697 692.438 1864.6 661.841 1853.104 661.841 1845.499 658.038 1841.697 654.235 1837.806 642.739 1837.806 635.134 1841.697 623.638 1849.302 615.945 1860.798 612.142 1872.294 612.142 1883.701 615.945 1887.504 619.836 1891.395 627.441 M 869.899 612.142 869.899 692.438 908.19 638.937 850.798 638.937" fill="none" stroke-width="12.351"/><path d="M 3201.576 751.058 3201.576 753.91 3198.724 759.68 3195.872 762.532 3190.102 765.384 3178.628 765.384 3172.924 762.532 3170.073 759.68 3167.154 753.91 3167.154 748.206 3170.073 742.436 3175.776 733.88 3204.494 705.162 3164.302 705.162 M 3200.979 1141.524 3167.817 1141.524 M 3184.431 1067.359 3184.431 1015.693 M 3210.231 1041.493 3158.565 1041.493 M 3177.202 911.414 3177.202 971.636 3205.92 931.51 3162.876 931.51 M 3198.724 871.638 3167.221 871.638 3184.398 848.69 3175.776 848.69 3170.073 845.839 3167.221 842.987 3164.302 834.365 3164.302 828.661 3167.221 820.039 3172.924 814.269 3181.546 811.417 3190.169 811.417 3198.724 814.269 3201.576 817.187 3204.494 822.891 M 3191.594 650.781 3185.823 653.699 3177.201 662.255 3177.201 602.033" fill="none" stroke-width="9.264"/></g></svg>