<svg version="1.1" xmlns="http://www.w3.org/2000/svg" xmlns:xlink="http://www.w3.org/1999/xlink" stroke-linecap="round" stroke-linejoin="round" stroke-width="0" fill-rule="evenodd" width="3.8188969999999998in" height="1.850393in" viewBox="452.756 452.756 3818.897 1850.393" id="bR-DHm82On8-RYL5VWuq"><defs><rect x="-66.5355" y="-28.937" width="133.071" height="57.874" id="bR-DHm82On8-RYL5VWuq_pad-47"/><rect x="-35.433" y="-39.37" width="70.866" height="78.74" id="bR-DHm82On8-RYL5VWuq_pad-45"/><circle cx="0" cy="0" r="39.37" id="bR-DHm82On8-RYL5VWuq_pad-43"/><circle cx="0" cy="0" r="59.055" id="bR-DHm82On8-RYL5VWuq_pad-38"/></defs><g transform="translate(0,2755.9049999999997) scale(1,-1)" fill="currentColor" stroke="currentColor"><use xlink:href="#bR-DHm82On8-RYL5VWuq_pad-47" x="3448.425" y="635.827"/><use xlink:href="#bR-DHm82On8-RYL5VWuq_pad-47" x="3323.228" y="735.827"/><use xlink:href="#bR-DHm82On8-RYL5VWuq_pad-47" x="3448.425" y="835.827"/><use xlink:href="#bR-DHm82On8-RYL5VWuq_pad-47" x="3323.228" y="935.827"/><use xlink:href="#bR-DHm82On8-RYL5VWuq_pad-47" x="3448.425" y="1035.827"/><use xlink:href="#bR-DHm82On8-RYL5VWuq_pad-47" x="3323.228" y="1135.827"/><use xlink:href="#bR-DHm82On8-RYL5VWuq_pad-47" x="2418.903" y="635.827"/><use xlink:href="#bR-DHm82On8-RYL5VWuq_pad-47" x="2293.706" y="735.827"/><use xlink:href="#bR-DHm82On8-RYL5VWuq_pad-47" x="2418.903" y="835.827"/><use xlink:href="#bR-DHm82On8-RYL5VWuq_pad-47" x="2293.706" y="935.827"/><use xlink:href="#bR-DHm82On8-RYL5VWuq_pad-47" x="2418.903" y="1035.827"/><use xlink:href="#bR-DHm82On8-RYL5VWuq_pad-47" x="2293.706" y="1135.827"/><use xlink:href="#bR-DHm82On8-RYL5VWuq_pad-45" x="918.701" y="1843.701"/><use xlink:href="#bR-DHm82On8-RYL5VWuq_pad-45" x="1028.937" y="1843.701"/><use xlink:href="#bR-DHm82On8-RYL5VWuq_pad-43" x="935.827" y="787.402"/><use xlink:href="#bR-DHm82On8-RYL5VWuq_pad-43" x="735.827" y="787.402"/><use xlink:href="#bR-DHm82On8-RYL5VWuq_pad-43" x="835.827" y="787.402"/><use xlink:href="#bR-DHm82On8-RYL5VWuq_pad-43" x="1035.827" y="787.402"/><use xlink:href="#bR-DHm82On8-RYL5VWuq_pad-43" x="835.827" y="1968.503"/><use xlink:href="#bR-DHm82On8-RYL5VWuq_pad-43" x="1035.827" y="1968.504"/><use xlink:href="#bR-DHm82On8-RYL5VWuq_pad-45" x="847.688" y="915.576"/><use xlink:href="#bR-DHm82On8-RYL5VWuq_pad-45" x="737.451" y="915.576"/><use xlink:href="#bR-DHm82On8-RYL5VWuq_pad-45" x="1918.701" y="1843.701"/><use xlink:href="#bR-DHm82On8-RYL5VWuq_pad-45" x="2028.937" y="1843.701"/><use xlink:href="#bR-DHm82On8-RYL5VWuq_pad-43" x="1920.079" y="787.402"/><use xlink:href="#bR-DHm82On8-RYL5VWuq_pad-43" x="1720.079" y="787.402"/><use xlink:href="#bR-DHm82On8-RYL5VWuq_pad-43" x="1820.079" y="787.402"/><use xlink:href="#bR-DHm82On8-RYL5VWuq_pad-43" x="2020.079" y="787.402"/><use xlink:href="#bR-DHm82On8-RYL5VWuq_pad-43" x="1820.079" y="1968.503"/><use xlink:href="#bR-DHm82On8-RYL5VWuq_pad-43" x="2020.079" y="1968.504"/><use xlink:href="#bR-DHm82On8-RYL5VWuq_pad-45" x="1827.895" y="915.576"/><use xlink:href="#bR-DHm82On8-RYL5VWuq_pad-45" x="1717.659" y="915.576"/><use xlink:href="#bR-DHm82On8-RYL5VWuq_pad-45" x="2893.701" y="1843.701"/><use xlink:href="#bR-DHm82On8-RYL5VWuq_pad-45" x="3003.937" y="1843.701"/><use xlink:href="#bR-DHm82On8-RYL5VWuq_pad-43" x="2904.331" y="787.402"/><use xlink:href="#bR-DHm82On8-RYL5VWuq_pad-43" x="2704.331" y="787.402"/><use xlink:href="#bR-DHm82On8-RYL5VWuq_pad-43" x="2804.331" y="787.402"/><use xlink:href="#bR-DHm82On8-RYL5VWuq_pad-43" x="3004.331" y="787.402"/><use xlink:href="#bR-DHm82On8-RYL5VWuq_pad-43" x="2804.331" y="1968.503"/><use xlink:href="#bR-DHm82On8-RYL5VWuq_pad-43" x="3004.331" y="1968.504"/><use xlink:href="#bR-DHm82On8-RYL5VWuq_pad-45" x="2814.354" y="915.576"/><use xlink:href="#bR-DHm82On8-RYL5VWuq_pad-45" x="2704.118" y="915.576"/><use xlink:href="#bR-DHm82On8-RYL5VWuq_pad-45" x="3868.701" y="1843.701"/><use xlink:href="#bR-DHm82On8-RYL5VWuq_pad-45" x="3978.937" y="1843.701"/><use xlink:href="#bR-DHm82On8-RYL5VWuq_pad-43" x="3888.583" y="787.402"/><use xlink:href="#bR-DHm82On8-RYL5VWuq_pad-43" x="3688.583" y="787.402"/><use xlink:href="#bR-DHm82On8-RYL5VWuq_pad-43" x="3788.583" y="787.402"/><use xlink:href="#bR-DHm82On8-RYL5VWuq_pad-43" x="3988.583" y="787.402"/><use xlink:href="#bR-DHm82On8-RYL5VWuq_pad-43" x="3788.583" y="1968.503"/><use xlink:href="#bR-DHm82On8-RYL5VWuq_pad-43" x="3988.583" y="1968.504"/><use xlink:href="#bR-DHm82On8-RYL5VWuq_pad-45" x="3797.688" y="915.576"/><use xlink:href="#bR-DHm82On8-RYL5VWuq_pad-45" x="3687.451" y="915.576"/><use xlink:href="#bR-DHm82On8-RYL5VWuq_pad-38" x="511.811" y="511.811"/><use xlink:href="#bR-DHm82On8-RYL5VWuq_pad-38" x="511.811" y="2244.094"/><use xlink:href="#bR-DHm82On8-RYL5VWuq_pad-38" x="4212.598" y="511.811"/><use xlink:href="#bR-DHm82On8-RYL5VWuq_pad-38" x="4212.598" y="2244.094"/></g></svg>