<svg version="1.1" xmlns="http://www.w3.org/2000/svg" xmlns:xlink="http://www.w3.org/1999/xlink" stroke-linecap="round" stroke-linejoin="round" stroke-width="0" fill-rule="evenodd" width="3.464622in" height="1.9134in" viewBox="629.894 421.253 3464.622 1913.4" id="cZNswwq19LVCXtNCAn2J"><defs><circle cx="0" cy="0" r="20" id="cZNswwq19LVCXtNCAn2J_pad-36"/><rect x="-62.5985" y="-25" width="125.197" height="50" id="cZNswwq19LVCXtNCAn2J_pad-18"/><rect x="-31.496" y="-35.433" width="62.992" height="70.866" id="cZNswwq19LVCXtNCAn2J_pad-33"/><circle cx="0" cy="0" r="35.433" id="cZNswwq19LVCXtNCAn2J_pad-35"/></defs><g transform="translate(0,2755.906) scale(1,-1)" fill="currentColor" stroke="currentColor"><path d="M 918.701 1843.701 918.701 1784.381 1398.341 1304.74 1810.181 1304.74 2181.461 933.461 2291.34 933.461 2293.706 935.827 M 2418.903 835.827 2498.786 835.827 2543.381 880.421 2543.381 1151.861 1916.261 1778.98 1916.261 1841.261 1918.701 1843.701 M 2893.701 1843.701 2893.701 1786.101 2577.701 1470.101 2577.701 861.701 2449.781 733.781 2295.752 733.781 2293.706 735.827 M 3868.701 1843.701 3868.701 1265.062 3594.82 991.181 M 2552.74 635.501 2418.577 635.501 2418.903 635.827 M 3323.228 935.827 3152.535 935.827 2964.581 1123.781 2842.9 1123.781 M 733.781 1042.661 733.781 911.906 737.451 915.576 M 735.827 787.402 735.827 913.951 737.451 915.576 M 3448.425 835.827 3177.655 835.827 2948.98 1064.501 2774.261 1064.501 M 1719.701 1048.9 1719.701 917.618 1717.659 915.576 M 1720.079 787.402 1720.079 913.156 1717.659 915.576 M 2704.118 915.576 2704.118 963.159 2753.98 1013.021 2916.22 1013.021 3192.341 736.9 3322.155 736.9 3323.228 735.827 M 2704.331 787.402 2704.331 915.364 2704.118 915.576 M 3687.451 915.576 3645.576 915.576 3594.82 864.82 3594.82 705.699 3519.941 630.82 3453.432 630.82 3448.425 635.827 M 3688.583 787.402 3688.583 914.445 3687.451 915.576" fill="none" stroke-width="12"/><path d="M 3448.425 1035.827 3448.425 1961.375 3441.298 1968.503 3247.059 2162.741 2804.331 2162.741 1820.079 2162.741 1030.066 2162.741 835.827 1968.503 M 1820.079 1968.503 1820.079 2162.741 M 2804.331 1968.503 2804.331 2162.741 M 3788.583 1968.503 3441.298 1968.503" fill="none" stroke-width="22"/><path d="M 1035.827 1968.504 1035.827 1850.591 1028.937 1843.701 M 2020.079 1968.504 2020.079 1852.559 2028.937 1843.701 M 3004.331 1968.504 3004.331 1844.094 3003.937 1843.701 M 3988.583 1968.504 3988.583 1853.346 3978.937 1843.701" fill="none" stroke-width="12"/><use xlink:href="#cZNswwq19LVCXtNCAn2J_pad-36" x="3594.82" y="991.181"/><use xlink:href="#cZNswwq19LVCXtNCAn2J_pad-36" x="2552.74" y="635.501"/><use xlink:href="#cZNswwq19LVCXtNCAn2J_pad-36" x="2842.9" y="1123.781"/><use xlink:href="#cZNswwq19LVCXtNCAn2J_pad-36" x="733.781" y="1042.661"/><use xlink:href="#cZNswwq19LVCXtNCAn2J_pad-36" x="2774.261" y="1064.501"/><use xlink:href="#cZNswwq19LVCXtNCAn2J_pad-36" x="1719.701" y="1048.9"/><path d="M 644.939 2297.277 4079.474 2297.277 M 644.939 2272.408 4079.474 2272.408 M 644.939 2247.539 4079.474 2247.539 M 644.939 2222.671 4079.474 2222.671 M 644.939 2197.802 1014.283 2197.802 M 3262.834 2197.802 4079.474 2197.802 M 644.939 2172.933 984.75 2172.933 M 3292.403 2172.933 4079.474 2172.933 M 644.939 2148.064 959.883 2148.064 M 3317.27 2148.064 4079.474 2148.064 M 644.939 2123.196 935.015 2123.196 M 1046.053 2123.196 1780.087 2123.196 M 1860.085 2123.196 2764.355 2123.196 M 2844.317 2123.196 3231.1 2123.196 M 3342.138 2123.196 4079.474 2123.196 M 644.939 2098.327 910.111 2098.327 M 1021.185 2098.327 1780.087 2098.327 M 1860.085 2098.327 2764.355 2098.327 M 2844.317 2098.327 3255.968 2098.327 M 3367.006 2098.327 4079.474 2098.327 M 644.939 2073.458 885.243 2073.458 M 996.317 2073.458 1780.087 2073.458 M 1860.085 2073.458 2764.355 2073.458 M 2844.317 2073.458 3280.836 2073.458 M 3391.874 2073.458 4079.474 2073.458 M 644.939 2048.589 860.376 2048.589 M 971.449 2048.589 1780.087 2048.589 M 1860.085 2048.589 2764.355 2048.589 M 2844.317 2048.589 3305.704 2048.589 M 3416.741 2048.589 4079.474 2048.589 M 644.939 2023.72 805.294 2023.72 M 946.582 2023.72 1005.276 2023.72 M 1066.363 2023.72 1780.087 2023.72 M 1860.085 2023.72 1989.543 2023.72 M 2050.595 2023.72 2764.355 2023.72 M 2844.317 2023.72 2973.811 2023.72 M 3034.862 2023.72 3330.571 2023.72 M 3441.609 2023.72 3758.06 2023.72 M 3819.111 2023.72 3958.042 2023.72 M 4019.129 2023.72 4079.474 2023.72 M 644.939 1998.852 779.349 1998.852 M 921.714 1998.852 979.332 1998.852 M 1092.307 1998.852 1763.617 1998.852 M 1876.556 1998.852 1963.599 1998.852 M 2076.575 1998.852 2747.848 1998.852 M 2860.824 1998.852 2947.867 1998.852 M 3060.806 1998.852 3355.439 1998.852 M 3845.055 1998.852 3932.098 1998.852 M 4045.074 1998.852 4079.474 1998.852 M 644.939 1973.983 771.634 1973.983 M 900.004 1973.983 971.653 1973.983 M 1100.022 1973.983 1755.902 1973.983 M 1884.271 1973.983 1955.884 1973.983 M 2084.254 1973.983 2740.133 1973.983 M 2868.503 1973.983 2940.151 1973.983 M 3068.521 1973.983 3380.307 1973.983 M 3852.77 1973.983 3924.383 1973.983 M 4052.753 1973.983 4079.474 1973.983 M 644.939 1949.114 774.505 1949.114 M 897.133 1949.114 974.523 1949.114 M 1097.152 1949.114 1758.772 1949.114 M 1881.401 1949.114 1958.755 1949.114 M 2081.383 1949.114 2743.004 1949.114 M 2865.632 1949.114 2943.022 1949.114 M 3065.651 1949.114 3405.175 1949.114 M 3849.899 1949.114 3927.254 1949.114 M 4049.882 1949.114 4079.474 1949.114 M 644.939 1924.245 790.007 1924.245 M 881.631 1924.245 990.025 1924.245 M 1081.65 1924.245 1774.274 1924.245 M 1865.899 1924.245 1974.257 1924.245 M 2065.881 1924.245 2758.506 1924.245 M 2850.13 1924.245 2958.524 1924.245 M 3050.149 1924.245 3408.44 1924.245 M 3488.402 1924.245 3742.773 1924.245 M 3834.397 1924.245 3942.756 1924.245 M 4034.38 1924.245 4079.474 1924.245 M 644.939 1899.377 858.223 1899.377 M 1089.437 1899.377 1858.207 1899.377 M 2089.421 1899.377 2833.217 1899.377 M 3064.43 1899.377 3408.44 1899.377 M 3488.402 1899.377 3808.226 1899.377 M 4039.44 1899.377 4079.474 1899.377 M 644.939 1874.508 858.223 1874.508 M 1089.437 1874.508 1858.207 1874.508 M 2089.421 1874.508 2833.217 1874.508 M 3064.43 1874.508 3408.44 1874.508 M 3488.402 1874.508 3808.226 1874.508 M 4039.44 1874.508 4079.474 1874.508 M 644.939 1849.639 858.223 1849.639 M 1089.437 1849.639 1858.207 1849.639 M 2089.421 1849.639 2833.217 1849.639 M 3064.43 1849.639 3408.44 1849.639 M 3488.402 1849.639 3808.226 1849.639 M 4039.44 1849.639 4079.474 1849.639 M 644.939 1824.77 858.223 1824.77 M 1089.437 1824.77 1858.207 1824.77 M 2089.421 1824.77 2833.217 1824.77 M 3064.43 1824.77 3408.44 1824.77 M 3488.402 1824.77 3808.226 1824.77 M 4039.44 1824.77 4079.474 1824.77 M 644.939 1799.902 858.223 1799.902 M 1089.437 1799.902 1858.207 1799.902 M 2089.421 1799.902 2833.217 1799.902 M 3064.43 1799.902 3408.44 1799.902 M 3488.402 1799.902 3808.226 1799.902 M 4039.44 1799.902 4079.474 1799.902 M 644.939 1775.033 885.1 1775.033 M 976.509 1775.033 1881.496 1775.033 M 1968.671 1775.033 2834.185 1775.033 M 2926.743 1775.033 3408.44 1775.033 M 3488.402 1775.033 3833.704 1775.033 M 3903.69 1775.033 4079.474 1775.033 M 644.939 1750.164 904.477 1750.164 M 1001.377 1750.164 1896.639 1750.164 M 1993.539 1750.164 2809.318 1750.164 M 2906.217 1750.164 3408.44 1750.164 M 3488.402 1750.164 3833.704 1750.164 M 3903.69 1750.164 4079.474 1750.164 M 644.939 1725.295 929.345 1725.295 M 1026.245 1725.295 1921.507 1725.295 M 2018.406 1725.295 2784.45 1725.295 M 2881.349 1725.295 3408.44 1725.295 M 3488.402 1725.295 3833.704 1725.295 M 3903.69 1725.295 4079.474 1725.295 M 644.939 1700.427 954.213 1700.427 M 1051.112 1700.427 1946.375 1700.427 M 2043.274 1700.427 2759.582 1700.427 M 2856.482 1700.427 3408.44 1700.427 M 3488.402 1700.427 3833.704 1700.427 M 3903.69 1700.427 4079.474 1700.427 M 644.939 1675.558 979.081 1675.558 M 1075.98 1675.558 1971.243 1675.558 M 2068.142 1675.558 2734.714 1675.558 M 2831.614 1675.558 3408.44 1675.558 M 3488.402 1675.558 3833.704 1675.558 M 3903.69 1675.558 4079.474 1675.558 M 644.939 1650.689 1003.948 1650.689 M 1100.848 1650.689 1996.11 1650.689 M 2093.01 1650.689 2709.847 1650.689 M 2806.746 1650.689 3408.44 1650.689 M 3488.402 1650.689 3833.704 1650.689 M 3903.69 1650.689 4079.474 1650.689 M 644.939 1625.82 1028.816 1625.82 M 1125.716 1625.82 2020.978 1625.82 M 2117.877 1625.82 2684.979 1625.82 M 2781.878 1625.82 3408.44 1625.82 M 3488.402 1625.82 3833.704 1625.82 M 3903.69 1625.82 4079.474 1625.82 M 644.939 1600.951 1053.684 1600.951 M 1150.583 1600.951 2045.846 1600.951 M 2142.745 1600.951 2660.111 1600.951 M 2757.011 1600.951 3408.44 1600.951 M 3488.402 1600.951 3833.704 1600.951 M 3903.69 1600.951 4079.474 1600.951 M 644.939 1576.083 1078.552 1576.083 M 1175.451 1576.083 2070.713 1576.083 M 2167.613 1576.083 2635.243 1576.083 M 2732.143 1576.083 3408.44 1576.083 M 3488.402 1576.083 3833.704 1576.083 M 3903.69 1576.083 4079.474 1576.083 M 644.939 1551.214 1103.419 1551.214 M 1200.319 1551.214 2095.581 1551.214 M 2192.481 1551.214 2610.376 1551.214 M 2707.275 1551.214 3408.44 1551.214 M 3488.402 1551.214 3833.704 1551.214 M 3903.69 1551.214 4079.474 1551.214 M 644.939 1526.345 1128.287 1526.345 M 1225.186 1526.345 2120.449 1526.345 M 2217.348 1526.345 2585.508 1526.345 M 2682.407 1526.345 3408.44 1526.345 M 3488.402 1526.345 3833.704 1526.345 M 3903.69 1526.345 4079.474 1526.345 M 644.939 1501.476 1153.155 1501.476 M 1250.054 1501.476 2145.317 1501.476 M 2242.216 1501.476 2560.64 1501.476 M 2657.54 1501.476 3408.44 1501.476 M 3488.402 1501.476 3833.704 1501.476 M 3903.69 1501.476 4079.474 1501.476 M 644.939 1476.608 1178.023 1476.608 M 1274.922 1476.608 2170.184 1476.608 M 2267.084 1476.608 2543.38 1476.608 M 2632.672 1476.608 3408.44 1476.608 M 3488.402 1476.608 3833.704 1476.608 M 3903.69 1476.608 4079.474 1476.608 M 644.939 1451.739 1202.89 1451.739 M 1299.79 1451.739 2195.052 1451.739 M 2291.952 1451.739 2542.698 1451.739 M 2612.684 1451.739 3408.44 1451.739 M 3488.402 1451.739 3833.704 1451.739 M 3903.69 1451.739 4079.474 1451.739 M 644.939 1426.87 1227.758 1426.87 M 1324.657 1426.87 2219.92 1426.87 M 2316.819 1426.87 2542.698 1426.87 M 2612.684 1426.87 3408.44 1426.87 M 3488.402 1426.87 3833.704 1426.87 M 3903.69 1426.87 4079.474 1426.87 M 644.939 1402.001 1252.626 1402.001 M 1349.525 1402.001 2244.788 1402.001 M 2341.687 1402.001 2542.698 1402.001 M 2612.684 1402.001 3408.44 1402.001 M 3488.402 1402.001 3833.704 1402.001 M 3903.69 1402.001 4079.474 1402.001 M 644.939 1377.133 1277.494 1377.133 M 1374.393 1377.133 2269.655 1377.133 M 2366.555 1377.133 2542.698 1377.133 M 2612.684 1377.133 3408.44 1377.133 M 3488.402 1377.133 3833.704 1377.133 M 3903.69 1377.133 4079.474 1377.133 M 644.939 1352.264 1302.361 1352.264 M 1399.261 1352.264 2294.523 1352.264 M 2391.423 1352.264 2542.698 1352.264 M 2612.684 1352.264 3408.44 1352.264 M 3488.402 1352.264 3833.704 1352.264 M 3903.69 1352.264 4079.474 1352.264 M 644.939 1327.395 1327.229 1327.395 M 1835.971 1327.395 2319.391 1327.395 M 2416.29 1327.395 2542.698 1327.395 M 2612.684 1327.395 3408.44 1327.395 M 3488.402 1327.395 3833.704 1327.395 M 3903.69 1327.395 4079.474 1327.395 M 644.939 1302.526 1352.097 1302.526 M 1860.839 1302.526 2344.259 1302.526 M 2441.158 1302.526 2542.698 1302.526 M 2612.684 1302.526 3408.44 1302.526 M 3488.402 1302.526 3833.704 1302.526 M 3903.69 1302.526 4079.474 1302.526 M 644.939 1277.657 1377.897 1277.657 M 1885.707 1277.657 2369.126 1277.657 M 2466.026 1277.657 2542.698 1277.657 M 2612.684 1277.657 3408.44 1277.657 M 3488.402 1277.657 3832.842 1277.657 M 3903.69 1277.657 4079.474 1277.657 M 644.939 1252.789 1813.675 1252.789 M 1910.574 1252.789 2393.994 1252.789 M 2490.894 1252.789 2542.698 1252.789 M 2612.684 1252.789 3408.44 1252.789 M 3488.402 1252.789 3807.975 1252.789 M 3901.286 1252.789 4079.474 1252.789 M 644.939 1227.92 1838.543 1227.92 M 1935.442 1227.92 2418.862 1227.92 M 2515.761 1227.92 2542.698 1227.92 M 2612.684 1227.92 3408.44 1227.92 M 3488.402 1227.92 3783.107 1227.92 M 3880.006 1227.92 4079.474 1227.92 M 644.939 1203.051 1863.411 1203.051 M 1960.31 1203.051 2443.73 1203.051 M 2612.684 1203.051 3408.44 1203.051 M 3488.402 1203.051 3758.239 1203.051 M 3855.139 1203.051 4079.474 1203.051 M 644.939 1178.182 1888.278 1178.182 M 1985.178 1178.182 2202.121 1178.182 M 2385.286 1178.182 2468.597 1178.182 M 2612.684 1178.182 3231.639 1178.182 M 3488.402 1178.182 3733.371 1178.182 M 3830.271 1178.182 4079.474 1178.182 M 644.939 1153.314 1913.146 1153.314 M 2010.045 1153.314 2202.121 1153.314 M 2385.286 1153.314 2493.465 1153.314 M 2612.684 1153.314 2804.509 1153.314 M 2980.641 1153.314 3231.639 1153.314 M 3488.402 1153.314 3708.504 1153.314 M 3805.403 1153.314 4079.474 1153.314 M 644.939 1128.445 1938.014 1128.445 M 2034.913 1128.445 2202.121 1128.445 M 2385.286 1128.445 2508.393 1128.445 M 2612.684 1128.445 2794.139 1128.445 M 3008.379 1128.445 3231.639 1128.445 M 3488.402 1128.445 3683.636 1128.445 M 3780.535 1128.445 4079.474 1128.445 M 644.939 1103.576 1962.882 1103.576 M 2059.781 1103.576 2202.121 1103.576 M 2385.286 1103.576 2508.393 1103.576 M 2612.684 1103.576 2746.556 1103.576 M 3033.247 1103.576 3231.639 1103.576 M 3488.402 1103.576 3658.768 1103.576 M 3755.668 1103.576 4079.474 1103.576 M 644.939 1078.707 701.911 1078.707 M 765.654 1078.707 1681.514 1078.707 M 1757.887 1078.707 1987.749 1078.707 M 2084.649 1078.707 2327.321 1078.707 M 2612.684 1078.707 2727.502 1078.707 M 3058.115 1078.707 3356.839 1078.707 M 3540.004 1078.707 3633.9 1078.707 M 3730.8 1078.707 4079.474 1078.707 M 644.939 1053.839 686.158 1053.839 M 781.407 1053.839 1670.964 1053.839 M 1768.437 1053.839 2012.617 1053.839 M 2109.516 1053.839 2327.321 1053.839 M 2612.684 1053.839 2726.497 1053.839 M 3082.983 1053.839 3356.839 1053.839 M 3540.004 1053.839 3609.033 1053.839 M 3705.932 1053.839 4079.474 1053.839 M 644.939 1028.97 686.84 1028.97 M 780.725 1028.97 1675.198 1028.97 M 1764.203 1028.97 2037.485 1028.97 M 2134.42 1028.97 2327.321 1028.97 M 2612.684 1028.97 2721.473 1028.97 M 3107.85 1028.97 3356.839 1028.97 M 3540.004 1028.97 3565.254 1028.97 M 3681.064 1028.97 4079.474 1028.97 M 644.939 1004.101 698.789 1004.101 M 768.776 1004.101 1684.707 1004.101 M 1754.694 1004.101 2062.352 1004.101 M 2159.288 1004.101 2327.321 1004.101 M 2612.684 1004.101 2696.605 1004.101 M 3132.718 1004.101 3356.839 1004.101 M 3656.197 1004.101 4079.474 1004.101 M 644.939 979.232 698.789 979.232 M 768.776 979.232 1684.707 979.232 M 1754.694 979.232 2087.22 979.232 M 2184.155 979.232 2202.121 979.232 M 2385.286 979.232 2508.393 979.232 M 2612.684 979.232 2673.388 979.232 M 2768.637 979.232 2901.576 979.232 M 3157.586 979.232 3231.639 979.232 M 3414.804 979.232 3547.384 979.232 M 3642.238 979.232 4079.474 979.232 M 644.939 954.364 676.972 954.364 M 908.186 954.364 1657.184 954.364 M 1888.398 954.364 2112.124 954.364 M 2385.286 954.364 2508.393 954.364 M 2612.684 954.364 2643.64 954.364 M 2874.854 954.364 2926.444 954.364 M 3414.804 954.364 3563.926 954.364 M 3858.189 954.364 4079.474 954.364 M 644.939 929.495 676.972 929.495 M 908.186 929.495 1657.184 929.495 M 1888.398 929.495 2136.992 929.495 M 2385.286 929.495 2508.393 929.495 M 2612.684 929.495 2643.64 929.495 M 2874.854 929.495 2951.311 929.495 M 3414.804 929.495 3611.042 929.495 M 3858.189 929.495 4079.474 929.495 M 644.939 904.626 676.972 904.626 M 908.186 904.626 1657.184 904.626 M 1888.398 904.626 2163.976 904.626 M 2385.286 904.626 2508.393 904.626 M 2612.684 904.626 2643.64 904.626 M 2874.854 904.626 2976.179 904.626 M 3414.804 904.626 3586.174 904.626 M 3858.189 904.626 4079.474 904.626 M 644.939 879.757 676.972 879.757 M 908.186 879.757 1657.184 879.757 M 1888.398 879.757 2327.321 879.757 M 2612.684 879.757 2643.64 879.757 M 2874.854 879.757 3001.047 879.757 M 3540.004 879.757 3563.46 879.757 M 3858.189 879.757 4079.474 879.757 M 644.939 854.888 676.972 854.888 M 908.186 854.888 1657.184 854.888 M 1888.398 854.888 2327.321 854.888 M 2611.967 854.888 2643.64 854.888 M 2874.854 854.888 3025.915 854.888 M 3540.004 854.888 3559.835 854.888 M 3858.189 854.888 4079.474 854.888 M 644.939 830.02 688.383 830.02 M 1083.265 830.02 1672.65 830.02 M 2067.496 830.02 2327.321 830.02 M 2594.455 830.02 2656.918 830.02 M 3540.004 830.02 3559.835 830.02 M 4035.995 830.02 4079.474 830.02 M 644.939 805.151 673.993 805.151 M 1097.654 805.151 1658.261 805.151 M 2081.921 805.151 2327.321 805.151 M 2569.588 805.151 2642.492 805.151 M 3540.004 805.151 3559.835 805.151 M 4050.42 805.151 4079.474 805.151 M 644.939 780.282 671.804 780.282 M 1099.843 780.282 1656.072 780.282 M 2084.11 780.282 2202.121 780.282 M 2544.72 780.282 2640.303 780.282 M 3068.342 780.282 3100.518 780.282 M 3414.804 780.282 3559.835 780.282 M 4052.609 780.282 4079.474 780.282 M 644.939 755.413 680.309 755.413 M 1091.338 755.413 1664.54 755.413 M 2075.606 755.413 2202.121 755.413 M 2519.852 755.413 2648.808 755.413 M 3059.837 755.413 3125.386 755.413 M 3414.804 755.413 3559.835 755.413 M 4044.105 755.413 4079.474 755.413 M 644.939 730.545 708.801 730.545 M 762.855 730.545 808.774 730.545 M 862.864 730.545 908.784 730.545 M 962.873 730.545 1008.793 730.545 M 1062.846 730.545 1693.032 730.545 M 1747.122 730.545 1793.042 730.545 M 1847.131 730.545 1893.051 730.545 M 1947.105 730.545 1993.06 730.545 M 2047.114 730.545 2202.121 730.545 M 2494.984 730.545 2677.3 730.545 M 2731.353 730.545 2777.309 730.545 M 2831.363 730.545 2877.282 730.545 M 2931.372 730.545 2977.292 730.545 M 3031.381 730.545 3150.253 730.545 M 3414.804 730.545 3559.835 730.545 M 3629.822 730.545 3661.531 730.545 M 3715.621 730.545 3761.54 730.545 M 3815.63 730.545 3861.55 730.545 M 3915.603 730.545 3961.559 730.545 M 4015.613 730.545 4079.474 730.545 M 644.939 705.676 2202.121 705.676 M 2468.574 705.676 3180.863 705.676 M 3414.804 705.676 3546.343 705.676 M 3629.822 705.676 4079.474 705.676 M 644.939 680.807 2327.321 680.807 M 2510.486 680.807 2539.792 680.807 M 2565.676 680.807 3356.839 680.807 M 3618.375 680.807 4079.474 680.807 M 644.939 655.938 2327.321 655.938 M 2597.003 655.938 3356.839 655.938 M 3593.507 655.938 4079.474 655.938 M 644.939 631.07 2327.321 631.07 M 2601.524 631.07 3356.839 631.07 M 3568.639 631.07 4079.474 631.07 M 644.939 606.201 2327.321 606.201 M 2591.333 606.201 3356.839 606.201 M 3543.628 606.201 4079.474 606.201 M 644.939 581.332 4079.474 581.332 M 644.939 556.463 4079.474 556.463 M 644.939 531.594 4079.474 531.594 M 644.939 506.726 4079.474 506.726 M 644.939 481.857 4079.474 481.857 M 644.939 456.988 4079.474 456.988 M 3412.336 687.319 3530.466 687.319 3562.303 719.134 3562.428 867.37 3563.226 872.405 3564.801 877.254 3567.116 881.797 3570.113 885.922 3617.315 933.266 3624.474 940.283 3628.608 943.285 3629.463 945.514 3629.463 960.191 3625.014 955.828 3619.112 951.54 3612.612 948.228 3605.674 945.974 3598.468 944.832 3591.172 944.832 3583.967 945.974 3577.028 948.228 3570.528 951.54 3564.626 955.828 3559.467 960.987 3555.179 966.889 3551.867 973.389 3549.613 980.328 3548.471 987.533 3548.471 994.829 3549.613 1002.034 3551.867 1008.973 3555.179 1015.473 3559.467 1021.375 3564.626 1026.534 3570.528 1030.822 3577.028 1034.134 3583.967 1036.389 3591.172 1037.53 3595.347 1037.653 3836.216 1278.528 3836.209 1781.758 3810.713 1781.776 3810.713 1905.626 3956.08 1905.626 3956.09 1915.821 3948.365 1921.416 3941.494 1928.287 3935.783 1936.148 3931.371 1944.806 3928.368 1954.048 3926.848 1963.645 3926.848 1973.363 3928.368 1982.96 3931.371 1992.202 3935.783 2000.86 3941.494 2008.721 3948.365 2015.592 3956.227 2021.304 3964.885 2025.715 3974.127 2028.718 3983.724 2030.238 3993.441 2030.238 4003.039 2028.718 4012.28 2025.715 4020.939 2021.304 4028.8 2015.592 4035.671 2008.721 4041.383 2000.86 4045.794 1992.202 4048.797 1982.96 4050.317 1973.363 4050.317 1963.645 4048.797 1954.048 4045.794 1944.806 4041.383 1936.148 4035.671 1928.287 4028.8 1921.416 4021.081 1915.799 4021.075 1905.599 4036.925 1905.626 4036.925 1781.776 3901.175 1781.776 3901.093 1262.512 3900.295 1257.477 3898.72 1252.627 3896.405 1248.085 3893.408 1243.96 3846.206 1196.616 3641.311 991.721 3640.74 983.908 3639.234 977.514 3855.676 977.501 3855.676 853.651 3721.074 853.651 3721.075 840.129 3728.8 834.49 3735.671 827.619 3738.575 823.935 3743.065 829.388 3748.357 834.482 3754.214 838.914 3760.554 842.621 3767.289 845.551 3774.324 847.663 3781.559 848.927 3788.893 849.326 3796.223 848.854 3803.445 847.517 3810.458 845.334 3817.163 842.337 3823.466 838.567 3829.279 834.077 3834.519 828.93 3838.575 823.935 3844.795 831.189 3852.184 837.5 3860.469 842.577 3869.447 846.296 3878.895 848.564 3888.583 849.327 3898.27 848.564 3907.719 846.296 3916.696 842.577 3924.981 837.5 3932.37 831.189 3938.575 823.935 3943.065 829.388 3948.357 834.482 3954.214 838.914 3960.554 842.621 3967.289 845.551 3974.324 847.663 3981.559 848.927 3988.893 849.326 3996.223 848.854 4003.445 847.517 4010.458 845.334 4017.163 842.337 4023.466 838.567 4029.279 834.077 4034.519 828.93 4039.113 823.199 4042.995 816.965 4046.113 810.314 4048.421 803.342 4049.888 796.145 4050.492 788.825 4050.263 781.897 4049.177 774.633 4047.239 767.548 4044.476 760.743 4040.927 754.313 4036.641 748.348 4031.679 742.933 4026.111 738.143 4020.015 734.047 4013.476 730.7 4006.588 728.152 3999.446 726.437 3992.152 725.579 3984.807 725.592 3977.515 726.473 3970.379 728.212 3963.5 730.784 3956.973 734.152 3950.89 738.269 3945.338 743.077 3940.394 748.509 3938.585 750.875 3932.37 743.614 3924.981 737.303 3916.696 732.226 3907.719 728.507 3898.27 726.239 3888.583 725.476 3878.895 726.239 3869.447 728.507 3860.469 732.226 3852.184 737.303 3844.795 743.614 3838.59 750.869 3834.24 745.567 3828.966 740.456 3823.124 736.005 3816.795 732.276 3810.07 729.324 3803.043 727.188 3795.812 725.9 3788.479 725.476 3781.148 725.924 3773.922 727.237 3766.901 729.396 3760.186 732.371 3753.87 736.12 3748.043 740.591 3742.786 745.72 3738.585 750.875 3732.37 743.614 3724.981 737.303 3716.696 732.226 3707.719 728.507 3698.27 726.239 3688.583 725.476 3678.895 726.239 3669.447 728.507 3660.469 732.226 3652.184 737.303 3644.795 743.614 3638.484 751.003 3633.407 759.288 3629.688 768.266 3627.42 777.714 3627.312 763.77 3627.212 703.15 3626.415 698.114 3624.839 693.265 3622.524 688.722 3619.527 684.597 3572.326 637.254 3541.043 606.113 3539.031 604.528 3537.516 595.455 3537.516 584.335 3359.335 584.335 3359.335 684.344 3234.138 684.335 3234.138 704.394 3189.792 704.508 3184.756 705.306 3179.907 706.881 3175.364 709.196 3171.239 712.193 3123.896 759.395 2902.762 980.529 2767.409 980.529 2767.39 977.501 2872.343 977.501 2872.343 853.651 2736.808 853.651 2736.823 840.114 2744.548 834.49 2751.419 827.619 2754.323 823.935 2758.813 829.388 2764.105 834.482 2769.962 838.914 2776.302 842.621 2783.037 845.551 2790.072 847.663 2797.307 848.927 2804.641 849.326 2811.971 848.854 2819.193 847.517 2826.206 845.334 2832.911 842.337 2839.214 838.567 2845.027 834.077 2850.267 828.93 2854.323 823.935 2860.543 831.189 2867.932 837.5 2876.217 842.577 2885.195 846.296 2894.643 848.564 2904.331 849.327 2914.018 848.564 2923.467 846.296 2932.444 842.577 2940.729 837.5 2948.118 831.189 2954.323 823.935 2958.813 829.388 2964.105 834.482 2969.962 838.914 2976.302 842.621 2983.037 845.551 2990.072 847.663 2997.307 848.927 3004.641 849.326 3011.971 848.854 3019.193 847.517 3026.206 845.334 3032.911 842.337 3039.214 838.567 3045.027 834.077 3050.267 828.93 3054.861 823.199 3058.744 816.965 3061.861 810.314 3064.169 803.342 3065.636 796.145 3066.24 788.825 3066.011 781.897 3064.925 774.633 3062.987 767.548 3060.224 760.743 3056.675 754.313 3052.389 748.348 3047.427 742.933 3041.859 738.143 3035.763 734.047 3029.225 730.7 3022.336 728.152 3015.194 726.437 3007.9 725.579 3000.555 725.592 2993.263 726.473 2986.127 728.212 2979.248 730.784 2972.721 734.152 2966.638 738.269 2961.086 743.077 2956.142 748.509 2954.333 750.875 2948.118 743.614 2940.729 737.303 2932.444 732.226 2923.467 728.507 2914.018 726.239 2904.331 725.476 2894.643 726.239 2885.195 728.507 2876.217 732.226 2867.932 737.303 2860.543 743.614 2854.338 750.869 2849.988 745.567 2844.714 740.456 2838.872 736.005 2832.543 732.276 2825.818 729.324 2818.791 727.188 2811.56 725.9 2804.227 725.476 2796.896 725.924 2789.67 727.237 2782.649 729.396 2775.934 732.371 2769.618 736.12 2763.791 740.591 2758.534 745.72 2754.333 750.875 2748.118 743.614 2740.729 737.303 2732.444 732.226 2723.467 728.507 2714.018 726.239 2704.331 725.476 2694.643 726.239 2685.195 728.507 2676.217 732.226 2667.932 737.303 2660.543 743.614 2654.232 751.003 2649.155 759.288 2645.436 768.266 2643.168 777.714 2642.406 787.402 2643.168 797.089 2645.436 806.538 2649.155 815.515 2654.232 823.8 2660.543 831.189 2667.932 837.5 2671.833 840.107 2671.839 853.68 2646.13 853.651 2646.13 977.501 2674.945 977.501 2677.831 982.257 2681.143 986.134 2732.878 1037.728 2734.89 1039.313 2732.836 1043.394 2730.045 1050.134 2728.341 1057.228 2727.769 1064.501 2728.341 1071.774 2730.045 1078.868 2732.836 1085.608 2736.648 1091.829 2741.386 1097.376 2746.934 1102.114 2753.154 1105.926 2759.894 1108.718 2766.988 1110.421 2774.261 1110.993 2781.534 1110.421 2788.628 1108.718 2795.368 1105.926 2801.891 1101.876 2798.684 1109.414 2796.981 1116.508 2796.408 1123.781 2796.981 1131.054 2798.684 1138.148 2801.475 1144.888 2805.287 1151.108 2810.025 1156.656 2815.573 1161.394 2821.793 1165.206 2828.533 1167.997 2835.627 1169.701 2842.9 1170.273 2850.173 1169.701 2857.267 1167.997 2864.007 1165.206 2870.228 1161.394 2876.133 1156.268 2967.131 1156.173 2972.167 1155.375 2977.016 1153.8 2981.558 1151.485 2985.683 1148.488 3033.027 1101.286 3166.012 968.301 3234.172 968.319 3234.138 987.319 3359.338 987.319 3359.335 1084.344 3234.138 1084.335 3234.138 1187.319 3410.931 1187.319 3410.933 1945.814 3231.511 2125.268 2841.819 2125.249 2841.823 2017.805 2848.118 2012.29 2854.429 2004.901 2859.506 1996.616 2863.225 1987.639 2865.494 1978.19 2866.256 1968.503 2865.494 1958.815 2863.225 1949.367 2859.506 1940.389 2854.429 1932.104 2848.118 1924.715 2840.729 1918.404 2832.444 1913.327 2823.467 1909.608 2814.018 1907.34 2804.331 1906.577 2794.643 1907.34 2785.195 1909.608 2776.217 1913.327 2767.932 1918.404 2760.543 1924.715 2754.232 1932.104 2749.155 1940.389 2745.436 1949.367 2743.168 1958.815 2742.406 1968.503 2743.168 1978.19 2745.436 1987.639 2749.155 1996.616 2754.232 2004.901 2760.543 2012.29 2766.843 2017.743 2766.839 2125.281 1857.598 2125.249 1857.571 2017.805 1863.866 2012.29 1870.177 2004.901 1875.254 1996.616 1878.973 1987.639 1881.242 1978.19 1882.004 1968.503 1881.242 1958.815 1878.973 1949.367 1875.254 1940.389 1870.177 1932.104 1863.866 1924.715 1856.477 1918.404 1848.192 1913.327 1839.215 1909.608 1829.766 1907.34 1820.079 1906.577 1810.392 1907.34 1800.943 1909.608 1791.965 1913.327 1783.68 1918.404 1776.291 1924.715 1769.98 1932.104 1764.903 1940.389 1761.184 1949.367 1758.916 1958.815 1758.154 1968.503 1758.916 1978.19 1761.184 1987.639 1764.903 1996.616 1769.98 2004.901 1776.291 2012.29 1782.591 2017.743 1782.587 2125.281 1045.59 2125.249 897.203 1976.857 897.752 1968.503 896.99 1958.815 894.721 1949.367 891.003 1940.389 885.925 1932.104 879.614 1924.715 872.225 1918.404 863.94 1913.327 854.963 1909.608 845.514 1907.34 835.827 1906.577 826.14 1907.34 816.691 1909.608 807.713 1913.327 799.428 1918.404 792.039 1924.715 785.728 1932.104 780.651 1940.389 776.932 1949.367 774.664 1958.815 773.902 1968.503 774.664 1978.19 776.932 1987.639 780.651 1996.616 785.728 2004.901 792.039 2012.29 799.428 2018.601 807.713 2023.678 816.691 2027.397 826.14 2029.665 835.827 2030.428 844.137 2029.828 1005.716 2191.251 1010.476 2194.709 1015.718 2197.38 1021.313 2199.198 1027.124 2200.118 1075.997 2200.234 3250.001 2200.118 3255.811 2199.198 3261.407 2197.38 3266.649 2194.709 3271.408 2191.251 3306.049 2156.774 3456.846 2005.976 3739.316 2005.995 3744.795 2012.29 3752.184 2018.601 3760.469 2023.678 3769.447 2027.397 3778.895 2029.665 3788.583 2030.428 3798.27 2029.665 3807.719 2027.397 3816.696 2023.678 3824.981 2018.601 3832.37 2012.29 3838.681 2004.901 3843.758 1996.616 3847.477 1987.639 3849.745 1978.19 3850.508 1968.503 3849.745 1958.815 3847.477 1949.367 3843.758 1940.389 3838.681 1932.104 3832.37 1924.715 3824.981 1918.404 3816.696 1913.327 3807.719 1909.608 3798.27 1907.34 3788.583 1906.577 3778.895 1907.34 3769.447 1909.608 3760.469 1913.327 3752.184 1918.404 3744.795 1924.715 3739.343 1931.015 3485.9 1931.01 3485.917 1087.344 3537.516 1087.319 3537.516 984.335 3412.316 984.335 3412.319 887.31 3537.516 887.319 3537.516 784.335 3412.316 784.335 3412.319 687.31 M 2382.813 687.319 2507.994 687.319 2507.994 667.977 2519.52 667.993 2525.413 673.114 2531.633 676.926 2538.373 679.718 2545.467 681.421 2552.74 681.993 2560.013 681.421 2567.107 679.718 2573.847 676.926 2580.068 673.114 2585.615 668.376 2590.353 662.829 2594.165 656.608 2596.957 649.868 2598.66 642.774 2599.232 635.501 2598.66 628.228 2596.957 621.134 2594.165 614.394 2590.353 608.174 2585.615 602.626 2580.068 597.888 2573.847 594.077 2567.107 591.285 2560.013 589.582 2552.74 589.009 2545.467 589.582 2538.373 591.285 2531.633 594.077 2525.413 597.888 2519.507 603.014 2507.993 603.009 2507.994 584.335 2329.812 584.335 2329.812 684.344 2204.616 684.335 2204.616 787.319 2329.816 787.319 2329.812 884.344 2204.616 884.334 2204.616 900.949 2178.911 901.069 2173.875 901.866 2169.026 903.442 2164.483 905.756 2160.359 908.753 2113.015 955.955 1796.729 1272.242 1395.792 1272.348 1390.756 1273.146 1385.907 1274.721 1381.364 1277.036 1377.239 1280.033 1329.896 1327.235 893.994 1763.279 890.997 1767.403 888.682 1771.946 887.106 1776.795 886.607 1779.308 884.826 1781.775 860.713 1781.775 860.713 1905.626 1003.335 1905.709 1003.335 1915.792 995.61 1921.416 988.738 1928.287 983.027 1936.148 978.615 1944.806 975.613 1954.048 974.092 1963.645 974.092 1973.363 975.613 1982.96 978.615 1992.202 983.027 2000.86 988.738 2008.721 995.61 2015.592 1003.471 2021.304 1012.129 2025.715 1021.371 2028.718 1030.968 2030.238 1040.685 2030.238 1050.283 2028.718 1059.525 2025.715 1068.183 2021.304 1076.044 2015.592 1082.915 2008.721 1088.627 2000.86 1093.038 1992.202 1096.041 1982.96 1097.561 1973.363 1097.561 1963.645 1096.041 1954.048 1093.038 1944.806 1088.627 1936.148 1082.915 1928.287 1076.044 1921.416 1068.325 1915.799 1068.319 1905.599 1086.925 1905.626 1086.925 1781.775 967.252 1781.775 1411.779 1337.253 1812.73 1337.132 1817.766 1336.335 1822.615 1334.759 1827.158 1332.444 1831.283 1329.447 1878.627 1282.246 2194.913 965.959 2204.606 965.953 2204.616 987.319 2329.816 987.319 2329.813 1084.344 2204.616 1084.334 2204.616 1187.319 2382.797 1187.319 2382.797 1087.324 2507.994 1087.319 2507.994 984.334 2382.794 984.334 2382.797 887.31 2504.317 887.319 2510.903 893.894 2510.888 1138.393 1891.554 1757.878 1888.557 1762.003 1886.242 1766.546 1884.667 1771.395 1883.869 1776.431 1883.769 1781.743 1860.713 1781.775 1860.713 1905.626 1987.563 1905.626 1987.587 1915.823 1979.862 1921.416 1972.99 1928.287 1967.279 1936.148 1962.867 1944.806 1959.865 1954.048 1958.344 1963.645 1958.344 1973.363 1959.865 1982.96 1962.867 1992.202 1967.279 2000.86 1972.99 2008.721 1979.862 2015.592 1987.723 2021.304 1996.381 2025.715 2005.623 2028.718 2015.22 2030.238 2024.937 2030.238 2034.535 2028.718 2043.776 2025.715 2052.435 2021.304 2060.296 2015.592 2067.167 2008.721 2072.879 2000.86 2077.29 1992.202 2080.293 1982.96 2081.813 1973.363 2081.813 1963.645 2080.293 1954.048 2077.29 1944.806 2072.879 1936.148 2067.167 1928.287 2060.296 1921.416 2052.577 1915.799 2052.571 1905.599 2086.925 1905.626 2086.925 1781.775 1959.429 1781.775 2545.192 1196 2545.309 1472.65 2546.106 1477.686 2547.682 1482.535 2549.997 1487.078 2552.994 1491.203 2600.196 1538.547 2843.405 1781.756 2835.713 1781.776 2835.713 1905.626 2971.821 1905.626 2971.838 1915.755 2964.114 1921.416 2957.242 1928.287 2951.531 1936.148 2947.119 1944.806 2944.117 1954.048 2942.596 1963.645 2942.596 1973.363 2944.117 1982.96 2947.119 1992.202 2951.531 2000.86 2957.242 2008.721 2964.114 2015.592 2971.975 2021.304 2980.633 2025.715 2989.875 2028.718 2999.472 2030.238 3009.189 2030.238 3018.787 2028.718 3028.028 2025.715 3036.687 2021.304 3044.548 2015.592 3051.419 2008.721 3057.131 2000.86 3061.542 1992.202 3064.545 1982.96 3066.065 1973.363 3066.065 1963.645 3064.545 1954.048 3061.542 1944.806 3057.131 1936.148 3051.419 1928.287 3044.548 1921.416 3036.829 1915.799 3036.823 1905.599 3061.925 1905.626 3061.925 1781.776 2925.888 1781.776 2924.603 1776.06 2922.652 1771.35 2919.988 1767.003 2916.669 1763.119 2610.184 1456.634 2610.093 859.152 2609.295 854.116 2607.72 849.267 2605.405 844.724 2602.408 840.599 2555.206 793.255 2470.883 709.074 2466.758 706.077 2462.215 703.762 2457.366 702.186 2452.33 701.389 2382.785 701.289 2382.797 687.31 M 985.819 750.869 979.614 743.614 972.225 737.303 963.94 732.226 954.963 728.507 945.514 726.239 935.827 725.476 926.14 726.239 916.691 728.507 907.713 732.226 899.428 737.303 892.039 743.614 885.834 750.869 881.484 745.567 876.21 740.456 870.368 736.005 864.039 732.276 857.314 729.324 850.287 727.188 843.056 725.9 835.723 725.476 828.392 725.924 821.166 727.237 814.145 729.396 807.43 732.371 801.114 736.12 795.287 740.591 790.03 745.72 785.829 750.875 779.614 743.614 772.225 737.303 763.94 732.226 754.963 728.507 745.514 726.239 735.827 725.476 726.14 726.239 716.691 728.507 707.713 732.226 699.428 737.303 692.039 743.614 685.728 751.003 680.651 759.288 676.932 768.266 674.664 777.714 673.902 787.402 674.664 797.089 676.932 806.538 680.651 815.515 685.728 823.8 692.039 831.189 699.428 837.5 703.329 840.107 703.335 853.68 679.464 853.651 679.464 977.501 701.317 977.501 701.289 1009.403 696.168 1015.334 692.356 1021.554 689.564 1028.295 687.861 1035.388 687.289 1042.661 687.861 1049.934 689.564 1057.028 692.356 1063.768 696.168 1069.989 700.906 1075.536 706.453 1080.274 712.674 1084.086 719.414 1086.878 726.508 1088.581 733.781 1089.154 741.054 1088.581 748.148 1086.878 754.888 1084.086 761.108 1080.274 766.656 1075.536 771.394 1069.989 775.206 1063.768 777.997 1057.028 779.701 1049.934 780.273 1042.661 779.701 1035.388 777.997 1028.295 775.206 1021.554 771.394 1015.334 766.268 1009.428 766.273 977.532 905.676 977.501 905.676 853.651 768.347 853.651 768.319 840.138 776.044 834.49 782.915 827.619 785.819 823.935 790.309 829.388 795.601 834.482 801.458 838.914 807.799 842.621 814.534 845.551 821.568 847.663 828.803 848.927 836.137 849.326 843.467 848.854 850.689 847.517 857.702 845.334 864.407 842.337 870.71 838.567 876.523 834.077 881.763 828.93 885.819 823.935 892.039 831.189 899.428 837.5 907.713 842.577 916.691 846.296 926.14 848.564 935.827 849.327 945.514 848.564 954.963 846.296 963.94 842.577 972.225 837.5 979.614 831.189 985.819 823.935 990.309 829.388 995.601 834.482 1001.458 838.914 1007.799 842.621 1014.534 845.551 1021.568 847.663 1028.803 848.927 1036.137 849.326 1043.467 848.854 1050.689 847.517 1057.702 845.334 1064.407 842.337 1070.71 838.567 1076.523 834.077 1081.763 828.93 1086.357 823.199 1090.24 816.965 1093.357 810.314 1095.665 803.342 1097.132 796.145 1097.736 788.825 1097.507 781.897 1096.421 774.633 1094.483 767.548 1091.72 760.743 1088.171 754.313 1083.885 748.348 1078.923 742.933 1073.355 738.143 1067.259 734.047 1060.721 730.7 1053.832 728.152 1046.69 726.437 1039.396 725.579 1032.051 725.592 1024.759 726.473 1017.624 728.212 1010.744 730.784 1004.217 734.152 998.134 738.269 992.582 743.077 987.638 748.509 985.829 750.875 M 1970.071 750.869 1963.866 743.614 1956.477 737.303 1948.192 732.226 1939.215 728.507 1929.766 726.239 1920.079 725.476 1910.392 726.239 1900.943 728.507 1891.965 732.226 1883.68 737.303 1876.291 743.614 1870.086 750.869 1865.736 745.567 1860.462 740.456 1854.62 736.005 1848.291 732.276 1841.566 729.324 1834.539 727.188 1827.308 725.9 1819.975 725.476 1812.644 725.924 1805.418 727.237 1798.397 729.396 1791.682 732.371 1785.366 736.12 1779.539 740.591 1774.282 745.72 1770.081 750.875 1763.866 743.614 1756.477 737.303 1748.192 732.226 1739.215 728.507 1729.766 726.239 1720.079 725.476 1710.392 726.239 1700.943 728.507 1691.965 732.226 1683.68 737.303 1676.291 743.614 1669.98 751.003 1664.903 759.288 1661.184 768.266 1658.916 777.714 1658.154 787.402 1658.916 797.089 1661.184 806.538 1664.903 815.515 1669.98 823.8 1676.291 831.189 1683.68 837.5 1687.581 840.107 1687.587 853.68 1659.671 853.651 1659.671 977.501 1687.194 977.501 1687.209 1015.618 1682.088 1021.573 1678.276 1027.793 1675.484 1034.533 1673.781 1041.627 1673.209 1048.9 1673.781 1056.173 1675.484 1063.267 1678.276 1070.007 1682.088 1076.228 1686.826 1081.775 1692.373 1086.513 1698.594 1090.325 1705.334 1093.117 1712.428 1094.82 1719.701 1095.392 1726.974 1094.82 1734.068 1093.117 1740.808 1090.325 1747.028 1086.513 1752.576 1081.775 1757.314 1076.228 1761.126 1070.007 1763.917 1063.267 1765.621 1056.173 1766.193 1048.9 1765.621 1041.627 1763.917 1034.533 1761.126 1027.793 1757.314 1021.573 1752.188 1015.667 1752.193 977.527 1885.884 977.501 1885.884 853.651 1752.574 853.651 1752.571 840.132 1760.296 834.49 1767.167 827.619 1770.071 823.935 1774.561 829.388 1779.853 834.482 1785.71 838.914 1792.051 842.621 1798.786 845.551 1805.82 847.663 1813.055 848.927 1820.389 849.326 1827.719 848.854 1834.941 847.517 1841.954 845.334 1848.659 842.337 1854.962 838.567 1860.775 834.077 1866.015 828.93 1870.071 823.935 1876.291 831.189 1883.68 837.5 1891.965 842.577 1900.943 846.296 1910.392 848.564 1920.079 849.327 1929.766 848.564 1939.215 846.296 1948.192 842.577 1956.477 837.5 1963.866 831.189 1970.071 823.935 1974.561 829.388 1979.853 834.482 1985.71 838.914 1992.051 842.621 1998.786 845.551 2005.82 847.663 2013.055 848.927 2020.389 849.326 2027.719 848.854 2034.941 847.517 2041.954 845.334 2048.659 842.337 2054.962 838.567 2060.775 834.077 2066.015 828.93 2070.609 823.199 2074.492 816.965 2077.609 810.314 2079.917 803.342 2081.384 796.145 2081.988 788.825 2081.759 781.897 2080.673 774.633 2078.735 767.548 2075.972 760.743 2072.423 754.313 2068.137 748.348 2063.175 742.933 2057.607 738.143 2051.511 734.047 2044.973 730.7 2038.084 728.152 2030.942 726.437 2023.648 725.579 2016.303 725.592 2009.011 726.473 2001.875 728.212 1994.996 730.784 1988.469 734.152 1982.386 738.269 1976.834 743.077 1971.89 748.509 1970.081 750.875 M 3627.31 796.165 3628.368 801.858 3631.371 811.099 3635.783 819.757 3641.494 827.619 3648.365 834.49 3656.085 840.107 3656.09 853.68 3629.577 853.626 3627.319 851.368 3627.312 796.389 M 642.445 433.76 4082.016 433.76 4081.988 2322.153 642.394 2322.146 642.421 433.753" fill="none" stroke-width="25"/><path d="M 3323.228 1187.283 3323.228 1084.37 M 3234.174 1135.827 3323.228 1135.827 M 2293.706 1187.283 2293.706 1084.37 M 2204.652 1135.827 2382.761 1135.827 M 835.827 849.291 835.827 725.512 M 1035.827 849.291 1035.827 725.512 M 1035.827 787.402 1097.716 787.402 M 847.688 977.465 847.688 853.687 M 847.688 915.576 905.64 915.576 M 1820.079 849.291 1820.079 725.512 M 2020.079 849.291 2020.079 725.512 M 2020.079 787.402 2081.968 787.402 M 1827.895 977.465 1827.895 853.687 M 1827.895 915.576 1885.848 915.576 M 2804.331 849.291 2804.331 725.512 M 3004.331 849.291 3004.331 725.512 M 3004.331 787.402 3066.22 787.402 M 2814.354 977.465 2814.354 853.687 M 2814.354 915.576 2872.307 915.576 M 3788.583 849.291 3788.583 725.512 M 3988.583 849.291 3988.583 725.512 M 3988.583 787.402 4050.472 787.402 M 3797.688 977.465 3797.688 853.687 M 3797.688 915.576 3855.64 915.576" fill="none" stroke-width="20"/><use xlink:href="#cZNswwq19LVCXtNCAn2J_pad-18" x="3448.425" y="635.827"/><use xlink:href="#cZNswwq19LVCXtNCAn2J_pad-18" x="3323.228" y="735.827"/><use xlink:href="#cZNswwq19LVCXtNCAn2J_pad-18" x="3448.425" y="835.827"/><use xlink:href="#cZNswwq19LVCXtNCAn2J_pad-18" x="3323.228" y="935.827"/><use xlink:href="#cZNswwq19LVCXtNCAn2J_pad-18" x="3448.425" y="1035.827"/><use xlink:href="#cZNswwq19LVCXtNCAn2J_pad-18" x="3323.228" y="1135.827"/><use xlink:href="#cZNswwq19LVCXtNCAn2J_pad-18" x="2418.903" y="635.827"/><use xlink:href="#cZNswwq19LVCXtNCAn2J_pad-18" x="2293.706" y="735.827"/><use xlink:href="#cZNswwq19LVCXtNCAn2J_pad-18" x="2418.903" y="835.827"/><use xlink:href="#cZNswwq19LVCXtNCAn2J_pad-18" x="2293.706" y="935.827"/><use xlink:href="#cZNswwq19LVCXtNCAn2J_pad-18" x="2418.903" y="1035.827"/><use xlink:href="#cZNswwq19LVCXtNCAn2J_pad-18" x="2293.706" y="1135.827"/><use xlink:href="#cZNswwq19LVCXtNCAn2J_pad-33" x="918.701" y="1843.701"/><use xlink:href="#cZNswwq19LVCXtNCAn2J_pad-33" x="1028.937" y="1843.701"/><use xlink:href="#cZNswwq19LVCXtNCAn2J_pad-35" x="935.827" y="787.402"/><use xlink:href="#cZNswwq19LVCXtNCAn2J_pad-35" x="735.827" y="787.402"/><use xlink:href="#cZNswwq19LVCXtNCAn2J_pad-35" x="835.827" y="787.402"/><use xlink:href="#cZNswwq19LVCXtNCAn2J_pad-35" x="1035.827" y="787.402"/><use xlink:href="#cZNswwq19LVCXtNCAn2J_pad-35" x="835.827" y="1968.503"/><use xlink:href="#cZNswwq19LVCXtNCAn2J_pad-35" x="1035.827" y="1968.504"/><use xlink:href="#cZNswwq19LVCXtNCAn2J_pad-33" x="847.688" y="915.576"/><use xlink:href="#cZNswwq19LVCXtNCAn2J_pad-33" x="737.451" y="915.576"/><use xlink:href="#cZNswwq19LVCXtNCAn2J_pad-33" x="1918.701" y="1843.701"/><use xlink:href="#cZNswwq19LVCXtNCAn2J_pad-33" x="2028.937" y="1843.701"/><use xlink:href="#cZNswwq19LVCXtNCAn2J_pad-35" x="1920.079" y="787.402"/><use xlink:href="#cZNswwq19LVCXtNCAn2J_pad-35" x="1720.079" y="787.402"/><use xlink:href="#cZNswwq19LVCXtNCAn2J_pad-35" x="1820.079" y="787.402"/><use xlink:href="#cZNswwq19LVCXtNCAn2J_pad-35" x="2020.079" y="787.402"/><use xlink:href="#cZNswwq19LVCXtNCAn2J_pad-35" x="1820.079" y="1968.503"/><use xlink:href="#cZNswwq19LVCXtNCAn2J_pad-35" x="2020.079" y="1968.504"/><use xlink:href="#cZNswwq19LVCXtNCAn2J_pad-33" x="1827.895" y="915.576"/><use xlink:href="#cZNswwq19LVCXtNCAn2J_pad-33" x="1717.659" y="915.576"/><use xlink:href="#cZNswwq19LVCXtNCAn2J_pad-33" x="2893.701" y="1843.701"/><use xlink:href="#cZNswwq19LVCXtNCAn2J_pad-33" x="3003.937" y="1843.701"/><use xlink:href="#cZNswwq19LVCXtNCAn2J_pad-35" x="2904.331" y="787.402"/><use xlink:href="#cZNswwq19LVCXtNCAn2J_pad-35" x="2704.331" y="787.402"/><use xlink:href="#cZNswwq19LVCXtNCAn2J_pad-35" x="2804.331" y="787.402"/><use xlink:href="#cZNswwq19LVCXtNCAn2J_pad-35" x="3004.331" y="787.402"/><use xlink:href="#cZNswwq19LVCXtNCAn2J_pad-35" x="2804.331" y="1968.503"/><use xlink:href="#cZNswwq19LVCXtNCAn2J_pad-35" x="3004.331" y="1968.504"/><use xlink:href="#cZNswwq19LVCXtNCAn2J_pad-33" x="2814.354" y="915.576"/><use xlink:href="#cZNswwq19LVCXtNCAn2J_pad-33" x="2704.118" y="915.576"/><use xlink:href="#cZNswwq19LVCXtNCAn2J_pad-33" x="3868.701" y="1843.701"/><use xlink:href="#cZNswwq19LVCXtNCAn2J_pad-33" x="3978.937" y="1843.701"/><use xlink:href="#cZNswwq19LVCXtNCAn2J_pad-35" x="3888.583" y="787.402"/><use xlink:href="#cZNswwq19LVCXtNCAn2J_pad-35" x="3688.583" y="787.402"/><use xlink:href="#cZNswwq19LVCXtNCAn2J_pad-35" x="3788.583" y="787.402"/><use xlink:href="#cZNswwq19LVCXtNCAn2J_pad-35" x="3988.583" y="787.402"/><use xlink:href="#cZNswwq19LVCXtNCAn2J_pad-35" x="3788.583" y="1968.503"/><use xlink:href="#cZNswwq19LVCXtNCAn2J_pad-35" x="3988.583" y="1968.504"/><use xlink:href="#cZNswwq19LVCXtNCAn2J_pad-33" x="3797.688" y="915.576"/><use xlink:href="#cZNswwq19LVCXtNCAn2J_pad-33" x="3687.451" y="915.576"/></g></svg>