<svg version="1.1" xmlns="http://www.w3.org/2000/svg" xmlns:xlink="http://www.w3.org/1999/xlink" stroke-linecap="round" stroke-linejoin="round" stroke-width="0" fill-rule="evenodd" width="3.8189in" height="1.8504in" viewBox="452.75 452.75 3818.9 1850.4" id="tXpkak0LK86hh7I5NXnc"><defs><circle cx="0" cy="0" r="9.55" id="tXpkak0LK86hh7I5NXnc_pad-1"/><circle cx="0" cy="0" r="19.7" id="tXpkak0LK86hh7I5NXnc_pad-2"/><circle cx="0" cy="0" r="59.05" id="tXpkak0LK86hh7I5NXnc_pad-3"/></defs><g transform="translate(0,2755.9) scale(1,-1)" fill="currentColor" stroke="currentColor"><use xlink:href="#tXpkak0LK86hh7I5NXnc_pad-1" x="3594.8" y="991.2"/><use xlink:href="#tXpkak0LK86hh7I5NXnc_pad-1" x="2842.9" y="1123.8"/><use xlink:href="#tXpkak0LK86hh7I5NXnc_pad-1" x="2774.3" y="1064.5"/><use xlink:href="#tXpkak0LK86hh7I5NXnc_pad-1" x="2552.7" y="635.5"/><use xlink:href="#tXpkak0LK86hh7I5NXnc_pad-1" x="1719.7" y="1048.9"/><use xlink:href="#tXpkak0LK86hh7I5NXnc_pad-1" x="733.8" y="1042.7"/><use xlink:href="#tXpkak0LK86hh7I5NXnc_pad-2" x="935.8" y="787.4"/><use xlink:href="#tXpkak0LK86hh7I5NXnc_pad-2" x="835.8" y="787.4"/><use xlink:href="#tXpkak0LK86hh7I5NXnc_pad-2" x="735.8" y="787.4"/><use xlink:href="#tXpkak0LK86hh7I5NXnc_pad-2" x="1035.8" y="787.4"/><use xlink:href="#tXpkak0LK86hh7I5NXnc_pad-2" x="1720.1" y="787.4"/><use xlink:href="#tXpkak0LK86hh7I5NXnc_pad-2" x="1820.1" y="787.4"/><use xlink:href="#tXpkak0LK86hh7I5NXnc_pad-2" x="1920.1" y="787.4"/><use xlink:href="#tXpkak0LK86hh7I5NXnc_pad-2" x="2020.1" y="787.4"/><use xlink:href="#tXpkak0LK86hh7I5NXnc_pad-2" x="2704.3" y="787.4"/><use xlink:href="#tXpkak0LK86hh7I5NXnc_pad-2" x="2804.3" y="787.4"/><use xlink:href="#tXpkak0LK86hh7I5NXnc_pad-2" x="2904.3" y="787.4"/><use xlink:href="#tXpkak0LK86hh7I5NXnc_pad-2" x="3004.3" y="787.4"/><use xlink:href="#tXpkak0LK86hh7I5NXnc_pad-2" x="3688.6" y="787.4"/><use xlink:href="#tXpkak0LK86hh7I5NXnc_pad-2" x="3788.6" y="787.4"/><use xlink:href="#tXpkak0LK86hh7I5NXnc_pad-2" x="3888.6" y="787.4"/><use xlink:href="#tXpkak0LK86hh7I5NXnc_pad-2" x="3988.6" y="787.4"/><use xlink:href="#tXpkak0LK86hh7I5NXnc_pad-2" x="3988.6" y="1968.5"/><use xlink:href="#tXpkak0LK86hh7I5NXnc_pad-2" x="3788.6" y="1968.5"/><use xlink:href="#tXpkak0LK86hh7I5NXnc_pad-2" x="3004.3" y="1968.5"/><use xlink:href="#tXpkak0LK86hh7I5NXnc_pad-2" x="2804.3" y="1968.5"/><use xlink:href="#tXpkak0LK86hh7I5NXnc_pad-2" x="2020.1" y="1968.5"/><use xlink:href="#tXpkak0LK86hh7I5NXnc_pad-2" x="1820.1" y="1968.5"/><use xlink:href="#tXpkak0LK86hh7I5NXnc_pad-2" x="1035.8" y="1968.5"/><use xlink:href="#tXpkak0LK86hh7I5NXnc_pad-2" x="835.8" y="1968.5"/><use xlink:href="#tXpkak0LK86hh7I5NXnc_pad-3" x="511.8" y="511.8"/><use xlink:href="#tXpkak0LK86hh7I5NXnc_pad-3" x="511.8" y="2244.1"/><use xlink:href="#tXpkak0LK86hh7I5NXnc_pad-3" x="4212.6" y="2244.1"/><use xlink:href="#tXpkak0LK86hh7I5NXnc_pad-3" x="4212.6" y="511.8"/></g></svg>