<svg version="1.1" xmlns="http://www.w3.org/2000/svg" xmlns:xlink="http://www.w3.org/1999/xlink" stroke-linecap="round" stroke-linejoin="round" stroke-width="0" fill-rule="evenodd" width="3.464622in" height="1.9134in" viewBox="629.894 421.253 3464.622 1913.4" id="YBKBN3xaMi9GIqFxpbzY"><defs><circle cx="0" cy="0" r="20" id="YBKBN3xaMi9GIqFxpbzY_pad-36"/><circle cx="0" cy="0" r="35.433" id="YBKBN3xaMi9GIqFxpbzY_pad-35"/></defs><g transform="translate(0,2755.906) scale(1,-1)" fill="currentColor" stroke="currentColor"><path d="M 3594.82 991.181 3594.82 994.301 3568.301 967.781 2733.701 967.781 2552.74 786.82 2552.74 635.501 M 2842.9 1123.781 2842.9 1105.062 2824.181 1123.781 814.9 1123.781 733.781 1042.661 M 2774.261 1064.501 1735.302 1064.501 1719.701 1048.9" fill="none" stroke-width="12"/><use xlink:href="#YBKBN3xaMi9GIqFxpbzY_pad-36" x="3594.82" y="991.181"/><use xlink:href="#YBKBN3xaMi9GIqFxpbzY_pad-36" x="2552.74" y="635.501"/><use xlink:href="#YBKBN3xaMi9GIqFxpbzY_pad-36" x="2842.9" y="1123.781"/><use xlink:href="#YBKBN3xaMi9GIqFxpbzY_pad-36" x="733.781" y="1042.661"/><use xlink:href="#YBKBN3xaMi9GIqFxpbzY_pad-36" x="2774.261" y="1064.501"/><use xlink:href="#YBKBN3xaMi9GIqFxpbzY_pad-36" x="1719.701" y="1048.9"/><path d="M 644.939 2297.277 4079.474 2297.277 M 644.939 2272.408 4079.474 2272.408 M 644.939 2247.539 4079.474 2247.539 M 644.939 2222.671 4079.474 2222.671 M 644.939 2197.802 4079.474 2197.802 M 644.939 2172.933 4079.474 2172.933 M 644.939 2148.064 4079.474 2148.064 M 644.939 2123.196 4079.474 2123.196 M 644.939 2098.327 4079.474 2098.327 M 644.939 2073.458 4079.474 2073.458 M 644.939 2048.589 4079.474 2048.589 M 644.939 2023.72 805.294 2023.72 M 866.345 2023.72 1005.276 2023.72 M 1066.363 2023.72 1789.561 2023.72 M 1850.612 2023.72 1989.543 2023.72 M 2050.595 2023.72 2773.792 2023.72 M 2834.879 2023.72 2973.811 2023.72 M 3034.862 2023.72 3758.06 2023.72 M 3819.111 2023.72 3958.042 2023.72 M 4019.129 2023.72 4079.474 2023.72 M 644.939 1998.852 779.349 1998.852 M 892.289 1998.852 979.332 1998.852 M 1092.307 1998.852 1763.617 1998.852 M 1876.556 1998.852 1963.599 1998.852 M 2076.575 1998.852 2747.848 1998.852 M 2860.824 1998.852 2947.867 1998.852 M 3060.806 1998.852 3732.115 1998.852 M 3845.055 1998.852 3932.098 1998.852 M 4045.074 1998.852 4079.474 1998.852 M 644.939 1973.983 771.634 1973.983 M 900.004 1973.983 971.653 1973.983 M 1100.022 1973.983 1755.902 1973.983 M 1884.271 1973.983 1955.884 1973.983 M 2084.254 1973.983 2740.133 1973.983 M 2868.503 1973.983 2940.151 1973.983 M 3068.521 1973.983 3724.4 1973.983 M 3852.77 1973.983 3924.383 1973.983 M 4052.753 1973.983 4079.474 1973.983 M 644.939 1949.114 774.505 1949.114 M 897.133 1949.114 974.523 1949.114 M 1097.152 1949.114 1758.772 1949.114 M 1881.401 1949.114 1958.755 1949.114 M 2081.383 1949.114 2743.004 1949.114 M 2865.632 1949.114 2943.022 1949.114 M 3065.651 1949.114 3727.271 1949.114 M 3849.899 1949.114 3927.254 1949.114 M 4049.882 1949.114 4079.474 1949.114 M 644.939 1924.245 790.007 1924.245 M 881.631 1924.245 990.025 1924.245 M 1081.65 1924.245 1774.274 1924.245 M 1865.899 1924.245 1974.257 1924.245 M 2065.881 1924.245 2758.506 1924.245 M 2850.13 1924.245 2958.524 1924.245 M 3050.149 1924.245 3742.773 1924.245 M 3834.397 1924.245 3942.756 1924.245 M 4034.38 1924.245 4079.474 1924.245 M 644.939 1899.377 4079.474 1899.377 M 644.939 1874.508 4079.474 1874.508 M 644.939 1849.639 4079.474 1849.639 M 644.939 1824.77 4079.474 1824.77 M 644.939 1799.902 4079.474 1799.902 M 644.939 1775.033 4079.474 1775.033 M 644.939 1750.164 4079.474 1750.164 M 644.939 1725.295 4079.474 1725.295 M 644.939 1700.427 4079.474 1700.427 M 644.939 1675.558 4079.474 1675.558 M 644.939 1650.689 4079.474 1650.689 M 644.939 1625.82 4079.474 1625.82 M 644.939 1600.951 4079.474 1600.951 M 644.939 1576.083 4079.474 1576.083 M 644.939 1551.214 4079.474 1551.214 M 644.939 1526.345 4079.474 1526.345 M 644.939 1501.476 4079.474 1501.476 M 644.939 1476.608 4079.474 1476.608 M 644.939 1451.739 4079.474 1451.739 M 644.939 1426.87 4079.474 1426.87 M 644.939 1402.001 4079.474 1402.001 M 644.939 1377.133 4079.474 1377.133 M 644.939 1352.264 4079.474 1352.264 M 644.939 1327.395 4079.474 1327.395 M 644.939 1302.526 4079.474 1302.526 M 644.939 1277.657 4079.474 1277.657 M 644.939 1252.789 4079.474 1252.789 M 644.939 1227.92 4079.474 1227.92 M 644.939 1203.051 4079.474 1203.051 M 644.939 1178.182 4079.474 1178.182 M 644.939 1153.314 798.834 1153.314 M 2881.313 1153.314 4079.474 1153.314 M 644.939 1128.445 771.096 1128.445 M 2891.648 1128.445 4079.474 1128.445 M 644.939 1103.576 746.228 1103.576 M 2887.27 1103.576 4079.474 1103.576 M 644.939 1078.707 701.911 1078.707 M 818.26 1078.707 1681.514 1078.707 M 2864.412 1078.707 4079.474 1078.707 M 644.939 1053.839 686.158 1053.839 M 793.392 1053.839 1670.964 1053.839 M 2821.997 1053.839 4079.474 1053.839 M 644.939 1028.97 686.84 1028.97 M 780.725 1028.97 1675.198 1028.97 M 1764.203 1028.97 2741.784 1028.97 M 2806.746 1028.97 3565.254 1028.97 M 3624.403 1028.97 4079.474 1028.97 M 644.939 1004.101 705.32 1004.101 M 762.245 1004.101 1704.767 1004.101 M 1734.634 1004.101 3547.671 1004.101 M 3641.986 1004.101 4079.474 1004.101 M 644.939 979.232 2696.713 979.232 M 3642.238 979.232 4079.474 979.232 M 644.939 954.364 2671.845 954.364 M 3625.695 954.364 4079.474 954.364 M 644.939 929.495 2646.978 929.495 M 2743.877 929.495 4079.474 929.495 M 644.939 904.626 2622.11 904.626 M 2719.009 904.626 4079.474 904.626 M 644.939 879.757 2597.242 879.757 M 2694.142 879.757 4079.474 879.757 M 644.939 854.888 2572.374 854.888 M 2669.274 854.888 4079.474 854.888 M 644.939 830.02 688.383 830.02 M 1083.265 830.02 1672.65 830.02 M 2067.496 830.02 2547.507 830.02 M 2644.406 830.02 2656.918 830.02 M 3051.763 830.02 3641.149 830.02 M 4035.995 830.02 4079.474 830.02 M 644.939 805.151 673.993 805.151 M 1097.654 805.151 1658.261 805.151 M 2081.921 805.151 2523.428 805.151 M 2619.538 805.151 2642.492 805.151 M 3066.153 805.151 3626.759 805.151 M 4050.42 805.151 4079.474 805.151 M 644.939 780.282 671.804 780.282 M 1099.843 780.282 1656.072 780.282 M 2084.11 780.282 2517.759 780.282 M 2594.671 780.282 2640.303 780.282 M 3068.342 780.282 3624.571 780.282 M 4052.609 780.282 4079.474 780.282 M 644.939 755.413 680.309 755.413 M 1091.338 755.413 1664.54 755.413 M 2075.606 755.413 2517.759 755.413 M 2587.745 755.413 2648.808 755.413 M 3059.837 755.413 3633.075 755.413 M 4044.105 755.413 4079.474 755.413 M 644.939 730.545 708.801 730.545 M 762.855 730.545 808.774 730.545 M 862.864 730.545 908.784 730.545 M 962.873 730.545 1008.793 730.545 M 1062.846 730.545 1693.032 730.545 M 1747.122 730.545 1793.042 730.545 M 1847.131 730.545 1893.051 730.545 M 1947.105 730.545 1993.06 730.545 M 2047.114 730.545 2517.759 730.545 M 2587.745 730.545 2677.3 730.545 M 2731.353 730.545 2777.309 730.545 M 2831.363 730.545 2877.282 730.545 M 2931.372 730.545 2977.292 730.545 M 3031.381 730.545 3661.531 730.545 M 3715.621 730.545 3761.54 730.545 M 3815.63 730.545 3861.55 730.545 M 3915.603 730.545 3961.559 730.545 M 4015.613 730.545 4079.474 730.545 M 644.939 705.676 2517.759 705.676 M 2587.745 705.676 4079.474 705.676 M 644.939 680.807 2517.759 680.807 M 2587.745 680.807 4079.474 680.807 M 644.939 655.938 2508.465 655.938 M 2597.003 655.938 4079.474 655.938 M 644.939 631.07 2503.943 631.07 M 2601.524 631.07 4079.474 631.07 M 644.939 606.201 2514.134 606.201 M 2591.333 606.201 4079.474 606.201 M 644.939 581.332 4079.474 581.332 M 644.939 556.463 4079.474 556.463 M 644.939 531.594 4079.474 531.594 M 644.939 506.726 4079.474 506.726 M 644.939 481.857 4079.474 481.857 M 644.939 456.988 4079.474 456.988 M 985.819 750.869 979.614 743.614 972.225 737.303 963.94 732.226 954.963 728.507 945.514 726.239 935.827 725.476 926.14 726.239 916.691 728.507 907.713 732.226 899.428 737.303 892.039 743.614 885.834 750.869 881.484 745.567 876.21 740.456 870.368 736.005 864.039 732.276 857.314 729.324 850.287 727.188 843.056 725.9 835.723 725.476 828.392 725.924 821.166 727.237 814.145 729.396 807.43 732.371 801.114 736.12 795.287 740.591 790.03 745.72 785.829 750.875 779.614 743.614 772.225 737.303 763.94 732.226 754.963 728.507 745.514 726.239 735.827 725.476 726.14 726.239 716.691 728.507 707.713 732.226 699.428 737.303 692.039 743.614 685.728 751.003 680.651 759.288 676.932 768.266 674.664 777.714 673.902 787.402 674.664 797.089 676.932 806.538 680.651 815.515 685.728 823.8 692.039 831.189 699.428 837.5 707.713 842.577 716.691 846.296 726.14 848.564 735.827 849.327 745.514 848.564 754.963 846.296 763.94 842.577 772.225 837.5 779.614 831.189 785.819 823.935 790.309 829.388 795.601 834.482 801.458 838.914 807.799 842.621 814.534 845.551 821.568 847.663 828.803 848.927 836.137 849.326 843.467 848.854 850.689 847.517 857.702 845.334 864.407 842.337 870.71 838.567 876.523 834.077 881.763 828.93 885.819 823.935 892.039 831.189 899.428 837.5 907.713 842.577 916.691 846.296 926.14 848.564 935.827 849.327 945.514 848.564 954.963 846.296 963.94 842.577 972.225 837.5 979.614 831.189 985.819 823.935 990.309 829.388 995.601 834.482 1001.458 838.914 1007.799 842.621 1014.534 845.551 1021.568 847.663 1028.803 848.927 1036.137 849.326 1043.467 848.854 1050.689 847.517 1057.702 845.334 1064.407 842.337 1070.71 838.567 1076.523 834.077 1081.763 828.93 1086.357 823.199 1090.24 816.965 1093.357 810.314 1095.665 803.342 1097.132 796.145 1097.736 788.825 1097.507 781.897 1096.421 774.633 1094.483 767.548 1091.72 760.743 1088.171 754.313 1083.885 748.348 1078.923 742.933 1073.355 738.143 1067.259 734.047 1060.721 730.7 1053.832 728.152 1046.69 726.437 1039.396 725.579 1032.051 725.592 1024.759 726.473 1017.624 728.212 1010.744 730.784 1004.217 734.152 998.134 738.269 992.582 743.077 987.638 748.509 985.829 750.875 M 897.561 1963.644 896.041 1954.046 893.038 1944.805 888.627 1936.147 882.915 1928.285 876.044 1921.414 868.183 1915.703 859.525 1911.291 850.283 1908.288 840.685 1906.768 830.968 1906.768 821.371 1908.288 812.129 1911.291 803.471 1915.703 795.61 1921.414 788.738 1928.285 783.027 1936.147 778.615 1944.805 775.613 1954.046 774.092 1963.644 774.092 1973.361 775.613 1982.959 778.615 1992.2 783.027 2000.858 788.738 2008.72 795.61 2015.591 803.471 2021.303 812.129 2025.714 821.371 2028.717 830.968 2030.237 840.685 2030.237 850.283 2028.717 859.525 2025.714 868.183 2021.303 876.044 2015.591 882.915 2008.72 888.627 2000.858 893.038 1992.2 896.041 1982.959 897.561 1973.361 897.561 1963.644 M 1097.561 1963.645 1096.041 1954.048 1093.038 1944.806 1088.627 1936.148 1082.915 1928.287 1076.044 1921.416 1068.183 1915.704 1059.525 1911.293 1050.283 1908.29 1040.685 1906.77 1030.968 1906.77 1021.371 1908.29 1012.129 1911.293 1003.471 1915.704 995.61 1921.416 988.738 1928.287 983.027 1936.148 978.615 1944.806 975.613 1954.048 974.092 1963.645 974.092 1973.363 975.613 1982.96 978.615 1992.202 983.027 2000.86 988.738 2008.721 995.61 2015.592 1003.471 2021.304 1012.129 2025.715 1021.371 2028.718 1030.968 2030.238 1040.685 2030.238 1050.283 2028.718 1059.525 2025.715 1068.183 2021.304 1076.044 2015.592 1082.915 2008.721 1088.627 2000.86 1093.038 1992.202 1096.041 1982.96 1097.561 1973.363 1097.561 1963.645 M 1970.071 750.869 1963.866 743.614 1956.477 737.303 1948.192 732.226 1939.215 728.507 1929.766 726.239 1920.079 725.476 1910.392 726.239 1900.943 728.507 1891.965 732.226 1883.68 737.303 1876.291 743.614 1870.086 750.869 1865.736 745.567 1860.462 740.456 1854.62 736.005 1848.291 732.276 1841.566 729.324 1834.539 727.188 1827.308 725.9 1819.975 725.476 1812.644 725.924 1805.418 727.237 1798.397 729.396 1791.682 732.371 1785.366 736.12 1779.539 740.591 1774.282 745.72 1770.081 750.875 1763.866 743.614 1756.477 737.303 1748.192 732.226 1739.215 728.507 1729.766 726.239 1720.079 725.476 1710.392 726.239 1700.943 728.507 1691.965 732.226 1683.68 737.303 1676.291 743.614 1669.98 751.003 1664.903 759.288 1661.184 768.266 1658.916 777.714 1658.154 787.402 1658.916 797.089 1661.184 806.538 1664.903 815.515 1669.98 823.8 1676.291 831.189 1683.68 837.5 1691.965 842.577 1700.943 846.296 1710.392 848.564 1720.079 849.327 1729.766 848.564 1739.215 846.296 1748.192 842.577 1756.477 837.5 1763.866 831.189 1770.071 823.935 1774.561 829.388 1779.853 834.482 1785.71 838.914 1792.051 842.621 1798.786 845.551 1805.82 847.663 1813.055 848.927 1820.389 849.326 1827.719 848.854 1834.941 847.517 1841.954 845.334 1848.659 842.337 1854.962 838.567 1860.775 834.077 1866.015 828.93 1870.071 823.935 1876.291 831.189 1883.68 837.5 1891.965 842.577 1900.943 846.296 1910.392 848.564 1920.079 849.327 1929.766 848.564 1939.215 846.296 1948.192 842.577 1956.477 837.5 1963.866 831.189 1970.071 823.935 1974.561 829.388 1979.853 834.482 1985.71 838.914 1992.051 842.621 1998.786 845.551 2005.82 847.663 2013.055 848.927 2020.389 849.326 2027.719 848.854 2034.941 847.517 2041.954 845.334 2048.659 842.337 2054.962 838.567 2060.775 834.077 2066.015 828.93 2070.609 823.199 2074.492 816.965 2077.609 810.314 2079.917 803.342 2081.384 796.145 2081.988 788.825 2081.759 781.897 2080.673 774.633 2078.735 767.548 2075.972 760.743 2072.423 754.313 2068.137 748.348 2063.175 742.933 2057.607 738.143 2051.511 734.047 2044.973 730.7 2038.084 728.152 2030.942 726.437 2023.648 725.579 2016.303 725.592 2009.011 726.473 2001.875 728.212 1994.996 730.784 1988.469 734.152 1982.386 738.269 1976.834 743.077 1971.89 748.509 1970.081 750.875 M 1881.813 1963.644 1880.293 1954.046 1877.29 1944.805 1872.879 1936.147 1867.167 1928.285 1860.296 1921.414 1852.435 1915.703 1843.776 1911.291 1834.535 1908.288 1824.937 1906.768 1815.22 1906.768 1805.623 1908.288 1796.381 1911.291 1787.723 1915.703 1779.862 1921.414 1772.99 1928.285 1767.279 1936.147 1762.867 1944.805 1759.865 1954.046 1758.344 1963.644 1758.344 1973.361 1759.865 1982.959 1762.867 1992.2 1767.279 2000.858 1772.99 2008.72 1779.862 2015.591 1787.723 2021.303 1796.381 2025.714 1805.623 2028.717 1815.22 2030.237 1824.937 2030.237 1834.535 2028.717 1843.776 2025.714 1852.435 2021.303 1860.296 2015.591 1867.167 2008.72 1872.879 2000.858 1877.29 1992.2 1880.293 1982.959 1881.813 1973.361 1881.813 1963.644 M 2081.813 1963.645 2080.293 1954.048 2077.29 1944.806 2072.879 1936.148 2067.167 1928.287 2060.296 1921.416 2052.435 1915.704 2043.776 1911.293 2034.535 1908.29 2024.937 1906.77 2015.22 1906.77 2005.623 1908.29 1996.381 1911.293 1987.723 1915.704 1979.862 1921.416 1972.99 1928.287 1967.279 1936.148 1962.867 1944.806 1959.865 1954.048 1958.344 1963.645 1958.344 1973.363 1959.865 1982.96 1962.867 1992.202 1967.279 2000.86 1972.99 2008.721 1979.862 2015.592 1987.723 2021.304 1996.381 2025.715 2005.623 2028.718 2015.22 2030.238 2024.937 2030.238 2034.535 2028.718 2043.776 2025.715 2052.435 2021.304 2060.296 2015.592 2067.167 2008.721 2072.879 2000.86 2077.29 1992.202 2080.293 1982.96 2081.813 1973.363 2081.813 1963.645 M 2954.323 750.869 2948.118 743.614 2940.729 737.303 2932.444 732.226 2923.467 728.507 2914.018 726.239 2904.331 725.476 2894.643 726.239 2885.195 728.507 2876.217 732.226 2867.932 737.303 2860.543 743.614 2854.338 750.869 2849.988 745.567 2844.714 740.456 2838.872 736.005 2832.543 732.276 2825.818 729.324 2818.791 727.188 2811.56 725.9 2804.227 725.476 2796.896 725.924 2789.67 727.237 2782.649 729.396 2775.934 732.371 2769.618 736.12 2763.791 740.591 2758.534 745.72 2754.333 750.875 2748.118 743.614 2740.729 737.303 2732.444 732.226 2723.467 728.507 2714.018 726.239 2704.331 725.476 2694.643 726.239 2685.195 728.507 2676.217 732.226 2667.932 737.303 2660.543 743.614 2654.232 751.003 2649.155 759.288 2645.436 768.266 2643.168 777.714 2642.406 787.402 2643.168 797.089 2645.436 806.538 2649.155 815.515 2654.232 823.8 2660.543 831.189 2667.932 837.5 2676.217 842.577 2685.195 846.296 2694.643 848.564 2704.331 849.327 2714.018 848.564 2723.467 846.296 2732.444 842.577 2740.729 837.5 2748.118 831.189 2754.323 823.935 2758.813 829.388 2764.105 834.482 2769.962 838.914 2776.302 842.621 2783.037 845.551 2790.072 847.663 2797.307 848.927 2804.641 849.326 2811.971 848.854 2819.193 847.517 2826.206 845.334 2832.911 842.337 2839.214 838.567 2845.027 834.077 2850.267 828.93 2854.323 823.935 2860.543 831.189 2867.932 837.5 2876.217 842.577 2885.195 846.296 2894.643 848.564 2904.331 849.327 2914.018 848.564 2923.467 846.296 2932.444 842.577 2940.729 837.5 2948.118 831.189 2954.323 823.935 2958.813 829.388 2964.105 834.482 2969.962 838.914 2976.302 842.621 2983.037 845.551 2990.072 847.663 2997.307 848.927 3004.641 849.326 3011.971 848.854 3019.193 847.517 3026.206 845.334 3032.911 842.337 3039.214 838.567 3045.027 834.077 3050.267 828.93 3054.861 823.199 3058.744 816.965 3061.861 810.314 3064.169 803.342 3065.636 796.145 3066.24 788.825 3066.011 781.897 3064.925 774.633 3062.987 767.548 3060.224 760.743 3056.675 754.313 3052.389 748.348 3047.427 742.933 3041.859 738.143 3035.763 734.047 3029.225 730.7 3022.336 728.152 3015.194 726.437 3007.9 725.579 3000.555 725.592 2993.263 726.473 2986.127 728.212 2979.248 730.784 2972.721 734.152 2966.638 738.269 2961.086 743.077 2956.142 748.509 2954.333 750.875 M 2866.065 1963.644 2864.545 1954.046 2861.542 1944.805 2857.131 1936.147 2851.419 1928.285 2844.548 1921.414 2836.687 1915.703 2828.028 1911.291 2818.787 1908.288 2809.189 1906.768 2799.472 1906.768 2789.875 1908.288 2780.633 1911.291 2771.975 1915.703 2764.114 1921.414 2757.242 1928.285 2751.531 1936.147 2747.119 1944.805 2744.117 1954.046 2742.596 1963.644 2742.596 1973.361 2744.117 1982.959 2747.119 1992.2 2751.531 2000.858 2757.242 2008.72 2764.114 2015.591 2771.975 2021.303 2780.633 2025.714 2789.875 2028.717 2799.472 2030.237 2809.189 2030.237 2818.787 2028.717 2828.028 2025.714 2836.687 2021.303 2844.548 2015.591 2851.419 2008.72 2857.131 2000.858 2861.542 1992.2 2864.545 1982.959 2866.065 1973.361 2866.065 1963.644 M 3066.065 1963.645 3064.545 1954.048 3061.542 1944.806 3057.131 1936.148 3051.419 1928.287 3044.548 1921.416 3036.687 1915.704 3028.028 1911.293 3018.787 1908.29 3009.189 1906.77 2999.472 1906.77 2989.875 1908.29 2980.633 1911.293 2971.975 1915.704 2964.114 1921.416 2957.242 1928.287 2951.531 1936.148 2947.119 1944.806 2944.117 1954.048 2942.596 1963.645 2942.596 1973.363 2944.117 1982.96 2947.119 1992.202 2951.531 2000.86 2957.242 2008.721 2964.114 2015.592 2971.975 2021.304 2980.633 2025.715 2989.875 2028.718 2999.472 2030.238 3009.189 2030.238 3018.787 2028.718 3028.028 2025.715 3036.687 2021.304 3044.548 2015.592 3051.419 2008.721 3057.131 2000.86 3061.542 1992.202 3064.545 1982.96 3066.065 1973.363 3066.065 1963.645 M 3938.575 750.869 3932.37 743.614 3924.981 737.303 3916.696 732.226 3907.719 728.507 3898.27 726.239 3888.583 725.476 3878.895 726.239 3869.447 728.507 3860.469 732.226 3852.184 737.303 3844.795 743.614 3838.59 750.869 3834.24 745.567 3828.966 740.456 3823.124 736.005 3816.795 732.276 3810.07 729.324 3803.043 727.188 3795.812 725.9 3788.479 725.476 3781.148 725.924 3773.922 727.237 3766.901 729.396 3760.186 732.371 3753.87 736.12 3748.043 740.591 3742.786 745.72 3738.585 750.875 3732.37 743.614 3724.981 737.303 3716.696 732.226 3707.719 728.507 3698.27 726.239 3688.583 725.476 3678.895 726.239 3669.447 728.507 3660.469 732.226 3652.184 737.303 3644.795 743.614 3638.484 751.003 3633.407 759.288 3629.688 768.266 3627.42 777.714 3626.657 787.402 3627.42 797.089 3629.688 806.538 3633.407 815.515 3638.484 823.8 3644.795 831.189 3652.184 837.5 3660.469 842.577 3669.447 846.296 3678.895 848.564 3688.583 849.327 3698.27 848.564 3707.719 846.296 3716.696 842.577 3724.981 837.5 3732.37 831.189 3738.575 823.935 3743.065 829.388 3748.357 834.482 3754.214 838.914 3760.554 842.621 3767.289 845.551 3774.324 847.663 3781.559 848.927 3788.893 849.326 3796.223 848.854 3803.445 847.517 3810.458 845.334 3817.163 842.337 3823.466 838.567 3829.279 834.077 3834.519 828.93 3838.575 823.935 3844.795 831.189 3852.184 837.5 3860.469 842.577 3869.447 846.296 3878.895 848.564 3888.583 849.327 3898.27 848.564 3907.719 846.296 3916.696 842.577 3924.981 837.5 3932.37 831.189 3938.575 823.935 3943.065 829.388 3948.357 834.482 3954.214 838.914 3960.554 842.621 3967.289 845.551 3974.324 847.663 3981.559 848.927 3988.893 849.326 3996.223 848.854 4003.445 847.517 4010.458 845.334 4017.163 842.337 4023.466 838.567 4029.279 834.077 4034.519 828.93 4039.113 823.199 4042.995 816.965 4046.113 810.314 4048.421 803.342 4049.888 796.145 4050.492 788.825 4050.263 781.897 4049.177 774.633 4047.239 767.548 4044.476 760.743 4040.927 754.313 4036.641 748.348 4031.679 742.933 4026.111 738.143 4020.015 734.047 4013.476 730.7 4006.588 728.152 3999.446 726.437 3992.152 725.579 3984.807 725.592 3977.515 726.473 3970.379 728.212 3963.5 730.784 3956.973 734.152 3950.89 738.269 3945.338 743.077 3940.394 748.509 3938.585 750.875 M 3850.317 1963.644 3848.797 1954.046 3845.794 1944.805 3841.383 1936.147 3835.671 1928.285 3828.8 1921.414 3820.939 1915.703 3812.28 1911.291 3803.039 1908.288 3793.441 1906.768 3783.724 1906.768 3774.127 1908.288 3764.885 1911.291 3756.227 1915.703 3748.365 1921.414 3741.494 1928.285 3735.783 1936.147 3731.371 1944.805 3728.368 1954.046 3726.848 1963.644 3726.848 1973.361 3728.368 1982.959 3731.371 1992.2 3735.783 2000.858 3741.494 2008.72 3748.365 2015.591 3756.227 2021.303 3764.885 2025.714 3774.127 2028.717 3783.724 2030.237 3793.441 2030.237 3803.039 2028.717 3812.28 2025.714 3820.939 2021.303 3828.8 2015.591 3835.671 2008.72 3841.383 2000.858 3845.794 1992.2 3848.797 1982.959 3850.317 1973.361 3850.317 1963.644 M 4050.317 1963.645 4048.797 1954.048 4045.794 1944.806 4041.383 1936.148 4035.671 1928.287 4028.8 1921.416 4020.939 1915.704 4012.28 1911.293 4003.039 1908.29 3993.441 1906.77 3983.724 1906.77 3974.127 1908.29 3964.885 1911.293 3956.227 1915.704 3948.365 1921.416 3941.494 1928.287 3935.783 1936.148 3931.371 1944.806 3928.368 1954.048 3926.848 1963.645 3926.848 1973.363 3928.368 1982.96 3931.371 1992.202 3935.783 2000.86 3941.494 2008.721 3948.365 2015.592 3956.227 2021.304 3964.885 2025.715 3974.127 2028.718 3983.724 2030.238 3993.441 2030.238 4003.039 2028.718 4012.28 2025.715 4020.939 2021.304 4028.8 2015.592 4035.671 2008.721 4041.383 2000.86 4045.794 1992.202 4048.797 1982.96 4050.317 1973.363 4050.317 1963.645 M 3559.114 935.289 2747.163 935.289 2585.224 773.354 2585.232 668.725 2590.353 662.829 2594.165 656.608 2596.957 649.868 2598.66 642.774 2599.232 635.501 2598.66 628.228 2596.957 621.134 2594.165 614.394 2590.353 608.174 2585.615 602.626 2580.068 597.888 2573.847 594.077 2567.107 591.285 2560.013 589.582 2552.74 589.009 2545.467 589.582 2538.373 591.285 2531.633 594.077 2525.413 597.888 2519.865 602.626 2515.127 608.174 2511.315 614.394 2508.524 621.134 2506.82 628.228 2506.248 635.501 2506.82 642.774 2508.524 649.868 2511.315 656.608 2515.127 662.829 2520.253 668.734 2520.348 789.37 2521.146 794.405 2522.721 799.254 2525.036 803.797 2528.033 807.922 2575.235 855.266 2712.599 992.488 2716.724 995.485 2721.267 997.8 2726.116 999.375 2731.151 1000.173 2798.005 1000.273 3549.241 1000.273 3550.604 1005.548 3553.395 1012.288 3557.207 1018.508 3561.945 1024.056 3567.493 1028.794 3573.713 1032.606 3580.453 1035.398 3587.547 1037.101 3594.82 1037.673 3602.093 1037.101 3609.187 1035.398 3615.927 1032.606 3622.148 1028.794 3627.695 1024.056 3632.433 1018.508 3636.245 1012.288 3639.037 1005.548 3640.74 998.454 3641.312 991.181 3640.74 983.908 3639.037 976.814 3636.245 970.074 3632.433 963.854 3627.695 958.306 3622.148 953.568 3615.927 949.756 3609.187 946.964 3602.093 945.261 3594.82 944.689 3591.276 944.805 3587.399 941.494 3583.052 938.83 3578.341 936.879 3573.383 935.689 3568.301 935.289 3559.114 935.289 M 2867.614 1083.968 2864.002 1080.354 2859.877 1077.358 2855.334 1075.043 2850.485 1073.467 2845.45 1072.67 2840.351 1072.67 2835.315 1073.467 2830.466 1075.043 2825.923 1077.358 2821.798 1080.354 2815.573 1086.168 2815.271 1086.406 2818.478 1078.868 2820.181 1071.774 2820.753 1064.501 2820.181 1057.228 2818.478 1050.134 2815.686 1043.394 2811.874 1037.174 2807.136 1031.626 2801.589 1026.888 2795.368 1023.077 2788.628 1020.285 2781.534 1018.582 2774.261 1018.009 2766.988 1018.582 2759.894 1020.285 2753.154 1023.077 2746.934 1026.888 2741.028 1032.014 1763.009 1032.009 1759.342 1024.608 1755.054 1018.706 1749.895 1013.547 1743.993 1009.259 1737.493 1005.947 1730.554 1003.693 1723.349 1002.551 1716.053 1002.551 1708.847 1003.693 1701.909 1005.947 1695.409 1009.259 1689.507 1013.547 1684.348 1018.706 1680.06 1024.608 1676.748 1031.108 1674.493 1038.047 1673.352 1045.253 1673.352 1052.548 1674.493 1059.754 1676.748 1066.692 1680.06 1073.192 1684.348 1079.094 1689.507 1084.253 1695.409 1088.541 1700.679 1091.286 828.339 1091.289 780.251 1043.181 779.701 1035.388 777.997 1028.295 775.206 1021.554 771.394 1015.334 766.656 1009.787 761.108 1005.048 754.888 1001.237 748.148 998.445 741.054 996.742 733.781 996.169 726.508 996.742 719.414 998.445 712.674 1001.237 706.453 1005.048 700.906 1009.787 696.168 1015.334 692.356 1021.554 689.564 1028.295 687.861 1035.388 687.289 1042.661 687.861 1049.934 689.564 1057.028 692.356 1063.768 696.168 1069.989 700.906 1075.536 706.453 1080.274 712.674 1084.086 719.414 1086.878 726.508 1088.581 734.308 1089.133 793.798 1148.488 797.923 1151.485 802.466 1153.8 807.315 1155.375 812.351 1156.173 879.205 1156.273 2809.666 1156.273 2815.573 1161.394 2821.793 1165.206 2828.533 1167.997 2835.627 1169.701 2842.9 1170.273 2850.173 1169.701 2857.267 1167.997 2864.007 1165.206 2870.228 1161.394 2875.775 1156.656 2880.513 1151.108 2884.325 1144.888 2887.117 1138.148 2888.82 1131.054 2889.392 1123.781 2888.82 1116.508 2887.117 1109.414 2884.325 1102.674 2880.513 1096.453 2875.775 1090.906 2870.228 1086.168 2868.437 1084.972 M 642.445 433.76 4082.016 433.76 4081.988 2322.153 642.394 2322.146 642.421 433.753" fill="none" stroke-width="25"/><path d="M 835.827 849.291 835.827 725.512 M 1035.827 849.291 1035.827 725.512 M 1035.827 787.402 1097.716 787.402 M 1820.079 849.291 1820.079 725.512 M 2020.079 849.291 2020.079 725.512 M 2020.079 787.402 2081.968 787.402 M 2804.331 849.291 2804.331 725.512 M 3004.331 849.291 3004.331 725.512 M 3004.331 787.402 3066.22 787.402 M 3788.583 849.291 3788.583 725.512 M 3988.583 849.291 3988.583 725.512 M 3988.583 787.402 4050.472 787.402" fill="none" stroke-width="20"/><use xlink:href="#YBKBN3xaMi9GIqFxpbzY_pad-35" x="935.827" y="787.402"/><use xlink:href="#YBKBN3xaMi9GIqFxpbzY_pad-35" x="735.827" y="787.402"/><use xlink:href="#YBKBN3xaMi9GIqFxpbzY_pad-35" x="835.827" y="787.402"/><use xlink:href="#YBKBN3xaMi9GIqFxpbzY_pad-35" x="1035.827" y="787.402"/><use xlink:href="#YBKBN3xaMi9GIqFxpbzY_pad-35" x="835.827" y="1968.503"/><use xlink:href="#YBKBN3xaMi9GIqFxpbzY_pad-35" x="1035.827" y="1968.504"/><use xlink:href="#YBKBN3xaMi9GIqFxpbzY_pad-35" x="1920.079" y="787.402"/><use xlink:href="#YBKBN3xaMi9GIqFxpbzY_pad-35" x="1720.079" y="787.402"/><use xlink:href="#YBKBN3xaMi9GIqFxpbzY_pad-35" x="1820.079" y="787.402"/><use xlink:href="#YBKBN3xaMi9GIqFxpbzY_pad-35" x="2020.079" y="787.402"/><use xlink:href="#YBKBN3xaMi9GIqFxpbzY_pad-35" x="1820.079" y="1968.503"/><use xlink:href="#YBKBN3xaMi9GIqFxpbzY_pad-35" x="2020.079" y="1968.504"/><use xlink:href="#YBKBN3xaMi9GIqFxpbzY_pad-35" x="2904.331" y="787.402"/><use xlink:href="#YBKBN3xaMi9GIqFxpbzY_pad-35" x="2704.331" y="787.402"/><use xlink:href="#YBKBN3xaMi9GIqFxpbzY_pad-35" x="2804.331" y="787.402"/><use xlink:href="#YBKBN3xaMi9GIqFxpbzY_pad-35" x="3004.331" y="787.402"/><use xlink:href="#YBKBN3xaMi9GIqFxpbzY_pad-35" x="2804.331" y="1968.503"/><use xlink:href="#YBKBN3xaMi9GIqFxpbzY_pad-35" x="3004.331" y="1968.504"/><use xlink:href="#YBKBN3xaMi9GIqFxpbzY_pad-35" x="3888.583" y="787.402"/><use xlink:href="#YBKBN3xaMi9GIqFxpbzY_pad-35" x="3688.583" y="787.402"/><use xlink:href="#YBKBN3xaMi9GIqFxpbzY_pad-35" x="3788.583" y="787.402"/><use xlink:href="#YBKBN3xaMi9GIqFxpbzY_pad-35" x="3988.583" y="787.402"/><use xlink:href="#YBKBN3xaMi9GIqFxpbzY_pad-35" x="3788.583" y="1968.503"/><use xlink:href="#YBKBN3xaMi9GIqFxpbzY_pad-35" x="3988.583" y="1968.504"/></g></svg>