<svg version="1.1" xmlns="http://www.w3.org/2000/svg" xmlns:xlink="http://www.w3.org/1999/xlink" stroke-linecap="round" stroke-linejoin="round" stroke-width="0" fill-rule="evenodd" width="3.8188969999999998in" height="1.850393in" viewBox="452.756 452.756 3818.897 1850.393" id="iNESPclCQEaze_40j3RV"><defs><circle cx="0" cy="0" r="39.37" id="iNESPclCQEaze_40j3RV_pad-43"/><circle cx="0" cy="0" r="59.055" id="iNESPclCQEaze_40j3RV_pad-38"/></defs><g transform="translate(0,2755.9049999999997) scale(1,-1)" fill="currentColor" stroke="currentColor"><use xlink:href="#iNESPclCQEaze_40j3RV_pad-43" x="935.827" y="787.402"/><use xlink:href="#iNESPclCQEaze_40j3RV_pad-43" x="735.827" y="787.402"/><use xlink:href="#iNESPclCQEaze_40j3RV_pad-43" x="835.827" y="787.402"/><use xlink:href="#iNESPclCQEaze_40j3RV_pad-43" x="1035.827" y="787.402"/><use xlink:href="#iNESPclCQEaze_40j3RV_pad-43" x="835.827" y="1968.503"/><use xlink:href="#iNESPclCQEaze_40j3RV_pad-43" x="1035.827" y="1968.504"/><use xlink:href="#iNESPclCQEaze_40j3RV_pad-43" x="1920.079" y="787.402"/><use xlink:href="#iNESPclCQEaze_40j3RV_pad-43" x="1720.079" y="787.402"/><use xlink:href="#iNESPclCQEaze_40j3RV_pad-43" x="1820.079" y="787.402"/><use xlink:href="#iNESPclCQEaze_40j3RV_pad-43" x="2020.079" y="787.402"/><use xlink:href="#iNESPclCQEaze_40j3RV_pad-43" x="1820.079" y="1968.503"/><use xlink:href="#iNESPclCQEaze_40j3RV_pad-43" x="2020.079" y="1968.504"/><use xlink:href="#iNESPclCQEaze_40j3RV_pad-43" x="2904.331" y="787.402"/><use xlink:href="#iNESPclCQEaze_40j3RV_pad-43" x="2704.331" y="787.402"/><use xlink:href="#iNESPclCQEaze_40j3RV_pad-43" x="2804.331" y="787.402"/><use xlink:href="#iNESPclCQEaze_40j3RV_pad-43" x="3004.331" y="787.402"/><use xlink:href="#iNESPclCQEaze_40j3RV_pad-43" x="2804.331" y="1968.503"/><use xlink:href="#iNESPclCQEaze_40j3RV_pad-43" x="3004.331" y="1968.504"/><use xlink:href="#iNESPclCQEaze_40j3RV_pad-43" x="3888.583" y="787.402"/><use xlink:href="#iNESPclCQEaze_40j3RV_pad-43" x="3688.583" y="787.402"/><use xlink:href="#iNESPclCQEaze_40j3RV_pad-43" x="3788.583" y="787.402"/><use xlink:href="#iNESPclCQEaze_40j3RV_pad-43" x="3988.583" y="787.402"/><use xlink:href="#iNESPclCQEaze_40j3RV_pad-43" x="3788.583" y="1968.503"/><use xlink:href="#iNESPclCQEaze_40j3RV_pad-43" x="3988.583" y="1968.504"/><use xlink:href="#iNESPclCQEaze_40j3RV_pad-38" x="511.811" y="511.811"/><use xlink:href="#iNESPclCQEaze_40j3RV_pad-38" x="511.811" y="2244.094"/><use xlink:href="#iNESPclCQEaze_40j3RV_pad-38" x="4212.598" y="511.811"/><use xlink:href="#iNESPclCQEaze_40j3RV_pad-38" x="4212.598" y="2244.094"/></g></svg>