<svg version="1.1" xmlns="http://www.w3.org/2000/svg" xmlns:xlink="http://www.w3.org/1999/xlink" stroke-linecap="round" stroke-linejoin="round" stroke-width="0" fill-rule="evenodd" width="3.089911in" height="1.0184980000000001in" viewBox="807.885 868.704 3089.911 1018.498" id="jF48hsN6rWSGPsdoWGzp"><g transform="translate(0,2755.906) scale(1,-1)" fill="currentColor" stroke="currentColor"><path d="M 810.838 871.657 942.087 871.657 942.087 1884.249 810.838 1884.249 810.838 871.657 M 829.566 1009.248 923.321 1009.248 923.321 1227.967 829.566 1227.967 829.566 1009.248 M 1795.09 871.657 1926.339 871.657 1926.339 1884.249 1795.09 1884.249 1795.09 871.657 M 1813.818 1009.248 1907.573 1009.248 1907.573 1227.967 1813.818 1227.967 1813.818 1009.248 M 2779.342 871.657 2910.591 871.657 2910.591 1884.249 2779.342 1884.249 2779.342 871.657 M 2798.07 1009.248 2891.825 1009.248 2891.825 1227.967 2798.07 1227.967 2798.07 1009.248 M 3763.594 871.657 3894.843 871.657 3894.843 1884.249 3763.594 1884.249 3763.594 871.657 M 3782.322 1009.248 3876.077 1009.248 3876.077 1227.967 3782.322 1227.967 3782.322 1009.248" fill="none" stroke-width="5.906"/></g></svg>