G04 DipTrace 3.3.1.3*
G04 Bottom.gbr*
%MOIN*%
G04 #@! TF.FileFunction,Copper,L2,Bot*
G04 #@! TF.Part,Single*
G04 #@! TA.AperFunction,Conductor*
%ADD13C,0.012*%
%ADD14C,0.022*%
G04 #@! TA.AperFunction,CopperBalancing*
%ADD15C,0.025*%
%ADD16C,0.02*%
%ADD18R,0.125197X0.05*%
%ADD33R,0.062992X0.070866*%
G04 #@! TA.AperFunction,ComponentPad*
%ADD35C,0.070866*%
G04 #@! TA.AperFunction,ViaPad*
%ADD36C,0.04*%
%FSLAX26Y26*%
G04*
G70*
G90*
G75*
G01*
G04 Bottom*
%LPD*%
X918701Y1843701D2*
D13*
Y1784381D1*
X1398341Y1304740D1*
X1810181D1*
X2181461Y933461D1*
X2291340D1*
X2293706Y935827D1*
X2418903Y835827D2*
X2498786D1*
X2543381Y880421D1*
Y1151861D1*
X1916261Y1778980D1*
Y1841261D1*
X1918701Y1843701D1*
X2893701D2*
Y1786101D1*
X2577701Y1470101D1*
Y861701D1*
X2449781Y733781D1*
X2295752D1*
X2293706Y735827D1*
X3868701Y1843701D2*
Y1265062D1*
X3594820Y991181D1*
X2552740Y635501D2*
X2418577D1*
X2418903Y635827D1*
X3323228Y935827D2*
X3152535D1*
X2964581Y1123781D1*
X2842900D1*
X733781Y1042661D2*
Y911906D1*
X737451Y915576D1*
X735827Y787402D2*
Y913951D1*
X737451Y915576D1*
X3448425Y835827D2*
X3177655D1*
X2948980Y1064501D1*
X2774261D1*
X1719701Y1048900D2*
Y917618D1*
X1717659Y915576D1*
X1720079Y787402D2*
Y913156D1*
X1717659Y915576D1*
X2704118D2*
Y963159D1*
X2753980Y1013021D1*
X2916220D1*
X3192341Y736900D1*
X3322155D1*
X3323228Y735827D1*
X2704331Y787402D2*
Y915364D1*
X2704118Y915576D1*
X3687451D2*
X3645576D1*
X3594820Y864820D1*
Y705699D1*
X3519941Y630820D1*
X3453432D1*
X3448425Y635827D1*
X3688583Y787402D2*
Y914445D1*
X3687451Y915576D1*
X3448425Y1035827D2*
D14*
Y1961375D1*
X3441298Y1968503D1*
X3247059Y2162741D1*
X2804331D1*
X1820079D1*
X1030066D1*
X835827Y1968503D1*
X1820079D2*
Y2162741D1*
X2804331Y1968503D2*
Y2162741D1*
X3788583Y1968503D2*
X3441298D1*
X1035827Y1968504D2*
D13*
Y1850591D1*
X1028937Y1843701D1*
X2020079Y1968504D2*
Y1852559D1*
X2028937Y1843701D1*
X3004331Y1968504D2*
Y1844094D1*
X3003937Y1843701D1*
X3988583Y1968504D2*
Y1853346D1*
X3978937Y1843701D1*
D36*
X3594820Y991181D3*
X2552740Y635501D3*
X2842900Y1123781D3*
X733781Y1042661D3*
X2774261Y1064501D3*
X1719701Y1048900D3*
X644939Y2297277D2*
D15*
X4079474D1*
X644939Y2272408D2*
X4079474D1*
X644939Y2247539D2*
X4079474D1*
X644939Y2222671D2*
X4079474D1*
X644939Y2197802D2*
X1014283D1*
X3262834D2*
X4079474D1*
X644939Y2172933D2*
X984750D1*
X3292403D2*
X4079474D1*
X644939Y2148064D2*
X959883D1*
X3317270D2*
X4079474D1*
X644939Y2123196D2*
X935015D1*
X1046053D2*
X1780087D1*
X1860085D2*
X2764355D1*
X2844317D2*
X3231100D1*
X3342138D2*
X4079474D1*
X644939Y2098327D2*
X910111D1*
X1021185D2*
X1780087D1*
X1860085D2*
X2764355D1*
X2844317D2*
X3255968D1*
X3367006D2*
X4079474D1*
X644939Y2073458D2*
X885243D1*
X996317D2*
X1780087D1*
X1860085D2*
X2764355D1*
X2844317D2*
X3280836D1*
X3391874D2*
X4079474D1*
X644939Y2048589D2*
X860376D1*
X971449D2*
X1780087D1*
X1860085D2*
X2764355D1*
X2844317D2*
X3305704D1*
X3416741D2*
X4079474D1*
X644939Y2023720D2*
X805294D1*
X946582D2*
X1005276D1*
X1066363D2*
X1780087D1*
X1860085D2*
X1989543D1*
X2050595D2*
X2764355D1*
X2844317D2*
X2973811D1*
X3034862D2*
X3330571D1*
X3441609D2*
X3758060D1*
X3819111D2*
X3958042D1*
X4019129D2*
X4079474D1*
X644939Y1998852D2*
X779349D1*
X921714D2*
X979332D1*
X1092307D2*
X1763617D1*
X1876556D2*
X1963599D1*
X2076575D2*
X2747848D1*
X2860824D2*
X2947867D1*
X3060806D2*
X3355439D1*
X3845055D2*
X3932098D1*
X4045074D2*
X4079474D1*
X644939Y1973983D2*
X771634D1*
X900004D2*
X971653D1*
X1100022D2*
X1755902D1*
X1884271D2*
X1955884D1*
X2084254D2*
X2740133D1*
X2868503D2*
X2940151D1*
X3068521D2*
X3380307D1*
X3852770D2*
X3924383D1*
X4052753D2*
X4079474D1*
X644939Y1949114D2*
X774505D1*
X897133D2*
X974523D1*
X1097152D2*
X1758772D1*
X1881401D2*
X1958755D1*
X2081383D2*
X2743004D1*
X2865632D2*
X2943022D1*
X3065651D2*
X3405175D1*
X3849899D2*
X3927254D1*
X4049882D2*
X4079474D1*
X644939Y1924245D2*
X790007D1*
X881631D2*
X990025D1*
X1081650D2*
X1774274D1*
X1865899D2*
X1974257D1*
X2065881D2*
X2758506D1*
X2850130D2*
X2958524D1*
X3050149D2*
X3408440D1*
X3488402D2*
X3742773D1*
X3834397D2*
X3942756D1*
X4034380D2*
X4079474D1*
X644939Y1899377D2*
X858223D1*
X1089437D2*
X1858207D1*
X2089421D2*
X2833217D1*
X3064430D2*
X3408440D1*
X3488402D2*
X3808226D1*
X4039440D2*
X4079474D1*
X644939Y1874508D2*
X858223D1*
X1089437D2*
X1858207D1*
X2089421D2*
X2833217D1*
X3064430D2*
X3408440D1*
X3488402D2*
X3808226D1*
X4039440D2*
X4079474D1*
X644939Y1849639D2*
X858223D1*
X1089437D2*
X1858207D1*
X2089421D2*
X2833217D1*
X3064430D2*
X3408440D1*
X3488402D2*
X3808226D1*
X4039440D2*
X4079474D1*
X644939Y1824770D2*
X858223D1*
X1089437D2*
X1858207D1*
X2089421D2*
X2833217D1*
X3064430D2*
X3408440D1*
X3488402D2*
X3808226D1*
X4039440D2*
X4079474D1*
X644939Y1799902D2*
X858223D1*
X1089437D2*
X1858207D1*
X2089421D2*
X2833217D1*
X3064430D2*
X3408440D1*
X3488402D2*
X3808226D1*
X4039440D2*
X4079474D1*
X644939Y1775033D2*
X885100D1*
X976509D2*
X1881496D1*
X1968671D2*
X2834185D1*
X2926743D2*
X3408440D1*
X3488402D2*
X3833704D1*
X3903690D2*
X4079474D1*
X644939Y1750164D2*
X904477D1*
X1001377D2*
X1896639D1*
X1993539D2*
X2809318D1*
X2906217D2*
X3408440D1*
X3488402D2*
X3833704D1*
X3903690D2*
X4079474D1*
X644939Y1725295D2*
X929345D1*
X1026245D2*
X1921507D1*
X2018406D2*
X2784450D1*
X2881349D2*
X3408440D1*
X3488402D2*
X3833704D1*
X3903690D2*
X4079474D1*
X644939Y1700427D2*
X954213D1*
X1051112D2*
X1946375D1*
X2043274D2*
X2759582D1*
X2856482D2*
X3408440D1*
X3488402D2*
X3833704D1*
X3903690D2*
X4079474D1*
X644939Y1675558D2*
X979081D1*
X1075980D2*
X1971243D1*
X2068142D2*
X2734714D1*
X2831614D2*
X3408440D1*
X3488402D2*
X3833704D1*
X3903690D2*
X4079474D1*
X644939Y1650689D2*
X1003948D1*
X1100848D2*
X1996110D1*
X2093010D2*
X2709847D1*
X2806746D2*
X3408440D1*
X3488402D2*
X3833704D1*
X3903690D2*
X4079474D1*
X644939Y1625820D2*
X1028816D1*
X1125716D2*
X2020978D1*
X2117877D2*
X2684979D1*
X2781878D2*
X3408440D1*
X3488402D2*
X3833704D1*
X3903690D2*
X4079474D1*
X644939Y1600951D2*
X1053684D1*
X1150583D2*
X2045846D1*
X2142745D2*
X2660111D1*
X2757011D2*
X3408440D1*
X3488402D2*
X3833704D1*
X3903690D2*
X4079474D1*
X644939Y1576083D2*
X1078552D1*
X1175451D2*
X2070713D1*
X2167613D2*
X2635243D1*
X2732143D2*
X3408440D1*
X3488402D2*
X3833704D1*
X3903690D2*
X4079474D1*
X644939Y1551214D2*
X1103419D1*
X1200319D2*
X2095581D1*
X2192481D2*
X2610376D1*
X2707275D2*
X3408440D1*
X3488402D2*
X3833704D1*
X3903690D2*
X4079474D1*
X644939Y1526345D2*
X1128287D1*
X1225186D2*
X2120449D1*
X2217348D2*
X2585508D1*
X2682407D2*
X3408440D1*
X3488402D2*
X3833704D1*
X3903690D2*
X4079474D1*
X644939Y1501476D2*
X1153155D1*
X1250054D2*
X2145317D1*
X2242216D2*
X2560640D1*
X2657540D2*
X3408440D1*
X3488402D2*
X3833704D1*
X3903690D2*
X4079474D1*
X644939Y1476608D2*
X1178023D1*
X1274922D2*
X2170184D1*
X2267084D2*
X2543380D1*
X2632672D2*
X3408440D1*
X3488402D2*
X3833704D1*
X3903690D2*
X4079474D1*
X644939Y1451739D2*
X1202890D1*
X1299790D2*
X2195052D1*
X2291952D2*
X2542698D1*
X2612684D2*
X3408440D1*
X3488402D2*
X3833704D1*
X3903690D2*
X4079474D1*
X644939Y1426870D2*
X1227758D1*
X1324657D2*
X2219920D1*
X2316819D2*
X2542698D1*
X2612684D2*
X3408440D1*
X3488402D2*
X3833704D1*
X3903690D2*
X4079474D1*
X644939Y1402001D2*
X1252626D1*
X1349525D2*
X2244788D1*
X2341687D2*
X2542698D1*
X2612684D2*
X3408440D1*
X3488402D2*
X3833704D1*
X3903690D2*
X4079474D1*
X644939Y1377133D2*
X1277494D1*
X1374393D2*
X2269655D1*
X2366555D2*
X2542698D1*
X2612684D2*
X3408440D1*
X3488402D2*
X3833704D1*
X3903690D2*
X4079474D1*
X644939Y1352264D2*
X1302361D1*
X1399261D2*
X2294523D1*
X2391423D2*
X2542698D1*
X2612684D2*
X3408440D1*
X3488402D2*
X3833704D1*
X3903690D2*
X4079474D1*
X644939Y1327395D2*
X1327229D1*
X1835971D2*
X2319391D1*
X2416290D2*
X2542698D1*
X2612684D2*
X3408440D1*
X3488402D2*
X3833704D1*
X3903690D2*
X4079474D1*
X644939Y1302526D2*
X1352097D1*
X1860839D2*
X2344259D1*
X2441158D2*
X2542698D1*
X2612684D2*
X3408440D1*
X3488402D2*
X3833704D1*
X3903690D2*
X4079474D1*
X644939Y1277657D2*
X1377897D1*
X1885707D2*
X2369126D1*
X2466026D2*
X2542698D1*
X2612684D2*
X3408440D1*
X3488402D2*
X3832842D1*
X3903690D2*
X4079474D1*
X644939Y1252789D2*
X1813675D1*
X1910574D2*
X2393994D1*
X2490894D2*
X2542698D1*
X2612684D2*
X3408440D1*
X3488402D2*
X3807975D1*
X3901286D2*
X4079474D1*
X644939Y1227920D2*
X1838543D1*
X1935442D2*
X2418862D1*
X2515761D2*
X2542698D1*
X2612684D2*
X3408440D1*
X3488402D2*
X3783107D1*
X3880006D2*
X4079474D1*
X644939Y1203051D2*
X1863411D1*
X1960310D2*
X2443730D1*
X2612684D2*
X3408440D1*
X3488402D2*
X3758239D1*
X3855139D2*
X4079474D1*
X644939Y1178182D2*
X1888278D1*
X1985178D2*
X2202121D1*
X2385286D2*
X2468597D1*
X2612684D2*
X3231639D1*
X3488402D2*
X3733371D1*
X3830271D2*
X4079474D1*
X644939Y1153314D2*
X1913146D1*
X2010045D2*
X2202121D1*
X2385286D2*
X2493465D1*
X2612684D2*
X2804509D1*
X2980641D2*
X3231639D1*
X3488402D2*
X3708504D1*
X3805403D2*
X4079474D1*
X644939Y1128445D2*
X1938014D1*
X2034913D2*
X2202121D1*
X2385286D2*
X2508393D1*
X2612684D2*
X2794139D1*
X3008379D2*
X3231639D1*
X3488402D2*
X3683636D1*
X3780535D2*
X4079474D1*
X644939Y1103576D2*
X1962882D1*
X2059781D2*
X2202121D1*
X2385286D2*
X2508393D1*
X2612684D2*
X2746556D1*
X3033247D2*
X3231639D1*
X3488402D2*
X3658768D1*
X3755668D2*
X4079474D1*
X644939Y1078707D2*
X701911D1*
X765654D2*
X1681514D1*
X1757887D2*
X1987749D1*
X2084649D2*
X2327321D1*
X2612684D2*
X2727502D1*
X3058115D2*
X3356839D1*
X3540004D2*
X3633900D1*
X3730800D2*
X4079474D1*
X644939Y1053839D2*
X686158D1*
X781407D2*
X1670964D1*
X1768437D2*
X2012617D1*
X2109516D2*
X2327321D1*
X2612684D2*
X2726497D1*
X3082983D2*
X3356839D1*
X3540004D2*
X3609033D1*
X3705932D2*
X4079474D1*
X644939Y1028970D2*
X686840D1*
X780725D2*
X1675198D1*
X1764203D2*
X2037485D1*
X2134420D2*
X2327321D1*
X2612684D2*
X2721473D1*
X3107850D2*
X3356839D1*
X3540004D2*
X3565254D1*
X3681064D2*
X4079474D1*
X644939Y1004101D2*
X698789D1*
X768776D2*
X1684707D1*
X1754694D2*
X2062352D1*
X2159288D2*
X2327321D1*
X2612684D2*
X2696605D1*
X3132718D2*
X3356839D1*
X3656197D2*
X4079474D1*
X644939Y979232D2*
X698789D1*
X768776D2*
X1684707D1*
X1754694D2*
X2087220D1*
X2184155D2*
X2202121D1*
X2385286D2*
X2508393D1*
X2612684D2*
X2673388D1*
X2768637D2*
X2901576D1*
X3157586D2*
X3231639D1*
X3414804D2*
X3547384D1*
X3642238D2*
X4079474D1*
X644939Y954364D2*
X676972D1*
X908186D2*
X1657184D1*
X1888398D2*
X2112124D1*
X2385286D2*
X2508393D1*
X2612684D2*
X2643640D1*
X2874854D2*
X2926444D1*
X3414804D2*
X3563926D1*
X3858189D2*
X4079474D1*
X644939Y929495D2*
X676972D1*
X908186D2*
X1657184D1*
X1888398D2*
X2136992D1*
X2385286D2*
X2508393D1*
X2612684D2*
X2643640D1*
X2874854D2*
X2951311D1*
X3414804D2*
X3611042D1*
X3858189D2*
X4079474D1*
X644939Y904626D2*
X676972D1*
X908186D2*
X1657184D1*
X1888398D2*
X2163976D1*
X2385286D2*
X2508393D1*
X2612684D2*
X2643640D1*
X2874854D2*
X2976179D1*
X3414804D2*
X3586174D1*
X3858189D2*
X4079474D1*
X644939Y879757D2*
X676972D1*
X908186D2*
X1657184D1*
X1888398D2*
X2327321D1*
X2612684D2*
X2643640D1*
X2874854D2*
X3001047D1*
X3540004D2*
X3563460D1*
X3858189D2*
X4079474D1*
X644939Y854888D2*
X676972D1*
X908186D2*
X1657184D1*
X1888398D2*
X2327321D1*
X2611967D2*
X2643640D1*
X2874854D2*
X3025915D1*
X3540004D2*
X3559835D1*
X3858189D2*
X4079474D1*
X644939Y830020D2*
X688383D1*
X1083265D2*
X1672650D1*
X2067496D2*
X2327321D1*
X2594455D2*
X2656918D1*
X3540004D2*
X3559835D1*
X4035995D2*
X4079474D1*
X644939Y805151D2*
X673993D1*
X1097654D2*
X1658261D1*
X2081921D2*
X2327321D1*
X2569588D2*
X2642492D1*
X3540004D2*
X3559835D1*
X4050420D2*
X4079474D1*
X644939Y780282D2*
X671804D1*
X1099843D2*
X1656072D1*
X2084110D2*
X2202121D1*
X2544720D2*
X2640303D1*
X3068342D2*
X3100518D1*
X3414804D2*
X3559835D1*
X4052609D2*
X4079474D1*
X644939Y755413D2*
X680309D1*
X1091338D2*
X1664540D1*
X2075606D2*
X2202121D1*
X2519852D2*
X2648808D1*
X3059837D2*
X3125386D1*
X3414804D2*
X3559835D1*
X4044105D2*
X4079474D1*
X644939Y730545D2*
X708801D1*
X762855D2*
X808774D1*
X862864D2*
X908784D1*
X962873D2*
X1008793D1*
X1062846D2*
X1693032D1*
X1747122D2*
X1793042D1*
X1847131D2*
X1893051D1*
X1947105D2*
X1993060D1*
X2047114D2*
X2202121D1*
X2494984D2*
X2677300D1*
X2731353D2*
X2777309D1*
X2831363D2*
X2877282D1*
X2931372D2*
X2977292D1*
X3031381D2*
X3150253D1*
X3414804D2*
X3559835D1*
X3629822D2*
X3661531D1*
X3715621D2*
X3761540D1*
X3815630D2*
X3861550D1*
X3915603D2*
X3961559D1*
X4015613D2*
X4079474D1*
X644939Y705676D2*
X2202121D1*
X2468574D2*
X3180863D1*
X3414804D2*
X3546343D1*
X3629822D2*
X4079474D1*
X644939Y680807D2*
X2327321D1*
X2510486D2*
X2539792D1*
X2565676D2*
X3356839D1*
X3618375D2*
X4079474D1*
X644939Y655938D2*
X2327321D1*
X2597003D2*
X3356839D1*
X3593507D2*
X4079474D1*
X644939Y631070D2*
X2327321D1*
X2601524D2*
X3356839D1*
X3568639D2*
X4079474D1*
X644939Y606201D2*
X2327321D1*
X2591333D2*
X3356839D1*
X3543628D2*
X4079474D1*
X644939Y581332D2*
X4079474D1*
X644939Y556463D2*
X4079474D1*
X644939Y531594D2*
X4079474D1*
X644939Y506726D2*
X4079474D1*
X644939Y481857D2*
X4079474D1*
X644939Y456988D2*
X4079474D1*
X3412336Y687319D2*
X3530466D1*
X3562303Y719134D1*
X3562428Y867370D1*
X3563226Y872405D1*
X3564801Y877254D1*
X3567116Y881797D1*
X3570113Y885922D1*
X3617315Y933266D1*
X3624474Y940283D1*
X3628608Y943285D1*
X3629463Y945514D1*
Y960191D1*
X3625014Y955828D1*
X3619112Y951540D1*
X3612612Y948228D1*
X3605674Y945974D1*
X3598468Y944832D1*
X3591172D1*
X3583967Y945974D1*
X3577028Y948228D1*
X3570528Y951540D1*
X3564626Y955828D1*
X3559467Y960987D1*
X3555179Y966889D1*
X3551867Y973389D1*
X3549613Y980328D1*
X3548471Y987533D1*
Y994829D1*
X3549613Y1002034D1*
X3551867Y1008973D1*
X3555179Y1015473D1*
X3559467Y1021375D1*
X3564626Y1026534D1*
X3570528Y1030822D1*
X3577028Y1034134D1*
X3583967Y1036389D1*
X3591172Y1037530D1*
X3595347Y1037653D1*
X3836216Y1278528D1*
X3836209Y1781758D1*
X3810713Y1781776D1*
Y1905626D1*
X3956080D1*
X3956090Y1915821D1*
X3948365Y1921416D1*
X3941494Y1928287D1*
X3935783Y1936148D1*
X3931371Y1944806D1*
X3928368Y1954048D1*
X3926848Y1963645D1*
Y1973363D1*
X3928368Y1982960D1*
X3931371Y1992202D1*
X3935783Y2000860D1*
X3941494Y2008721D1*
X3948365Y2015592D1*
X3956227Y2021304D1*
X3964885Y2025715D1*
X3974127Y2028718D1*
X3983724Y2030238D1*
X3993441D1*
X4003039Y2028718D1*
X4012280Y2025715D1*
X4020939Y2021304D1*
X4028800Y2015592D1*
X4035671Y2008721D1*
X4041383Y2000860D1*
X4045794Y1992202D1*
X4048797Y1982960D1*
X4050317Y1973363D1*
Y1963645D1*
X4048797Y1954048D1*
X4045794Y1944806D1*
X4041383Y1936148D1*
X4035671Y1928287D1*
X4028800Y1921416D1*
X4021081Y1915799D1*
X4021075Y1905599D1*
X4036925Y1905626D1*
Y1781776D1*
X3901175D1*
X3901093Y1262512D1*
X3900295Y1257477D1*
X3898720Y1252627D1*
X3896405Y1248085D1*
X3893408Y1243960D1*
X3846206Y1196616D1*
X3641311Y991721D1*
X3640740Y983908D1*
X3639234Y977514D1*
X3855676Y977501D1*
Y853651D1*
X3721074D1*
X3721075Y840129D1*
X3728800Y834490D1*
X3735671Y827619D1*
X3738575Y823935D1*
X3743065Y829388D1*
X3748357Y834482D1*
X3754214Y838914D1*
X3760554Y842621D1*
X3767289Y845551D1*
X3774324Y847663D1*
X3781559Y848927D1*
X3788893Y849326D1*
X3796223Y848854D1*
X3803445Y847517D1*
X3810458Y845334D1*
X3817163Y842337D1*
X3823466Y838567D1*
X3829279Y834077D1*
X3834519Y828930D1*
X3838575Y823935D1*
X3844795Y831189D1*
X3852184Y837500D1*
X3860469Y842577D1*
X3869447Y846296D1*
X3878895Y848564D1*
X3888583Y849327D1*
X3898270Y848564D1*
X3907719Y846296D1*
X3916696Y842577D1*
X3924981Y837500D1*
X3932370Y831189D1*
X3938575Y823935D1*
X3943065Y829388D1*
X3948357Y834482D1*
X3954214Y838914D1*
X3960554Y842621D1*
X3967289Y845551D1*
X3974324Y847663D1*
X3981559Y848927D1*
X3988893Y849326D1*
X3996223Y848854D1*
X4003445Y847517D1*
X4010458Y845334D1*
X4017163Y842337D1*
X4023466Y838567D1*
X4029279Y834077D1*
X4034519Y828930D1*
X4039113Y823199D1*
X4042995Y816965D1*
X4046113Y810314D1*
X4048421Y803342D1*
X4049888Y796145D1*
X4050492Y788825D1*
X4050263Y781897D1*
X4049177Y774633D1*
X4047239Y767548D1*
X4044476Y760743D1*
X4040927Y754313D1*
X4036641Y748348D1*
X4031679Y742933D1*
X4026111Y738143D1*
X4020015Y734047D1*
X4013476Y730700D1*
X4006588Y728152D1*
X3999446Y726437D1*
X3992152Y725579D1*
X3984807Y725592D1*
X3977515Y726473D1*
X3970379Y728212D1*
X3963500Y730784D1*
X3956973Y734152D1*
X3950890Y738269D1*
X3945338Y743077D1*
X3940394Y748509D1*
X3938585Y750875D1*
X3932370Y743614D1*
X3924981Y737303D1*
X3916696Y732226D1*
X3907719Y728507D1*
X3898270Y726239D1*
X3888583Y725476D1*
X3878895Y726239D1*
X3869447Y728507D1*
X3860469Y732226D1*
X3852184Y737303D1*
X3844795Y743614D1*
X3838590Y750869D1*
X3834240Y745567D1*
X3828966Y740456D1*
X3823124Y736005D1*
X3816795Y732276D1*
X3810070Y729324D1*
X3803043Y727188D1*
X3795812Y725900D1*
X3788479Y725476D1*
X3781148Y725924D1*
X3773922Y727237D1*
X3766901Y729396D1*
X3760186Y732371D1*
X3753870Y736120D1*
X3748043Y740591D1*
X3742786Y745720D1*
X3738585Y750875D1*
X3732370Y743614D1*
X3724981Y737303D1*
X3716696Y732226D1*
X3707719Y728507D1*
X3698270Y726239D1*
X3688583Y725476D1*
X3678895Y726239D1*
X3669447Y728507D1*
X3660469Y732226D1*
X3652184Y737303D1*
X3644795Y743614D1*
X3638484Y751003D1*
X3633407Y759288D1*
X3629688Y768266D1*
X3627420Y777714D1*
X3627312Y763770D1*
X3627212Y703150D1*
X3626415Y698114D1*
X3624839Y693265D1*
X3622524Y688722D1*
X3619527Y684597D1*
X3572326Y637254D1*
X3541043Y606113D1*
X3539031Y604528D1*
X3537516Y595455D1*
Y584335D1*
X3359335D1*
Y684344D1*
X3234138Y684335D1*
Y704394D1*
X3189792Y704508D1*
X3184756Y705306D1*
X3179907Y706881D1*
X3175364Y709196D1*
X3171239Y712193D1*
X3123896Y759395D1*
X2902762Y980529D1*
X2767409D1*
X2767390Y977501D1*
X2872343D1*
Y853651D1*
X2736808D1*
X2736823Y840114D1*
X2744548Y834490D1*
X2751419Y827619D1*
X2754323Y823935D1*
X2758813Y829388D1*
X2764105Y834482D1*
X2769962Y838914D1*
X2776302Y842621D1*
X2783037Y845551D1*
X2790072Y847663D1*
X2797307Y848927D1*
X2804641Y849326D1*
X2811971Y848854D1*
X2819193Y847517D1*
X2826206Y845334D1*
X2832911Y842337D1*
X2839214Y838567D1*
X2845027Y834077D1*
X2850267Y828930D1*
X2854323Y823935D1*
X2860543Y831189D1*
X2867932Y837500D1*
X2876217Y842577D1*
X2885195Y846296D1*
X2894643Y848564D1*
X2904331Y849327D1*
X2914018Y848564D1*
X2923467Y846296D1*
X2932444Y842577D1*
X2940729Y837500D1*
X2948118Y831189D1*
X2954323Y823935D1*
X2958813Y829388D1*
X2964105Y834482D1*
X2969962Y838914D1*
X2976302Y842621D1*
X2983037Y845551D1*
X2990072Y847663D1*
X2997307Y848927D1*
X3004641Y849326D1*
X3011971Y848854D1*
X3019193Y847517D1*
X3026206Y845334D1*
X3032911Y842337D1*
X3039214Y838567D1*
X3045027Y834077D1*
X3050267Y828930D1*
X3054861Y823199D1*
X3058744Y816965D1*
X3061861Y810314D1*
X3064169Y803342D1*
X3065636Y796145D1*
X3066240Y788825D1*
X3066011Y781897D1*
X3064925Y774633D1*
X3062987Y767548D1*
X3060224Y760743D1*
X3056675Y754313D1*
X3052389Y748348D1*
X3047427Y742933D1*
X3041859Y738143D1*
X3035763Y734047D1*
X3029225Y730700D1*
X3022336Y728152D1*
X3015194Y726437D1*
X3007900Y725579D1*
X3000555Y725592D1*
X2993263Y726473D1*
X2986127Y728212D1*
X2979248Y730784D1*
X2972721Y734152D1*
X2966638Y738269D1*
X2961086Y743077D1*
X2956142Y748509D1*
X2954333Y750875D1*
X2948118Y743614D1*
X2940729Y737303D1*
X2932444Y732226D1*
X2923467Y728507D1*
X2914018Y726239D1*
X2904331Y725476D1*
X2894643Y726239D1*
X2885195Y728507D1*
X2876217Y732226D1*
X2867932Y737303D1*
X2860543Y743614D1*
X2854338Y750869D1*
X2849988Y745567D1*
X2844714Y740456D1*
X2838872Y736005D1*
X2832543Y732276D1*
X2825818Y729324D1*
X2818791Y727188D1*
X2811560Y725900D1*
X2804227Y725476D1*
X2796896Y725924D1*
X2789670Y727237D1*
X2782649Y729396D1*
X2775934Y732371D1*
X2769618Y736120D1*
X2763791Y740591D1*
X2758534Y745720D1*
X2754333Y750875D1*
X2748118Y743614D1*
X2740729Y737303D1*
X2732444Y732226D1*
X2723467Y728507D1*
X2714018Y726239D1*
X2704331Y725476D1*
X2694643Y726239D1*
X2685195Y728507D1*
X2676217Y732226D1*
X2667932Y737303D1*
X2660543Y743614D1*
X2654232Y751003D1*
X2649155Y759288D1*
X2645436Y768266D1*
X2643168Y777714D1*
X2642406Y787402D1*
X2643168Y797089D1*
X2645436Y806538D1*
X2649155Y815515D1*
X2654232Y823800D1*
X2660543Y831189D1*
X2667932Y837500D1*
X2671833Y840107D1*
X2671839Y853680D1*
X2646130Y853651D1*
Y977501D1*
X2674945D1*
X2677831Y982257D1*
X2681143Y986134D1*
X2732878Y1037728D1*
X2734890Y1039313D1*
X2732836Y1043394D1*
X2730045Y1050134D1*
X2728341Y1057228D1*
X2727769Y1064501D1*
X2728341Y1071774D1*
X2730045Y1078868D1*
X2732836Y1085608D1*
X2736648Y1091829D1*
X2741386Y1097376D1*
X2746934Y1102114D1*
X2753154Y1105926D1*
X2759894Y1108718D1*
X2766988Y1110421D1*
X2774261Y1110993D1*
X2781534Y1110421D1*
X2788628Y1108718D1*
X2795368Y1105926D1*
X2801891Y1101876D1*
X2798684Y1109414D1*
X2796981Y1116508D1*
X2796408Y1123781D1*
X2796981Y1131054D1*
X2798684Y1138148D1*
X2801475Y1144888D1*
X2805287Y1151108D1*
X2810025Y1156656D1*
X2815573Y1161394D1*
X2821793Y1165206D1*
X2828533Y1167997D1*
X2835627Y1169701D1*
X2842900Y1170273D1*
X2850173Y1169701D1*
X2857267Y1167997D1*
X2864007Y1165206D1*
X2870228Y1161394D1*
X2876133Y1156268D1*
X2967131Y1156173D1*
X2972167Y1155375D1*
X2977016Y1153800D1*
X2981558Y1151485D1*
X2985683Y1148488D1*
X3033027Y1101286D1*
X3166012Y968301D1*
X3234172Y968319D1*
X3234138Y987319D1*
X3359338D1*
X3359335Y1084344D1*
X3234138Y1084335D1*
Y1187319D1*
X3410931D1*
X3410933Y1945814D1*
X3231511Y2125268D1*
X2841819Y2125249D1*
X2841823Y2017805D1*
X2848118Y2012290D1*
X2854429Y2004901D1*
X2859506Y1996616D1*
X2863225Y1987639D1*
X2865494Y1978190D1*
X2866256Y1968503D1*
X2865494Y1958815D1*
X2863225Y1949367D1*
X2859506Y1940389D1*
X2854429Y1932104D1*
X2848118Y1924715D1*
X2840729Y1918404D1*
X2832444Y1913327D1*
X2823467Y1909608D1*
X2814018Y1907340D1*
X2804331Y1906577D1*
X2794643Y1907340D1*
X2785195Y1909608D1*
X2776217Y1913327D1*
X2767932Y1918404D1*
X2760543Y1924715D1*
X2754232Y1932104D1*
X2749155Y1940389D1*
X2745436Y1949367D1*
X2743168Y1958815D1*
X2742406Y1968503D1*
X2743168Y1978190D1*
X2745436Y1987639D1*
X2749155Y1996616D1*
X2754232Y2004901D1*
X2760543Y2012290D1*
X2766843Y2017743D1*
X2766839Y2125281D1*
X1857598Y2125249D1*
X1857571Y2017805D1*
X1863866Y2012290D1*
X1870177Y2004901D1*
X1875254Y1996616D1*
X1878973Y1987639D1*
X1881242Y1978190D1*
X1882004Y1968503D1*
X1881242Y1958815D1*
X1878973Y1949367D1*
X1875254Y1940389D1*
X1870177Y1932104D1*
X1863866Y1924715D1*
X1856477Y1918404D1*
X1848192Y1913327D1*
X1839215Y1909608D1*
X1829766Y1907340D1*
X1820079Y1906577D1*
X1810392Y1907340D1*
X1800943Y1909608D1*
X1791965Y1913327D1*
X1783680Y1918404D1*
X1776291Y1924715D1*
X1769980Y1932104D1*
X1764903Y1940389D1*
X1761184Y1949367D1*
X1758916Y1958815D1*
X1758154Y1968503D1*
X1758916Y1978190D1*
X1761184Y1987639D1*
X1764903Y1996616D1*
X1769980Y2004901D1*
X1776291Y2012290D1*
X1782591Y2017743D1*
X1782587Y2125281D1*
X1045590Y2125249D1*
X897203Y1976857D1*
X897752Y1968503D1*
X896990Y1958815D1*
X894721Y1949367D1*
X891003Y1940389D1*
X885925Y1932104D1*
X879614Y1924715D1*
X872225Y1918404D1*
X863940Y1913327D1*
X854963Y1909608D1*
X845514Y1907340D1*
X835827Y1906577D1*
X826140Y1907340D1*
X816691Y1909608D1*
X807713Y1913327D1*
X799428Y1918404D1*
X792039Y1924715D1*
X785728Y1932104D1*
X780651Y1940389D1*
X776932Y1949367D1*
X774664Y1958815D1*
X773902Y1968503D1*
X774664Y1978190D1*
X776932Y1987639D1*
X780651Y1996616D1*
X785728Y2004901D1*
X792039Y2012290D1*
X799428Y2018601D1*
X807713Y2023678D1*
X816691Y2027397D1*
X826140Y2029665D1*
X835827Y2030428D1*
X844137Y2029828D1*
X1005716Y2191251D1*
X1010476Y2194709D1*
X1015718Y2197380D1*
X1021313Y2199198D1*
X1027124Y2200118D1*
X1075997Y2200234D1*
X3250001Y2200118D1*
X3255811Y2199198D1*
X3261407Y2197380D1*
X3266649Y2194709D1*
X3271408Y2191251D1*
X3306049Y2156774D1*
X3456846Y2005976D1*
X3739316Y2005995D1*
X3744795Y2012290D1*
X3752184Y2018601D1*
X3760469Y2023678D1*
X3769447Y2027397D1*
X3778895Y2029665D1*
X3788583Y2030428D1*
X3798270Y2029665D1*
X3807719Y2027397D1*
X3816696Y2023678D1*
X3824981Y2018601D1*
X3832370Y2012290D1*
X3838681Y2004901D1*
X3843758Y1996616D1*
X3847477Y1987639D1*
X3849745Y1978190D1*
X3850508Y1968503D1*
X3849745Y1958815D1*
X3847477Y1949367D1*
X3843758Y1940389D1*
X3838681Y1932104D1*
X3832370Y1924715D1*
X3824981Y1918404D1*
X3816696Y1913327D1*
X3807719Y1909608D1*
X3798270Y1907340D1*
X3788583Y1906577D1*
X3778895Y1907340D1*
X3769447Y1909608D1*
X3760469Y1913327D1*
X3752184Y1918404D1*
X3744795Y1924715D1*
X3739343Y1931015D1*
X3485900Y1931010D1*
X3485917Y1087344D1*
X3537516Y1087319D1*
Y984335D1*
X3412316D1*
X3412319Y887310D1*
X3537516Y887319D1*
Y784335D1*
X3412316D1*
X3412319Y687310D1*
X2382813Y687319D2*
X2507994D1*
Y667977D1*
X2519520Y667993D1*
X2525413Y673114D1*
X2531633Y676926D1*
X2538373Y679718D1*
X2545467Y681421D1*
X2552740Y681993D1*
X2560013Y681421D1*
X2567107Y679718D1*
X2573847Y676926D1*
X2580068Y673114D1*
X2585615Y668376D1*
X2590353Y662829D1*
X2594165Y656608D1*
X2596957Y649868D1*
X2598660Y642774D1*
X2599232Y635501D1*
X2598660Y628228D1*
X2596957Y621134D1*
X2594165Y614394D1*
X2590353Y608174D1*
X2585615Y602626D1*
X2580068Y597888D1*
X2573847Y594077D1*
X2567107Y591285D1*
X2560013Y589582D1*
X2552740Y589009D1*
X2545467Y589582D1*
X2538373Y591285D1*
X2531633Y594077D1*
X2525413Y597888D1*
X2519507Y603014D1*
X2507993Y603009D1*
X2507994Y584335D1*
X2329812D1*
Y684344D1*
X2204616Y684335D1*
Y787319D1*
X2329816D1*
X2329812Y884344D1*
X2204616Y884334D1*
Y900949D1*
X2178911Y901069D1*
X2173875Y901866D1*
X2169026Y903442D1*
X2164483Y905756D1*
X2160359Y908753D1*
X2113015Y955955D1*
X1796729Y1272242D1*
X1395792Y1272348D1*
X1390756Y1273146D1*
X1385907Y1274721D1*
X1381364Y1277036D1*
X1377239Y1280033D1*
X1329896Y1327235D1*
X893994Y1763279D1*
X890997Y1767403D1*
X888682Y1771946D1*
X887106Y1776795D1*
X886607Y1779308D1*
X884826Y1781775D1*
X860713D1*
Y1905626D1*
X1003335Y1905709D1*
Y1915792D1*
X995610Y1921416D1*
X988738Y1928287D1*
X983027Y1936148D1*
X978615Y1944806D1*
X975613Y1954048D1*
X974092Y1963645D1*
Y1973363D1*
X975613Y1982960D1*
X978615Y1992202D1*
X983027Y2000860D1*
X988738Y2008721D1*
X995610Y2015592D1*
X1003471Y2021304D1*
X1012129Y2025715D1*
X1021371Y2028718D1*
X1030968Y2030238D1*
X1040685D1*
X1050283Y2028718D1*
X1059525Y2025715D1*
X1068183Y2021304D1*
X1076044Y2015592D1*
X1082915Y2008721D1*
X1088627Y2000860D1*
X1093038Y1992202D1*
X1096041Y1982960D1*
X1097561Y1973363D1*
Y1963645D1*
X1096041Y1954048D1*
X1093038Y1944806D1*
X1088627Y1936148D1*
X1082915Y1928287D1*
X1076044Y1921416D1*
X1068325Y1915799D1*
X1068319Y1905599D1*
X1086925Y1905626D1*
Y1781775D1*
X967252D1*
X1411779Y1337253D1*
X1812730Y1337132D1*
X1817766Y1336335D1*
X1822615Y1334759D1*
X1827158Y1332444D1*
X1831283Y1329447D1*
X1878627Y1282246D1*
X2194913Y965959D1*
X2204606Y965953D1*
X2204616Y987319D1*
X2329816D1*
X2329813Y1084344D1*
X2204616Y1084334D1*
Y1187319D1*
X2382797D1*
Y1087324D1*
X2507994Y1087319D1*
Y984334D1*
X2382794D1*
X2382797Y887310D1*
X2504317Y887319D1*
X2510903Y893894D1*
X2510888Y1138393D1*
X1891554Y1757878D1*
X1888557Y1762003D1*
X1886242Y1766546D1*
X1884667Y1771395D1*
X1883869Y1776431D1*
X1883769Y1781743D1*
X1860713Y1781775D1*
Y1905626D1*
X1987563D1*
X1987587Y1915823D1*
X1979862Y1921416D1*
X1972990Y1928287D1*
X1967279Y1936148D1*
X1962867Y1944806D1*
X1959865Y1954048D1*
X1958344Y1963645D1*
Y1973363D1*
X1959865Y1982960D1*
X1962867Y1992202D1*
X1967279Y2000860D1*
X1972990Y2008721D1*
X1979862Y2015592D1*
X1987723Y2021304D1*
X1996381Y2025715D1*
X2005623Y2028718D1*
X2015220Y2030238D1*
X2024937D1*
X2034535Y2028718D1*
X2043776Y2025715D1*
X2052435Y2021304D1*
X2060296Y2015592D1*
X2067167Y2008721D1*
X2072879Y2000860D1*
X2077290Y1992202D1*
X2080293Y1982960D1*
X2081813Y1973363D1*
Y1963645D1*
X2080293Y1954048D1*
X2077290Y1944806D1*
X2072879Y1936148D1*
X2067167Y1928287D1*
X2060296Y1921416D1*
X2052577Y1915799D1*
X2052571Y1905599D1*
X2086925Y1905626D1*
Y1781775D1*
X1959429D1*
X2545192Y1196000D1*
X2545309Y1472650D1*
X2546106Y1477686D1*
X2547682Y1482535D1*
X2549997Y1487078D1*
X2552994Y1491203D1*
X2600196Y1538547D1*
X2843405Y1781756D1*
X2835713Y1781776D1*
Y1905626D1*
X2971821D1*
X2971838Y1915755D1*
X2964114Y1921416D1*
X2957242Y1928287D1*
X2951531Y1936148D1*
X2947119Y1944806D1*
X2944117Y1954048D1*
X2942596Y1963645D1*
Y1973363D1*
X2944117Y1982960D1*
X2947119Y1992202D1*
X2951531Y2000860D1*
X2957242Y2008721D1*
X2964114Y2015592D1*
X2971975Y2021304D1*
X2980633Y2025715D1*
X2989875Y2028718D1*
X2999472Y2030238D1*
X3009189D1*
X3018787Y2028718D1*
X3028028Y2025715D1*
X3036687Y2021304D1*
X3044548Y2015592D1*
X3051419Y2008721D1*
X3057131Y2000860D1*
X3061542Y1992202D1*
X3064545Y1982960D1*
X3066065Y1973363D1*
Y1963645D1*
X3064545Y1954048D1*
X3061542Y1944806D1*
X3057131Y1936148D1*
X3051419Y1928287D1*
X3044548Y1921416D1*
X3036829Y1915799D1*
X3036823Y1905599D1*
X3061925Y1905626D1*
Y1781776D1*
X2925888D1*
X2924603Y1776060D1*
X2922652Y1771350D1*
X2919988Y1767003D1*
X2916669Y1763119D1*
X2610184Y1456634D1*
X2610093Y859152D1*
X2609295Y854116D1*
X2607720Y849267D1*
X2605405Y844724D1*
X2602408Y840599D1*
X2555206Y793255D1*
X2470883Y709074D1*
X2466758Y706077D1*
X2462215Y703762D1*
X2457366Y702186D1*
X2452330Y701389D1*
X2382785Y701289D1*
X2382797Y687310D1*
X985819Y750869D2*
X979614Y743614D1*
X972225Y737303D1*
X963940Y732226D1*
X954963Y728507D1*
X945514Y726239D1*
X935827Y725476D1*
X926140Y726239D1*
X916691Y728507D1*
X907713Y732226D1*
X899428Y737303D1*
X892039Y743614D1*
X885834Y750869D1*
X881484Y745567D1*
X876210Y740456D1*
X870368Y736005D1*
X864039Y732276D1*
X857314Y729324D1*
X850287Y727188D1*
X843056Y725900D1*
X835723Y725476D1*
X828392Y725924D1*
X821166Y727237D1*
X814145Y729396D1*
X807430Y732371D1*
X801114Y736120D1*
X795287Y740591D1*
X790030Y745720D1*
X785829Y750875D1*
X779614Y743614D1*
X772225Y737303D1*
X763940Y732226D1*
X754963Y728507D1*
X745514Y726239D1*
X735827Y725476D1*
X726140Y726239D1*
X716691Y728507D1*
X707713Y732226D1*
X699428Y737303D1*
X692039Y743614D1*
X685728Y751003D1*
X680651Y759288D1*
X676932Y768266D1*
X674664Y777714D1*
X673902Y787402D1*
X674664Y797089D1*
X676932Y806538D1*
X680651Y815515D1*
X685728Y823800D1*
X692039Y831189D1*
X699428Y837500D1*
X703329Y840107D1*
X703335Y853680D1*
X679464Y853651D1*
Y977501D1*
X701317D1*
X701289Y1009403D1*
X696168Y1015334D1*
X692356Y1021554D1*
X689564Y1028295D1*
X687861Y1035388D1*
X687289Y1042661D1*
X687861Y1049934D1*
X689564Y1057028D1*
X692356Y1063768D1*
X696168Y1069989D1*
X700906Y1075536D1*
X706453Y1080274D1*
X712674Y1084086D1*
X719414Y1086878D1*
X726508Y1088581D1*
X733781Y1089154D1*
X741054Y1088581D1*
X748148Y1086878D1*
X754888Y1084086D1*
X761108Y1080274D1*
X766656Y1075536D1*
X771394Y1069989D1*
X775206Y1063768D1*
X777997Y1057028D1*
X779701Y1049934D1*
X780273Y1042661D1*
X779701Y1035388D1*
X777997Y1028295D1*
X775206Y1021554D1*
X771394Y1015334D1*
X766268Y1009428D1*
X766273Y977532D1*
X905676Y977501D1*
Y853651D1*
X768347D1*
X768319Y840138D1*
X776044Y834490D1*
X782915Y827619D1*
X785819Y823935D1*
X790309Y829388D1*
X795601Y834482D1*
X801458Y838914D1*
X807799Y842621D1*
X814534Y845551D1*
X821568Y847663D1*
X828803Y848927D1*
X836137Y849326D1*
X843467Y848854D1*
X850689Y847517D1*
X857702Y845334D1*
X864407Y842337D1*
X870710Y838567D1*
X876523Y834077D1*
X881763Y828930D1*
X885819Y823935D1*
X892039Y831189D1*
X899428Y837500D1*
X907713Y842577D1*
X916691Y846296D1*
X926140Y848564D1*
X935827Y849327D1*
X945514Y848564D1*
X954963Y846296D1*
X963940Y842577D1*
X972225Y837500D1*
X979614Y831189D1*
X985819Y823935D1*
X990309Y829388D1*
X995601Y834482D1*
X1001458Y838914D1*
X1007799Y842621D1*
X1014534Y845551D1*
X1021568Y847663D1*
X1028803Y848927D1*
X1036137Y849326D1*
X1043467Y848854D1*
X1050689Y847517D1*
X1057702Y845334D1*
X1064407Y842337D1*
X1070710Y838567D1*
X1076523Y834077D1*
X1081763Y828930D1*
X1086357Y823199D1*
X1090240Y816965D1*
X1093357Y810314D1*
X1095665Y803342D1*
X1097132Y796145D1*
X1097736Y788825D1*
X1097507Y781897D1*
X1096421Y774633D1*
X1094483Y767548D1*
X1091720Y760743D1*
X1088171Y754313D1*
X1083885Y748348D1*
X1078923Y742933D1*
X1073355Y738143D1*
X1067259Y734047D1*
X1060721Y730700D1*
X1053832Y728152D1*
X1046690Y726437D1*
X1039396Y725579D1*
X1032051Y725592D1*
X1024759Y726473D1*
X1017624Y728212D1*
X1010744Y730784D1*
X1004217Y734152D1*
X998134Y738269D1*
X992582Y743077D1*
X987638Y748509D1*
X985829Y750875D1*
X1970071Y750869D2*
X1963866Y743614D1*
X1956477Y737303D1*
X1948192Y732226D1*
X1939215Y728507D1*
X1929766Y726239D1*
X1920079Y725476D1*
X1910392Y726239D1*
X1900943Y728507D1*
X1891965Y732226D1*
X1883680Y737303D1*
X1876291Y743614D1*
X1870086Y750869D1*
X1865736Y745567D1*
X1860462Y740456D1*
X1854620Y736005D1*
X1848291Y732276D1*
X1841566Y729324D1*
X1834539Y727188D1*
X1827308Y725900D1*
X1819975Y725476D1*
X1812644Y725924D1*
X1805418Y727237D1*
X1798397Y729396D1*
X1791682Y732371D1*
X1785366Y736120D1*
X1779539Y740591D1*
X1774282Y745720D1*
X1770081Y750875D1*
X1763866Y743614D1*
X1756477Y737303D1*
X1748192Y732226D1*
X1739215Y728507D1*
X1729766Y726239D1*
X1720079Y725476D1*
X1710392Y726239D1*
X1700943Y728507D1*
X1691965Y732226D1*
X1683680Y737303D1*
X1676291Y743614D1*
X1669980Y751003D1*
X1664903Y759288D1*
X1661184Y768266D1*
X1658916Y777714D1*
X1658154Y787402D1*
X1658916Y797089D1*
X1661184Y806538D1*
X1664903Y815515D1*
X1669980Y823800D1*
X1676291Y831189D1*
X1683680Y837500D1*
X1687581Y840107D1*
X1687587Y853680D1*
X1659671Y853651D1*
Y977501D1*
X1687194D1*
X1687209Y1015618D1*
X1682088Y1021573D1*
X1678276Y1027793D1*
X1675484Y1034533D1*
X1673781Y1041627D1*
X1673209Y1048900D1*
X1673781Y1056173D1*
X1675484Y1063267D1*
X1678276Y1070007D1*
X1682088Y1076228D1*
X1686826Y1081775D1*
X1692373Y1086513D1*
X1698594Y1090325D1*
X1705334Y1093117D1*
X1712428Y1094820D1*
X1719701Y1095392D1*
X1726974Y1094820D1*
X1734068Y1093117D1*
X1740808Y1090325D1*
X1747028Y1086513D1*
X1752576Y1081775D1*
X1757314Y1076228D1*
X1761126Y1070007D1*
X1763917Y1063267D1*
X1765621Y1056173D1*
X1766193Y1048900D1*
X1765621Y1041627D1*
X1763917Y1034533D1*
X1761126Y1027793D1*
X1757314Y1021573D1*
X1752188Y1015667D1*
X1752193Y977527D1*
X1885884Y977501D1*
Y853651D1*
X1752574D1*
X1752571Y840132D1*
X1760296Y834490D1*
X1767167Y827619D1*
X1770071Y823935D1*
X1774561Y829388D1*
X1779853Y834482D1*
X1785710Y838914D1*
X1792051Y842621D1*
X1798786Y845551D1*
X1805820Y847663D1*
X1813055Y848927D1*
X1820389Y849326D1*
X1827719Y848854D1*
X1834941Y847517D1*
X1841954Y845334D1*
X1848659Y842337D1*
X1854962Y838567D1*
X1860775Y834077D1*
X1866015Y828930D1*
X1870071Y823935D1*
X1876291Y831189D1*
X1883680Y837500D1*
X1891965Y842577D1*
X1900943Y846296D1*
X1910392Y848564D1*
X1920079Y849327D1*
X1929766Y848564D1*
X1939215Y846296D1*
X1948192Y842577D1*
X1956477Y837500D1*
X1963866Y831189D1*
X1970071Y823935D1*
X1974561Y829388D1*
X1979853Y834482D1*
X1985710Y838914D1*
X1992051Y842621D1*
X1998786Y845551D1*
X2005820Y847663D1*
X2013055Y848927D1*
X2020389Y849326D1*
X2027719Y848854D1*
X2034941Y847517D1*
X2041954Y845334D1*
X2048659Y842337D1*
X2054962Y838567D1*
X2060775Y834077D1*
X2066015Y828930D1*
X2070609Y823199D1*
X2074492Y816965D1*
X2077609Y810314D1*
X2079917Y803342D1*
X2081384Y796145D1*
X2081988Y788825D1*
X2081759Y781897D1*
X2080673Y774633D1*
X2078735Y767548D1*
X2075972Y760743D1*
X2072423Y754313D1*
X2068137Y748348D1*
X2063175Y742933D1*
X2057607Y738143D1*
X2051511Y734047D1*
X2044973Y730700D1*
X2038084Y728152D1*
X2030942Y726437D1*
X2023648Y725579D1*
X2016303Y725592D1*
X2009011Y726473D1*
X2001875Y728212D1*
X1994996Y730784D1*
X1988469Y734152D1*
X1982386Y738269D1*
X1976834Y743077D1*
X1971890Y748509D1*
X1970081Y750875D1*
X3627310Y796165D2*
X3628368Y801858D1*
X3631371Y811099D1*
X3635783Y819757D1*
X3641494Y827619D1*
X3648365Y834490D1*
X3656085Y840107D1*
X3656090Y853680D1*
X3629577Y853626D1*
X3627319Y851368D1*
X3627312Y796389D1*
X642445Y433760D2*
X4082016D1*
X4081988Y2322153D1*
X642394Y2322146D1*
X642421Y433753D1*
X3323228Y1187283D2*
D16*
Y1084370D1*
X3234174Y1135827D2*
X3323228D1*
X2293706Y1187283D2*
Y1084370D1*
X2204652Y1135827D2*
X2382761D1*
X835827Y849291D2*
Y725512D1*
X1035827Y849291D2*
Y725512D1*
Y787402D2*
X1097716D1*
X847688Y977465D2*
Y853687D1*
Y915576D2*
X905640D1*
X1820079Y849291D2*
Y725512D1*
X2020079Y849291D2*
Y725512D1*
Y787402D2*
X2081968D1*
X1827895Y977465D2*
Y853687D1*
Y915576D2*
X1885848D1*
X2804331Y849291D2*
Y725512D1*
X3004331Y849291D2*
Y725512D1*
Y787402D2*
X3066220D1*
X2814354Y977465D2*
Y853687D1*
Y915576D2*
X2872307D1*
X3788583Y849291D2*
Y725512D1*
X3988583Y849291D2*
Y725512D1*
Y787402D2*
X4050472D1*
X3797688Y977465D2*
Y853687D1*
Y915576D2*
X3855640D1*
D18*
X3448425Y635827D3*
X3323228Y735827D3*
X3448425Y835827D3*
X3323228Y935827D3*
X3448425Y1035827D3*
X3323228Y1135827D3*
X2418903Y635827D3*
X2293706Y735827D3*
X2418903Y835827D3*
X2293706Y935827D3*
X2418903Y1035827D3*
X2293706Y1135827D3*
D33*
X918701Y1843701D3*
X1028937D3*
D35*
X935827Y787402D3*
X735827D3*
X835827D3*
X1035827D3*
X835827Y1968503D3*
X1035827Y1968504D3*
D33*
X847688Y915576D3*
X737451D3*
X1918701Y1843701D3*
X2028937D3*
D35*
X1920079Y787402D3*
X1720079D3*
X1820079D3*
X2020079D3*
X1820079Y1968503D3*
X2020079Y1968504D3*
D33*
X1827895Y915576D3*
X1717659D3*
X2893701Y1843701D3*
X3003937D3*
D35*
X2904331Y787402D3*
X2704331D3*
X2804331D3*
X3004331D3*
X2804331Y1968503D3*
X3004331Y1968504D3*
D33*
X2814354Y915576D3*
X2704118D3*
X3868701Y1843701D3*
X3978937D3*
D35*
X3888583Y787402D3*
X3688583D3*
X3788583D3*
X3988583D3*
X3788583Y1968503D3*
X3988583Y1968504D3*
D33*
X3797688Y915576D3*
X3687451D3*
M02*
