M48
INCH
T01C0.0191
T02C0.0394
T03C0.1181
%
T01
X+035948Y+009912
X+028429Y+011238
X+027743Y+010645
X+025527Y+006355
X+017197Y+010489
X+007338Y+010427
T02
X+009358Y+007874
X+008358Y+007874
X+007358Y+007874
X+010358Y+007874
X+017201Y+007874
X+018201Y+007874
X+019201Y+007874
X+020201Y+007874
X+027043Y+007874
X+028043Y+007874
X+029043Y+007874
X+030043Y+007874
X+036886Y+007874
X+037886Y+007874
X+038886Y+007874
X+039886Y+007874
X+039886Y+019685
X+037886Y+019685
X+030043Y+019685
X+028043Y+019685
X+020201Y+019685
X+018201Y+019685
X+010358Y+019685
X+008358Y+019685
T03
X+005118Y+005118
X+005118Y+022441
X+042126Y+022441
X+042126Y+005118
T00
M30
