G04 DipTrace 3.3.1.3*
G04 Top.gbr*
%MOIN*%
G04 #@! TF.FileFunction,Copper,L1,Top*
G04 #@! TF.Part,Single*
G04 #@! TA.AperFunction,Conductor*
%ADD13C,0.012*%
G04 #@! TA.AperFunction,CopperBalancing*
%ADD15C,0.025*%
%ADD16C,0.02*%
G04 #@! TA.AperFunction,ComponentPad*
%ADD35C,0.070866*%
G04 #@! TA.AperFunction,ViaPad*
%ADD36C,0.04*%
%FSLAX26Y26*%
G04*
G70*
G90*
G75*
G01*
G04 Top*
%LPD*%
X3594820Y991181D2*
D13*
Y994301D1*
X3568301Y967781D1*
X2733701D1*
X2552740Y786820D1*
Y635501D1*
X2842900Y1123781D2*
Y1105062D1*
X2824181Y1123781D1*
X814900D1*
X733781Y1042661D1*
X2774261Y1064501D2*
X1735302D1*
X1719701Y1048900D1*
D36*
X3594820Y991181D3*
X2552740Y635501D3*
X2842900Y1123781D3*
X733781Y1042661D3*
X2774261Y1064501D3*
X1719701Y1048900D3*
X644939Y2297277D2*
D15*
X4079474D1*
X644939Y2272408D2*
X4079474D1*
X644939Y2247539D2*
X4079474D1*
X644939Y2222671D2*
X4079474D1*
X644939Y2197802D2*
X4079474D1*
X644939Y2172933D2*
X4079474D1*
X644939Y2148064D2*
X4079474D1*
X644939Y2123196D2*
X4079474D1*
X644939Y2098327D2*
X4079474D1*
X644939Y2073458D2*
X4079474D1*
X644939Y2048589D2*
X4079474D1*
X644939Y2023720D2*
X805294D1*
X866345D2*
X1005276D1*
X1066363D2*
X1789561D1*
X1850612D2*
X1989543D1*
X2050595D2*
X2773792D1*
X2834879D2*
X2973811D1*
X3034862D2*
X3758060D1*
X3819111D2*
X3958042D1*
X4019129D2*
X4079474D1*
X644939Y1998852D2*
X779349D1*
X892289D2*
X979332D1*
X1092307D2*
X1763617D1*
X1876556D2*
X1963599D1*
X2076575D2*
X2747848D1*
X2860824D2*
X2947867D1*
X3060806D2*
X3732115D1*
X3845055D2*
X3932098D1*
X4045074D2*
X4079474D1*
X644939Y1973983D2*
X771634D1*
X900004D2*
X971653D1*
X1100022D2*
X1755902D1*
X1884271D2*
X1955884D1*
X2084254D2*
X2740133D1*
X2868503D2*
X2940151D1*
X3068521D2*
X3724400D1*
X3852770D2*
X3924383D1*
X4052753D2*
X4079474D1*
X644939Y1949114D2*
X774505D1*
X897133D2*
X974523D1*
X1097152D2*
X1758772D1*
X1881401D2*
X1958755D1*
X2081383D2*
X2743004D1*
X2865632D2*
X2943022D1*
X3065651D2*
X3727271D1*
X3849899D2*
X3927254D1*
X4049882D2*
X4079474D1*
X644939Y1924245D2*
X790007D1*
X881631D2*
X990025D1*
X1081650D2*
X1774274D1*
X1865899D2*
X1974257D1*
X2065881D2*
X2758506D1*
X2850130D2*
X2958524D1*
X3050149D2*
X3742773D1*
X3834397D2*
X3942756D1*
X4034380D2*
X4079474D1*
X644939Y1899377D2*
X4079474D1*
X644939Y1874508D2*
X4079474D1*
X644939Y1849639D2*
X4079474D1*
X644939Y1824770D2*
X4079474D1*
X644939Y1799902D2*
X4079474D1*
X644939Y1775033D2*
X4079474D1*
X644939Y1750164D2*
X4079474D1*
X644939Y1725295D2*
X4079474D1*
X644939Y1700427D2*
X4079474D1*
X644939Y1675558D2*
X4079474D1*
X644939Y1650689D2*
X4079474D1*
X644939Y1625820D2*
X4079474D1*
X644939Y1600951D2*
X4079474D1*
X644939Y1576083D2*
X4079474D1*
X644939Y1551214D2*
X4079474D1*
X644939Y1526345D2*
X4079474D1*
X644939Y1501476D2*
X4079474D1*
X644939Y1476608D2*
X4079474D1*
X644939Y1451739D2*
X4079474D1*
X644939Y1426870D2*
X4079474D1*
X644939Y1402001D2*
X4079474D1*
X644939Y1377133D2*
X4079474D1*
X644939Y1352264D2*
X4079474D1*
X644939Y1327395D2*
X4079474D1*
X644939Y1302526D2*
X4079474D1*
X644939Y1277657D2*
X4079474D1*
X644939Y1252789D2*
X4079474D1*
X644939Y1227920D2*
X4079474D1*
X644939Y1203051D2*
X4079474D1*
X644939Y1178182D2*
X4079474D1*
X644939Y1153314D2*
X798834D1*
X2881313D2*
X4079474D1*
X644939Y1128445D2*
X771096D1*
X2891648D2*
X4079474D1*
X644939Y1103576D2*
X746228D1*
X2887270D2*
X4079474D1*
X644939Y1078707D2*
X701911D1*
X818260D2*
X1681514D1*
X2864412D2*
X4079474D1*
X644939Y1053839D2*
X686158D1*
X793392D2*
X1670964D1*
X2821997D2*
X4079474D1*
X644939Y1028970D2*
X686840D1*
X780725D2*
X1675198D1*
X1764203D2*
X2741784D1*
X2806746D2*
X3565254D1*
X3624403D2*
X4079474D1*
X644939Y1004101D2*
X705320D1*
X762245D2*
X1704767D1*
X1734634D2*
X3547671D1*
X3641986D2*
X4079474D1*
X644939Y979232D2*
X2696713D1*
X3642238D2*
X4079474D1*
X644939Y954364D2*
X2671845D1*
X3625695D2*
X4079474D1*
X644939Y929495D2*
X2646978D1*
X2743877D2*
X4079474D1*
X644939Y904626D2*
X2622110D1*
X2719009D2*
X4079474D1*
X644939Y879757D2*
X2597242D1*
X2694142D2*
X4079474D1*
X644939Y854888D2*
X2572374D1*
X2669274D2*
X4079474D1*
X644939Y830020D2*
X688383D1*
X1083265D2*
X1672650D1*
X2067496D2*
X2547507D1*
X2644406D2*
X2656918D1*
X3051763D2*
X3641149D1*
X4035995D2*
X4079474D1*
X644939Y805151D2*
X673993D1*
X1097654D2*
X1658261D1*
X2081921D2*
X2523428D1*
X2619538D2*
X2642492D1*
X3066153D2*
X3626759D1*
X4050420D2*
X4079474D1*
X644939Y780282D2*
X671804D1*
X1099843D2*
X1656072D1*
X2084110D2*
X2517759D1*
X2594671D2*
X2640303D1*
X3068342D2*
X3624571D1*
X4052609D2*
X4079474D1*
X644939Y755413D2*
X680309D1*
X1091338D2*
X1664540D1*
X2075606D2*
X2517759D1*
X2587745D2*
X2648808D1*
X3059837D2*
X3633075D1*
X4044105D2*
X4079474D1*
X644939Y730545D2*
X708801D1*
X762855D2*
X808774D1*
X862864D2*
X908784D1*
X962873D2*
X1008793D1*
X1062846D2*
X1693032D1*
X1747122D2*
X1793042D1*
X1847131D2*
X1893051D1*
X1947105D2*
X1993060D1*
X2047114D2*
X2517759D1*
X2587745D2*
X2677300D1*
X2731353D2*
X2777309D1*
X2831363D2*
X2877282D1*
X2931372D2*
X2977292D1*
X3031381D2*
X3661531D1*
X3715621D2*
X3761540D1*
X3815630D2*
X3861550D1*
X3915603D2*
X3961559D1*
X4015613D2*
X4079474D1*
X644939Y705676D2*
X2517759D1*
X2587745D2*
X4079474D1*
X644939Y680807D2*
X2517759D1*
X2587745D2*
X4079474D1*
X644939Y655938D2*
X2508465D1*
X2597003D2*
X4079474D1*
X644939Y631070D2*
X2503943D1*
X2601524D2*
X4079474D1*
X644939Y606201D2*
X2514134D1*
X2591333D2*
X4079474D1*
X644939Y581332D2*
X4079474D1*
X644939Y556463D2*
X4079474D1*
X644939Y531594D2*
X4079474D1*
X644939Y506726D2*
X4079474D1*
X644939Y481857D2*
X4079474D1*
X644939Y456988D2*
X4079474D1*
X985819Y750869D2*
X979614Y743614D1*
X972225Y737303D1*
X963940Y732226D1*
X954963Y728507D1*
X945514Y726239D1*
X935827Y725476D1*
X926140Y726239D1*
X916691Y728507D1*
X907713Y732226D1*
X899428Y737303D1*
X892039Y743614D1*
X885834Y750869D1*
X881484Y745567D1*
X876210Y740456D1*
X870368Y736005D1*
X864039Y732276D1*
X857314Y729324D1*
X850287Y727188D1*
X843056Y725900D1*
X835723Y725476D1*
X828392Y725924D1*
X821166Y727237D1*
X814145Y729396D1*
X807430Y732371D1*
X801114Y736120D1*
X795287Y740591D1*
X790030Y745720D1*
X785829Y750875D1*
X779614Y743614D1*
X772225Y737303D1*
X763940Y732226D1*
X754963Y728507D1*
X745514Y726239D1*
X735827Y725476D1*
X726140Y726239D1*
X716691Y728507D1*
X707713Y732226D1*
X699428Y737303D1*
X692039Y743614D1*
X685728Y751003D1*
X680651Y759288D1*
X676932Y768266D1*
X674664Y777714D1*
X673902Y787402D1*
X674664Y797089D1*
X676932Y806538D1*
X680651Y815515D1*
X685728Y823800D1*
X692039Y831189D1*
X699428Y837500D1*
X707713Y842577D1*
X716691Y846296D1*
X726140Y848564D1*
X735827Y849327D1*
X745514Y848564D1*
X754963Y846296D1*
X763940Y842577D1*
X772225Y837500D1*
X779614Y831189D1*
X785819Y823935D1*
X790309Y829388D1*
X795601Y834482D1*
X801458Y838914D1*
X807799Y842621D1*
X814534Y845551D1*
X821568Y847663D1*
X828803Y848927D1*
X836137Y849326D1*
X843467Y848854D1*
X850689Y847517D1*
X857702Y845334D1*
X864407Y842337D1*
X870710Y838567D1*
X876523Y834077D1*
X881763Y828930D1*
X885819Y823935D1*
X892039Y831189D1*
X899428Y837500D1*
X907713Y842577D1*
X916691Y846296D1*
X926140Y848564D1*
X935827Y849327D1*
X945514Y848564D1*
X954963Y846296D1*
X963940Y842577D1*
X972225Y837500D1*
X979614Y831189D1*
X985819Y823935D1*
X990309Y829388D1*
X995601Y834482D1*
X1001458Y838914D1*
X1007799Y842621D1*
X1014534Y845551D1*
X1021568Y847663D1*
X1028803Y848927D1*
X1036137Y849326D1*
X1043467Y848854D1*
X1050689Y847517D1*
X1057702Y845334D1*
X1064407Y842337D1*
X1070710Y838567D1*
X1076523Y834077D1*
X1081763Y828930D1*
X1086357Y823199D1*
X1090240Y816965D1*
X1093357Y810314D1*
X1095665Y803342D1*
X1097132Y796145D1*
X1097736Y788825D1*
X1097507Y781897D1*
X1096421Y774633D1*
X1094483Y767548D1*
X1091720Y760743D1*
X1088171Y754313D1*
X1083885Y748348D1*
X1078923Y742933D1*
X1073355Y738143D1*
X1067259Y734047D1*
X1060721Y730700D1*
X1053832Y728152D1*
X1046690Y726437D1*
X1039396Y725579D1*
X1032051Y725592D1*
X1024759Y726473D1*
X1017624Y728212D1*
X1010744Y730784D1*
X1004217Y734152D1*
X998134Y738269D1*
X992582Y743077D1*
X987638Y748509D1*
X985829Y750875D1*
X897561Y1963644D2*
X896041Y1954046D1*
X893038Y1944805D1*
X888627Y1936147D1*
X882915Y1928285D1*
X876044Y1921414D1*
X868183Y1915703D1*
X859525Y1911291D1*
X850283Y1908288D1*
X840685Y1906768D1*
X830968D1*
X821371Y1908288D1*
X812129Y1911291D1*
X803471Y1915703D1*
X795610Y1921414D1*
X788738Y1928285D1*
X783027Y1936147D1*
X778615Y1944805D1*
X775613Y1954046D1*
X774092Y1963644D1*
Y1973361D1*
X775613Y1982959D1*
X778615Y1992200D1*
X783027Y2000858D1*
X788738Y2008720D1*
X795610Y2015591D1*
X803471Y2021303D1*
X812129Y2025714D1*
X821371Y2028717D1*
X830968Y2030237D1*
X840685D1*
X850283Y2028717D1*
X859525Y2025714D1*
X868183Y2021303D1*
X876044Y2015591D1*
X882915Y2008720D1*
X888627Y2000858D1*
X893038Y1992200D1*
X896041Y1982959D1*
X897561Y1973361D1*
Y1963644D1*
X1097561Y1963645D2*
X1096041Y1954048D1*
X1093038Y1944806D1*
X1088627Y1936148D1*
X1082915Y1928287D1*
X1076044Y1921416D1*
X1068183Y1915704D1*
X1059525Y1911293D1*
X1050283Y1908290D1*
X1040685Y1906770D1*
X1030968D1*
X1021371Y1908290D1*
X1012129Y1911293D1*
X1003471Y1915704D1*
X995610Y1921416D1*
X988738Y1928287D1*
X983027Y1936148D1*
X978615Y1944806D1*
X975613Y1954048D1*
X974092Y1963645D1*
Y1973363D1*
X975613Y1982960D1*
X978615Y1992202D1*
X983027Y2000860D1*
X988738Y2008721D1*
X995610Y2015592D1*
X1003471Y2021304D1*
X1012129Y2025715D1*
X1021371Y2028718D1*
X1030968Y2030238D1*
X1040685D1*
X1050283Y2028718D1*
X1059525Y2025715D1*
X1068183Y2021304D1*
X1076044Y2015592D1*
X1082915Y2008721D1*
X1088627Y2000860D1*
X1093038Y1992202D1*
X1096041Y1982960D1*
X1097561Y1973363D1*
Y1963645D1*
X1970071Y750869D2*
X1963866Y743614D1*
X1956477Y737303D1*
X1948192Y732226D1*
X1939215Y728507D1*
X1929766Y726239D1*
X1920079Y725476D1*
X1910392Y726239D1*
X1900943Y728507D1*
X1891965Y732226D1*
X1883680Y737303D1*
X1876291Y743614D1*
X1870086Y750869D1*
X1865736Y745567D1*
X1860462Y740456D1*
X1854620Y736005D1*
X1848291Y732276D1*
X1841566Y729324D1*
X1834539Y727188D1*
X1827308Y725900D1*
X1819975Y725476D1*
X1812644Y725924D1*
X1805418Y727237D1*
X1798397Y729396D1*
X1791682Y732371D1*
X1785366Y736120D1*
X1779539Y740591D1*
X1774282Y745720D1*
X1770081Y750875D1*
X1763866Y743614D1*
X1756477Y737303D1*
X1748192Y732226D1*
X1739215Y728507D1*
X1729766Y726239D1*
X1720079Y725476D1*
X1710392Y726239D1*
X1700943Y728507D1*
X1691965Y732226D1*
X1683680Y737303D1*
X1676291Y743614D1*
X1669980Y751003D1*
X1664903Y759288D1*
X1661184Y768266D1*
X1658916Y777714D1*
X1658154Y787402D1*
X1658916Y797089D1*
X1661184Y806538D1*
X1664903Y815515D1*
X1669980Y823800D1*
X1676291Y831189D1*
X1683680Y837500D1*
X1691965Y842577D1*
X1700943Y846296D1*
X1710392Y848564D1*
X1720079Y849327D1*
X1729766Y848564D1*
X1739215Y846296D1*
X1748192Y842577D1*
X1756477Y837500D1*
X1763866Y831189D1*
X1770071Y823935D1*
X1774561Y829388D1*
X1779853Y834482D1*
X1785710Y838914D1*
X1792051Y842621D1*
X1798786Y845551D1*
X1805820Y847663D1*
X1813055Y848927D1*
X1820389Y849326D1*
X1827719Y848854D1*
X1834941Y847517D1*
X1841954Y845334D1*
X1848659Y842337D1*
X1854962Y838567D1*
X1860775Y834077D1*
X1866015Y828930D1*
X1870071Y823935D1*
X1876291Y831189D1*
X1883680Y837500D1*
X1891965Y842577D1*
X1900943Y846296D1*
X1910392Y848564D1*
X1920079Y849327D1*
X1929766Y848564D1*
X1939215Y846296D1*
X1948192Y842577D1*
X1956477Y837500D1*
X1963866Y831189D1*
X1970071Y823935D1*
X1974561Y829388D1*
X1979853Y834482D1*
X1985710Y838914D1*
X1992051Y842621D1*
X1998786Y845551D1*
X2005820Y847663D1*
X2013055Y848927D1*
X2020389Y849326D1*
X2027719Y848854D1*
X2034941Y847517D1*
X2041954Y845334D1*
X2048659Y842337D1*
X2054962Y838567D1*
X2060775Y834077D1*
X2066015Y828930D1*
X2070609Y823199D1*
X2074492Y816965D1*
X2077609Y810314D1*
X2079917Y803342D1*
X2081384Y796145D1*
X2081988Y788825D1*
X2081759Y781897D1*
X2080673Y774633D1*
X2078735Y767548D1*
X2075972Y760743D1*
X2072423Y754313D1*
X2068137Y748348D1*
X2063175Y742933D1*
X2057607Y738143D1*
X2051511Y734047D1*
X2044973Y730700D1*
X2038084Y728152D1*
X2030942Y726437D1*
X2023648Y725579D1*
X2016303Y725592D1*
X2009011Y726473D1*
X2001875Y728212D1*
X1994996Y730784D1*
X1988469Y734152D1*
X1982386Y738269D1*
X1976834Y743077D1*
X1971890Y748509D1*
X1970081Y750875D1*
X1881813Y1963644D2*
X1880293Y1954046D1*
X1877290Y1944805D1*
X1872879Y1936147D1*
X1867167Y1928285D1*
X1860296Y1921414D1*
X1852435Y1915703D1*
X1843776Y1911291D1*
X1834535Y1908288D1*
X1824937Y1906768D1*
X1815220D1*
X1805623Y1908288D1*
X1796381Y1911291D1*
X1787723Y1915703D1*
X1779862Y1921414D1*
X1772990Y1928285D1*
X1767279Y1936147D1*
X1762867Y1944805D1*
X1759865Y1954046D1*
X1758344Y1963644D1*
Y1973361D1*
X1759865Y1982959D1*
X1762867Y1992200D1*
X1767279Y2000858D1*
X1772990Y2008720D1*
X1779862Y2015591D1*
X1787723Y2021303D1*
X1796381Y2025714D1*
X1805623Y2028717D1*
X1815220Y2030237D1*
X1824937D1*
X1834535Y2028717D1*
X1843776Y2025714D1*
X1852435Y2021303D1*
X1860296Y2015591D1*
X1867167Y2008720D1*
X1872879Y2000858D1*
X1877290Y1992200D1*
X1880293Y1982959D1*
X1881813Y1973361D1*
Y1963644D1*
X2081813Y1963645D2*
X2080293Y1954048D1*
X2077290Y1944806D1*
X2072879Y1936148D1*
X2067167Y1928287D1*
X2060296Y1921416D1*
X2052435Y1915704D1*
X2043776Y1911293D1*
X2034535Y1908290D1*
X2024937Y1906770D1*
X2015220D1*
X2005623Y1908290D1*
X1996381Y1911293D1*
X1987723Y1915704D1*
X1979862Y1921416D1*
X1972990Y1928287D1*
X1967279Y1936148D1*
X1962867Y1944806D1*
X1959865Y1954048D1*
X1958344Y1963645D1*
Y1973363D1*
X1959865Y1982960D1*
X1962867Y1992202D1*
X1967279Y2000860D1*
X1972990Y2008721D1*
X1979862Y2015592D1*
X1987723Y2021304D1*
X1996381Y2025715D1*
X2005623Y2028718D1*
X2015220Y2030238D1*
X2024937D1*
X2034535Y2028718D1*
X2043776Y2025715D1*
X2052435Y2021304D1*
X2060296Y2015592D1*
X2067167Y2008721D1*
X2072879Y2000860D1*
X2077290Y1992202D1*
X2080293Y1982960D1*
X2081813Y1973363D1*
Y1963645D1*
X2954323Y750869D2*
X2948118Y743614D1*
X2940729Y737303D1*
X2932444Y732226D1*
X2923467Y728507D1*
X2914018Y726239D1*
X2904331Y725476D1*
X2894643Y726239D1*
X2885195Y728507D1*
X2876217Y732226D1*
X2867932Y737303D1*
X2860543Y743614D1*
X2854338Y750869D1*
X2849988Y745567D1*
X2844714Y740456D1*
X2838872Y736005D1*
X2832543Y732276D1*
X2825818Y729324D1*
X2818791Y727188D1*
X2811560Y725900D1*
X2804227Y725476D1*
X2796896Y725924D1*
X2789670Y727237D1*
X2782649Y729396D1*
X2775934Y732371D1*
X2769618Y736120D1*
X2763791Y740591D1*
X2758534Y745720D1*
X2754333Y750875D1*
X2748118Y743614D1*
X2740729Y737303D1*
X2732444Y732226D1*
X2723467Y728507D1*
X2714018Y726239D1*
X2704331Y725476D1*
X2694643Y726239D1*
X2685195Y728507D1*
X2676217Y732226D1*
X2667932Y737303D1*
X2660543Y743614D1*
X2654232Y751003D1*
X2649155Y759288D1*
X2645436Y768266D1*
X2643168Y777714D1*
X2642406Y787402D1*
X2643168Y797089D1*
X2645436Y806538D1*
X2649155Y815515D1*
X2654232Y823800D1*
X2660543Y831189D1*
X2667932Y837500D1*
X2676217Y842577D1*
X2685195Y846296D1*
X2694643Y848564D1*
X2704331Y849327D1*
X2714018Y848564D1*
X2723467Y846296D1*
X2732444Y842577D1*
X2740729Y837500D1*
X2748118Y831189D1*
X2754323Y823935D1*
X2758813Y829388D1*
X2764105Y834482D1*
X2769962Y838914D1*
X2776302Y842621D1*
X2783037Y845551D1*
X2790072Y847663D1*
X2797307Y848927D1*
X2804641Y849326D1*
X2811971Y848854D1*
X2819193Y847517D1*
X2826206Y845334D1*
X2832911Y842337D1*
X2839214Y838567D1*
X2845027Y834077D1*
X2850267Y828930D1*
X2854323Y823935D1*
X2860543Y831189D1*
X2867932Y837500D1*
X2876217Y842577D1*
X2885195Y846296D1*
X2894643Y848564D1*
X2904331Y849327D1*
X2914018Y848564D1*
X2923467Y846296D1*
X2932444Y842577D1*
X2940729Y837500D1*
X2948118Y831189D1*
X2954323Y823935D1*
X2958813Y829388D1*
X2964105Y834482D1*
X2969962Y838914D1*
X2976302Y842621D1*
X2983037Y845551D1*
X2990072Y847663D1*
X2997307Y848927D1*
X3004641Y849326D1*
X3011971Y848854D1*
X3019193Y847517D1*
X3026206Y845334D1*
X3032911Y842337D1*
X3039214Y838567D1*
X3045027Y834077D1*
X3050267Y828930D1*
X3054861Y823199D1*
X3058744Y816965D1*
X3061861Y810314D1*
X3064169Y803342D1*
X3065636Y796145D1*
X3066240Y788825D1*
X3066011Y781897D1*
X3064925Y774633D1*
X3062987Y767548D1*
X3060224Y760743D1*
X3056675Y754313D1*
X3052389Y748348D1*
X3047427Y742933D1*
X3041859Y738143D1*
X3035763Y734047D1*
X3029225Y730700D1*
X3022336Y728152D1*
X3015194Y726437D1*
X3007900Y725579D1*
X3000555Y725592D1*
X2993263Y726473D1*
X2986127Y728212D1*
X2979248Y730784D1*
X2972721Y734152D1*
X2966638Y738269D1*
X2961086Y743077D1*
X2956142Y748509D1*
X2954333Y750875D1*
X2866065Y1963644D2*
X2864545Y1954046D1*
X2861542Y1944805D1*
X2857131Y1936147D1*
X2851419Y1928285D1*
X2844548Y1921414D1*
X2836687Y1915703D1*
X2828028Y1911291D1*
X2818787Y1908288D1*
X2809189Y1906768D1*
X2799472D1*
X2789875Y1908288D1*
X2780633Y1911291D1*
X2771975Y1915703D1*
X2764114Y1921414D1*
X2757242Y1928285D1*
X2751531Y1936147D1*
X2747119Y1944805D1*
X2744117Y1954046D1*
X2742596Y1963644D1*
Y1973361D1*
X2744117Y1982959D1*
X2747119Y1992200D1*
X2751531Y2000858D1*
X2757242Y2008720D1*
X2764114Y2015591D1*
X2771975Y2021303D1*
X2780633Y2025714D1*
X2789875Y2028717D1*
X2799472Y2030237D1*
X2809189D1*
X2818787Y2028717D1*
X2828028Y2025714D1*
X2836687Y2021303D1*
X2844548Y2015591D1*
X2851419Y2008720D1*
X2857131Y2000858D1*
X2861542Y1992200D1*
X2864545Y1982959D1*
X2866065Y1973361D1*
Y1963644D1*
X3066065Y1963645D2*
X3064545Y1954048D1*
X3061542Y1944806D1*
X3057131Y1936148D1*
X3051419Y1928287D1*
X3044548Y1921416D1*
X3036687Y1915704D1*
X3028028Y1911293D1*
X3018787Y1908290D1*
X3009189Y1906770D1*
X2999472D1*
X2989875Y1908290D1*
X2980633Y1911293D1*
X2971975Y1915704D1*
X2964114Y1921416D1*
X2957242Y1928287D1*
X2951531Y1936148D1*
X2947119Y1944806D1*
X2944117Y1954048D1*
X2942596Y1963645D1*
Y1973363D1*
X2944117Y1982960D1*
X2947119Y1992202D1*
X2951531Y2000860D1*
X2957242Y2008721D1*
X2964114Y2015592D1*
X2971975Y2021304D1*
X2980633Y2025715D1*
X2989875Y2028718D1*
X2999472Y2030238D1*
X3009189D1*
X3018787Y2028718D1*
X3028028Y2025715D1*
X3036687Y2021304D1*
X3044548Y2015592D1*
X3051419Y2008721D1*
X3057131Y2000860D1*
X3061542Y1992202D1*
X3064545Y1982960D1*
X3066065Y1973363D1*
Y1963645D1*
X3938575Y750869D2*
X3932370Y743614D1*
X3924981Y737303D1*
X3916696Y732226D1*
X3907719Y728507D1*
X3898270Y726239D1*
X3888583Y725476D1*
X3878895Y726239D1*
X3869447Y728507D1*
X3860469Y732226D1*
X3852184Y737303D1*
X3844795Y743614D1*
X3838590Y750869D1*
X3834240Y745567D1*
X3828966Y740456D1*
X3823124Y736005D1*
X3816795Y732276D1*
X3810070Y729324D1*
X3803043Y727188D1*
X3795812Y725900D1*
X3788479Y725476D1*
X3781148Y725924D1*
X3773922Y727237D1*
X3766901Y729396D1*
X3760186Y732371D1*
X3753870Y736120D1*
X3748043Y740591D1*
X3742786Y745720D1*
X3738585Y750875D1*
X3732370Y743614D1*
X3724981Y737303D1*
X3716696Y732226D1*
X3707719Y728507D1*
X3698270Y726239D1*
X3688583Y725476D1*
X3678895Y726239D1*
X3669447Y728507D1*
X3660469Y732226D1*
X3652184Y737303D1*
X3644795Y743614D1*
X3638484Y751003D1*
X3633407Y759288D1*
X3629688Y768266D1*
X3627420Y777714D1*
X3626657Y787402D1*
X3627420Y797089D1*
X3629688Y806538D1*
X3633407Y815515D1*
X3638484Y823800D1*
X3644795Y831189D1*
X3652184Y837500D1*
X3660469Y842577D1*
X3669447Y846296D1*
X3678895Y848564D1*
X3688583Y849327D1*
X3698270Y848564D1*
X3707719Y846296D1*
X3716696Y842577D1*
X3724981Y837500D1*
X3732370Y831189D1*
X3738575Y823935D1*
X3743065Y829388D1*
X3748357Y834482D1*
X3754214Y838914D1*
X3760554Y842621D1*
X3767289Y845551D1*
X3774324Y847663D1*
X3781559Y848927D1*
X3788893Y849326D1*
X3796223Y848854D1*
X3803445Y847517D1*
X3810458Y845334D1*
X3817163Y842337D1*
X3823466Y838567D1*
X3829279Y834077D1*
X3834519Y828930D1*
X3838575Y823935D1*
X3844795Y831189D1*
X3852184Y837500D1*
X3860469Y842577D1*
X3869447Y846296D1*
X3878895Y848564D1*
X3888583Y849327D1*
X3898270Y848564D1*
X3907719Y846296D1*
X3916696Y842577D1*
X3924981Y837500D1*
X3932370Y831189D1*
X3938575Y823935D1*
X3943065Y829388D1*
X3948357Y834482D1*
X3954214Y838914D1*
X3960554Y842621D1*
X3967289Y845551D1*
X3974324Y847663D1*
X3981559Y848927D1*
X3988893Y849326D1*
X3996223Y848854D1*
X4003445Y847517D1*
X4010458Y845334D1*
X4017163Y842337D1*
X4023466Y838567D1*
X4029279Y834077D1*
X4034519Y828930D1*
X4039113Y823199D1*
X4042995Y816965D1*
X4046113Y810314D1*
X4048421Y803342D1*
X4049888Y796145D1*
X4050492Y788825D1*
X4050263Y781897D1*
X4049177Y774633D1*
X4047239Y767548D1*
X4044476Y760743D1*
X4040927Y754313D1*
X4036641Y748348D1*
X4031679Y742933D1*
X4026111Y738143D1*
X4020015Y734047D1*
X4013476Y730700D1*
X4006588Y728152D1*
X3999446Y726437D1*
X3992152Y725579D1*
X3984807Y725592D1*
X3977515Y726473D1*
X3970379Y728212D1*
X3963500Y730784D1*
X3956973Y734152D1*
X3950890Y738269D1*
X3945338Y743077D1*
X3940394Y748509D1*
X3938585Y750875D1*
X3850317Y1963644D2*
X3848797Y1954046D1*
X3845794Y1944805D1*
X3841383Y1936147D1*
X3835671Y1928285D1*
X3828800Y1921414D1*
X3820939Y1915703D1*
X3812280Y1911291D1*
X3803039Y1908288D1*
X3793441Y1906768D1*
X3783724D1*
X3774127Y1908288D1*
X3764885Y1911291D1*
X3756227Y1915703D1*
X3748365Y1921414D1*
X3741494Y1928285D1*
X3735783Y1936147D1*
X3731371Y1944805D1*
X3728368Y1954046D1*
X3726848Y1963644D1*
Y1973361D1*
X3728368Y1982959D1*
X3731371Y1992200D1*
X3735783Y2000858D1*
X3741494Y2008720D1*
X3748365Y2015591D1*
X3756227Y2021303D1*
X3764885Y2025714D1*
X3774127Y2028717D1*
X3783724Y2030237D1*
X3793441D1*
X3803039Y2028717D1*
X3812280Y2025714D1*
X3820939Y2021303D1*
X3828800Y2015591D1*
X3835671Y2008720D1*
X3841383Y2000858D1*
X3845794Y1992200D1*
X3848797Y1982959D1*
X3850317Y1973361D1*
Y1963644D1*
X4050317Y1963645D2*
X4048797Y1954048D1*
X4045794Y1944806D1*
X4041383Y1936148D1*
X4035671Y1928287D1*
X4028800Y1921416D1*
X4020939Y1915704D1*
X4012280Y1911293D1*
X4003039Y1908290D1*
X3993441Y1906770D1*
X3983724D1*
X3974127Y1908290D1*
X3964885Y1911293D1*
X3956227Y1915704D1*
X3948365Y1921416D1*
X3941494Y1928287D1*
X3935783Y1936148D1*
X3931371Y1944806D1*
X3928368Y1954048D1*
X3926848Y1963645D1*
Y1973363D1*
X3928368Y1982960D1*
X3931371Y1992202D1*
X3935783Y2000860D1*
X3941494Y2008721D1*
X3948365Y2015592D1*
X3956227Y2021304D1*
X3964885Y2025715D1*
X3974127Y2028718D1*
X3983724Y2030238D1*
X3993441D1*
X4003039Y2028718D1*
X4012280Y2025715D1*
X4020939Y2021304D1*
X4028800Y2015592D1*
X4035671Y2008721D1*
X4041383Y2000860D1*
X4045794Y1992202D1*
X4048797Y1982960D1*
X4050317Y1973363D1*
Y1963645D1*
X3559114Y935289D2*
X2747163D1*
X2585224Y773354D1*
X2585232Y668725D1*
X2590353Y662829D1*
X2594165Y656608D1*
X2596957Y649868D1*
X2598660Y642774D1*
X2599232Y635501D1*
X2598660Y628228D1*
X2596957Y621134D1*
X2594165Y614394D1*
X2590353Y608174D1*
X2585615Y602626D1*
X2580068Y597888D1*
X2573847Y594077D1*
X2567107Y591285D1*
X2560013Y589582D1*
X2552740Y589009D1*
X2545467Y589582D1*
X2538373Y591285D1*
X2531633Y594077D1*
X2525413Y597888D1*
X2519865Y602626D1*
X2515127Y608174D1*
X2511315Y614394D1*
X2508524Y621134D1*
X2506820Y628228D1*
X2506248Y635501D1*
X2506820Y642774D1*
X2508524Y649868D1*
X2511315Y656608D1*
X2515127Y662829D1*
X2520253Y668734D1*
X2520348Y789370D1*
X2521146Y794405D1*
X2522721Y799254D1*
X2525036Y803797D1*
X2528033Y807922D1*
X2575235Y855266D1*
X2712599Y992488D1*
X2716724Y995485D1*
X2721267Y997800D1*
X2726116Y999375D1*
X2731151Y1000173D1*
X2798005Y1000273D1*
X3549241D1*
X3550604Y1005548D1*
X3553395Y1012288D1*
X3557207Y1018508D1*
X3561945Y1024056D1*
X3567493Y1028794D1*
X3573713Y1032606D1*
X3580453Y1035398D1*
X3587547Y1037101D1*
X3594820Y1037673D1*
X3602093Y1037101D1*
X3609187Y1035398D1*
X3615927Y1032606D1*
X3622148Y1028794D1*
X3627695Y1024056D1*
X3632433Y1018508D1*
X3636245Y1012288D1*
X3639037Y1005548D1*
X3640740Y998454D1*
X3641312Y991181D1*
X3640740Y983908D1*
X3639037Y976814D1*
X3636245Y970074D1*
X3632433Y963854D1*
X3627695Y958306D1*
X3622148Y953568D1*
X3615927Y949756D1*
X3609187Y946964D1*
X3602093Y945261D1*
X3594820Y944689D1*
X3591276Y944805D1*
X3587399Y941494D1*
X3583052Y938830D1*
X3578341Y936879D1*
X3573383Y935689D1*
X3568301Y935289D1*
X3559114D1*
X2867614Y1083968D2*
X2864002Y1080354D1*
X2859877Y1077358D1*
X2855334Y1075043D1*
X2850485Y1073467D1*
X2845450Y1072670D1*
X2840351D1*
X2835315Y1073467D1*
X2830466Y1075043D1*
X2825923Y1077358D1*
X2821798Y1080354D1*
X2815573Y1086168D1*
X2815271Y1086406D1*
X2818478Y1078868D1*
X2820181Y1071774D1*
X2820753Y1064501D1*
X2820181Y1057228D1*
X2818478Y1050134D1*
X2815686Y1043394D1*
X2811874Y1037174D1*
X2807136Y1031626D1*
X2801589Y1026888D1*
X2795368Y1023077D1*
X2788628Y1020285D1*
X2781534Y1018582D1*
X2774261Y1018009D1*
X2766988Y1018582D1*
X2759894Y1020285D1*
X2753154Y1023077D1*
X2746934Y1026888D1*
X2741028Y1032014D1*
X1763009Y1032009D1*
X1759342Y1024608D1*
X1755054Y1018706D1*
X1749895Y1013547D1*
X1743993Y1009259D1*
X1737493Y1005947D1*
X1730554Y1003693D1*
X1723349Y1002551D1*
X1716053D1*
X1708847Y1003693D1*
X1701909Y1005947D1*
X1695409Y1009259D1*
X1689507Y1013547D1*
X1684348Y1018706D1*
X1680060Y1024608D1*
X1676748Y1031108D1*
X1674493Y1038047D1*
X1673352Y1045253D1*
Y1052548D1*
X1674493Y1059754D1*
X1676748Y1066692D1*
X1680060Y1073192D1*
X1684348Y1079094D1*
X1689507Y1084253D1*
X1695409Y1088541D1*
X1700679Y1091286D1*
X828339Y1091289D1*
X780251Y1043181D1*
X779701Y1035388D1*
X777997Y1028295D1*
X775206Y1021554D1*
X771394Y1015334D1*
X766656Y1009787D1*
X761108Y1005048D1*
X754888Y1001237D1*
X748148Y998445D1*
X741054Y996742D1*
X733781Y996169D1*
X726508Y996742D1*
X719414Y998445D1*
X712674Y1001237D1*
X706453Y1005048D1*
X700906Y1009787D1*
X696168Y1015334D1*
X692356Y1021554D1*
X689564Y1028295D1*
X687861Y1035388D1*
X687289Y1042661D1*
X687861Y1049934D1*
X689564Y1057028D1*
X692356Y1063768D1*
X696168Y1069989D1*
X700906Y1075536D1*
X706453Y1080274D1*
X712674Y1084086D1*
X719414Y1086878D1*
X726508Y1088581D1*
X734308Y1089133D1*
X793798Y1148488D1*
X797923Y1151485D1*
X802466Y1153800D1*
X807315Y1155375D1*
X812351Y1156173D1*
X879205Y1156273D1*
X2809666D1*
X2815573Y1161394D1*
X2821793Y1165206D1*
X2828533Y1167997D1*
X2835627Y1169701D1*
X2842900Y1170273D1*
X2850173Y1169701D1*
X2857267Y1167997D1*
X2864007Y1165206D1*
X2870228Y1161394D1*
X2875775Y1156656D1*
X2880513Y1151108D1*
X2884325Y1144888D1*
X2887117Y1138148D1*
X2888820Y1131054D1*
X2889392Y1123781D1*
X2888820Y1116508D1*
X2887117Y1109414D1*
X2884325Y1102674D1*
X2880513Y1096453D1*
X2875775Y1090906D1*
X2870228Y1086168D1*
X2868437Y1084972D1*
X642445Y433760D2*
X4082016D1*
X4081988Y2322153D1*
X642394Y2322146D1*
X642421Y433753D1*
X835827Y849291D2*
D16*
Y725512D1*
X1035827Y849291D2*
Y725512D1*
Y787402D2*
X1097716D1*
X1820079Y849291D2*
Y725512D1*
X2020079Y849291D2*
Y725512D1*
Y787402D2*
X2081968D1*
X2804331Y849291D2*
Y725512D1*
X3004331Y849291D2*
Y725512D1*
Y787402D2*
X3066220D1*
X3788583Y849291D2*
Y725512D1*
X3988583Y849291D2*
Y725512D1*
Y787402D2*
X4050472D1*
D35*
X935827D3*
X735827D3*
X835827D3*
X1035827D3*
X835827Y1968503D3*
X1035827Y1968504D3*
X1920079Y787402D3*
X1720079D3*
X1820079D3*
X2020079D3*
X1820079Y1968503D3*
X2020079Y1968504D3*
X2904331Y787402D3*
X2704331D3*
X2804331D3*
X3004331D3*
X2804331Y1968503D3*
X3004331Y1968504D3*
X3888583Y787402D3*
X3688583D3*
X3788583D3*
X3988583D3*
X3788583Y1968503D3*
X3988583Y1968504D3*
M02*
